G04 #@! TF.FileFunction,Copper,L1,Top,Signal*
%FSLAX46Y46*%
G04 Gerber Fmt 4.6, Leading zero omitted, Abs format (unit mm)*
G04 Created by KiCad (PCBNEW 4.0.4-stable) date 08/29/17 21:10:05*
%MOMM*%
%LPD*%
G01*
G04 APERTURE LIST*
%ADD10C,0.100000*%
%ADD11R,0.800000X0.800000*%
%ADD12C,0.600000*%
%ADD13C,0.250000*%
G04 APERTURE END LIST*
D10*
D11*
X20317260Y-5584040D03*
X20317260Y-7184040D03*
X14907260Y-5616040D03*
X14907260Y-7216040D03*
D12*
X10037260Y-2104040D03*
X14337260Y-1704040D03*
X9337260Y-7054040D03*
X14887260Y-6516042D03*
X20337260Y-6484042D03*
X5237260Y595960D03*
X4537260Y-8754040D03*
X10837260Y-4104040D03*
X8637260Y-7504040D03*
X14737260Y-10454040D03*
X6787260Y-6804040D03*
X4587260Y-1404040D03*
D13*
X14337260Y-1704040D02*
X13937260Y-2104040D01*
X13937260Y-2104040D02*
X10037260Y-2104040D01*
X9337260Y-7054040D02*
X10775260Y-5616040D01*
X10775260Y-5616040D02*
X14907260Y-5616040D01*
X14907260Y-5616040D02*
X20285260Y-5616040D01*
X20285260Y-5616040D02*
X20317260Y-5584040D01*
X14869260Y-5654040D02*
X14907260Y-5616040D01*
X14907260Y-7216040D02*
X14907260Y-6536042D01*
X14907260Y-6536042D02*
X14887260Y-6516042D01*
X20317260Y-7184040D02*
X20317260Y-6504042D01*
X20317260Y-6504042D02*
X20337260Y-6484042D01*
X14887260Y-7236040D02*
X14907260Y-7216040D01*
X5237260Y595960D02*
X6137260Y595960D01*
X6137260Y595960D02*
X10837260Y-4104040D01*
X10837260Y-4104040D02*
X6187260Y-8754040D01*
X6187260Y-8754040D02*
X4537260Y-8754040D01*
X8637260Y-7504040D02*
X11202260Y-10069040D01*
X11202260Y-10069040D02*
X11202260Y-10454040D01*
X11202260Y-10454040D02*
X14737260Y-10454040D01*
X4587260Y-1404040D02*
X4587260Y-4604040D01*
X4587260Y-4604040D02*
X6787260Y-6804040D01*
M02*
