G04 #@! TF.FileFunction,Legend,Bot*
%FSLAX46Y46*%
G04 Gerber Fmt 4.6, Leading zero omitted, Abs format (unit mm)*
G04 Created by KiCad (PCBNEW 4.0.4-stable) date 08/29/17 21:10:05*
%MOMM*%
%LPD*%
G01*
G04 APERTURE LIST*
%ADD10C,0.100000*%
%ADD11C,0.150000*%
%ADD12C,0.120000*%
G04 APERTURE END LIST*
D10*
D11*
X18237260Y-9429040D02*
X17237260Y-9429040D01*
X17237260Y-10779040D02*
X18237260Y-10779040D01*
X15737260Y1320960D02*
X14537260Y1320960D01*
X14537260Y-429040D02*
X15737260Y-429040D01*
D12*
X12477260Y-7434040D02*
X12477260Y-5674040D01*
X15547260Y-5674040D02*
X15547260Y-8104040D01*
X5017260Y-9404040D02*
X5017260Y-8874040D01*
X5017260Y-8874040D02*
X2357260Y-8874040D01*
X2357260Y-8874040D02*
X2357260Y-9404040D01*
X5017260Y-11004040D02*
X5017260Y-11534040D01*
X5017260Y-11534040D02*
X2357260Y-11534040D01*
X2357260Y-11534040D02*
X2357260Y-11004040D01*
X5017260Y-8874040D02*
X5017260Y-11534040D01*
X2357260Y-9404040D02*
X687260Y-9404040D01*
X5017260Y-6754040D02*
X5017260Y-6224040D01*
X5017260Y-6224040D02*
X2357260Y-6224040D01*
X2357260Y-6224040D02*
X2357260Y-6754040D01*
X5017260Y-8354040D02*
X5017260Y-8884040D01*
X5017260Y-8884040D02*
X2357260Y-8884040D01*
X2357260Y-8884040D02*
X2357260Y-8354040D01*
X5017260Y-6224040D02*
X5017260Y-8884040D01*
X2357260Y-6754040D02*
X687260Y-6754040D01*
X2357260Y-3004040D02*
X2357260Y-3534040D01*
X2357260Y-3534040D02*
X5017260Y-3534040D01*
X5017260Y-3534040D02*
X5017260Y-3004040D01*
X2357260Y-1404040D02*
X2357260Y-874040D01*
X2357260Y-874040D02*
X5017260Y-874040D01*
X5017260Y-874040D02*
X5017260Y-1404040D01*
X5017260Y-3534040D02*
X5017260Y-874040D01*
X2357260Y-3004040D02*
X687260Y-3004040D01*
X2357260Y-5654040D02*
X2357260Y-6184040D01*
X2357260Y-6184040D02*
X5017260Y-6184040D01*
X5017260Y-6184040D02*
X5017260Y-5654040D01*
X2357260Y-4054040D02*
X2357260Y-3524040D01*
X2357260Y-3524040D02*
X5017260Y-3524040D01*
X5017260Y-3524040D02*
X5017260Y-4054040D01*
X5017260Y-6184040D02*
X5017260Y-3524040D01*
X2357260Y-5654040D02*
X687260Y-5654040D01*
X2357260Y-354040D02*
X2357260Y-884040D01*
X2357260Y-884040D02*
X5017260Y-884040D01*
X5017260Y-884040D02*
X5017260Y-354040D01*
X2357260Y1245960D02*
X2357260Y1775960D01*
X2357260Y1775960D02*
X5017260Y1775960D01*
X5017260Y1775960D02*
X5017260Y1245960D01*
X5017260Y-884040D02*
X5017260Y1775960D01*
X2357260Y-354040D02*
X687260Y-354040D01*
D11*
X17849926Y-12288421D02*
X18183260Y-11812230D01*
X18421355Y-12288421D02*
X18421355Y-11288421D01*
X18040402Y-11288421D01*
X17945164Y-11336040D01*
X17897545Y-11383659D01*
X17849926Y-11478897D01*
X17849926Y-11621754D01*
X17897545Y-11716992D01*
X17945164Y-11764611D01*
X18040402Y-11812230D01*
X18421355Y-11812230D01*
X16897545Y-12288421D02*
X17468974Y-12288421D01*
X17183260Y-12288421D02*
X17183260Y-11288421D01*
X17278498Y-11431278D01*
X17373736Y-11526516D01*
X17468974Y-11574135D01*
X18118212Y-1132611D02*
X17975355Y-1180230D01*
X17927736Y-1227850D01*
X17880117Y-1323088D01*
X17880117Y-1465945D01*
X17927736Y-1561183D01*
X17975355Y-1608802D01*
X18070593Y-1656421D01*
X18451546Y-1656421D01*
X18451546Y-656421D01*
X18118212Y-656421D01*
X18022974Y-704040D01*
X17975355Y-751659D01*
X17927736Y-846897D01*
X17927736Y-942135D01*
X17975355Y-1037373D01*
X18022974Y-1084992D01*
X18118212Y-1132611D01*
X18451546Y-1132611D01*
X17546784Y-656421D02*
X16880117Y-656421D01*
X17546784Y-1656421D01*
X16880117Y-1656421D01*
X15975355Y-1656421D02*
X16546784Y-1656421D01*
X16261070Y-1656421D02*
X16261070Y-656421D01*
X16356308Y-799278D01*
X16451546Y-894516D01*
X16546784Y-942135D01*
X11072974Y-7682611D02*
X10930117Y-7730230D01*
X10882498Y-7777850D01*
X10834879Y-7873088D01*
X10834879Y-8015945D01*
X10882498Y-8111183D01*
X10930117Y-8158802D01*
X11025355Y-8206421D01*
X11406308Y-8206421D01*
X11406308Y-7206421D01*
X11072974Y-7206421D01*
X10977736Y-7254040D01*
X10930117Y-7301659D01*
X10882498Y-7396897D01*
X10882498Y-7492135D01*
X10930117Y-7587373D01*
X10977736Y-7634992D01*
X11072974Y-7682611D01*
X11406308Y-7682611D01*
X10549165Y-7206421D02*
X9977736Y-7206421D01*
X10263451Y-8206421D02*
X10263451Y-7206421D01*
X9120593Y-8206421D02*
X9692022Y-8206421D01*
X9406308Y-8206421D02*
X9406308Y-7206421D01*
X9501546Y-7349278D01*
X9596784Y-7444516D01*
X9692022Y-7492135D01*
X11868212Y-825469D02*
X11106307Y-825469D01*
X11487259Y-1206421D02*
X11487259Y-444516D01*
X16939641Y-5577850D02*
X15939641Y-5577850D01*
X16844403Y-6625469D02*
X16892022Y-6577850D01*
X16939641Y-6434993D01*
X16939641Y-6339755D01*
X16892022Y-6196897D01*
X16796784Y-6101659D01*
X16701546Y-6054040D01*
X16511070Y-6006421D01*
X16368212Y-6006421D01*
X16177736Y-6054040D01*
X16082498Y-6101659D01*
X15987260Y-6196897D01*
X15939641Y-6339755D01*
X15939641Y-6434993D01*
X15987260Y-6577850D01*
X16034879Y-6625469D01*
X16939641Y-7577850D02*
X16939641Y-7006421D01*
X16939641Y-7292135D02*
X15939641Y-7292135D01*
X16082498Y-7196897D01*
X16177736Y-7101659D01*
X16225355Y-7006421D01*
X4225355Y-9754040D02*
X4320593Y-9706421D01*
X4463450Y-9706421D01*
X4606308Y-9754040D01*
X4701546Y-9849278D01*
X4749165Y-9944516D01*
X4796784Y-10134992D01*
X4796784Y-10277850D01*
X4749165Y-10468326D01*
X4701546Y-10563564D01*
X4606308Y-10658802D01*
X4463450Y-10706421D01*
X4368212Y-10706421D01*
X4225355Y-10658802D01*
X4177736Y-10611183D01*
X4177736Y-10277850D01*
X4368212Y-10277850D01*
X4920593Y-7006421D02*
X4587260Y-8006421D01*
X4253926Y-7006421D01*
X4237260Y-2556421D02*
X4237260Y-1556421D01*
X4177736Y-5261183D02*
X4225355Y-5308802D01*
X4368212Y-5356421D01*
X4463450Y-5356421D01*
X4606308Y-5308802D01*
X4701546Y-5213564D01*
X4749165Y-5118326D01*
X4796784Y-4927850D01*
X4796784Y-4784992D01*
X4749165Y-4594516D01*
X4701546Y-4499278D01*
X4606308Y-4404040D01*
X4463450Y-4356421D01*
X4368212Y-4356421D01*
X4225355Y-4404040D01*
X4177736Y-4451659D01*
X4077736Y-6421D02*
X4411070Y469770D01*
X4649165Y-6421D02*
X4649165Y993579D01*
X4268212Y993579D01*
X4172974Y945960D01*
X4125355Y898341D01*
X4077736Y803103D01*
X4077736Y660246D01*
X4125355Y565008D01*
X4172974Y517389D01*
X4268212Y469770D01*
X4649165Y469770D01*
M02*
