G04 #@! TF.FileFunction,Legend,Top*
%FSLAX46Y46*%
G04 Gerber Fmt 4.6, Leading zero omitted, Abs format (unit mm)*
G04 Created by KiCad (PCBNEW 4.0.4-stable) date 08/29/17 21:10:05*
%MOMM*%
%LPD*%
G01*
G04 APERTURE LIST*
%ADD10C,0.100000*%
%ADD11C,0.120000*%
G04 APERTURE END LIST*
D10*
G36*
X17095014Y-8103675D02*
X10493452Y-7784146D01*
X10630425Y-6067271D01*
X11610518Y-4839991D01*
X11764072Y-4742806D01*
X11722386Y-4565858D01*
X11558131Y-3499566D01*
X11745407Y-2006086D01*
X13081354Y-1524144D01*
X14394651Y-2781445D01*
X15040970Y-3897759D01*
X15078427Y-3975905D01*
X15155701Y-4015226D01*
X16503968Y-4297572D01*
X16760680Y-4299077D01*
X16760680Y-882188D01*
X16036269Y866445D01*
X14287637Y1590856D01*
X4082137Y1590856D01*
X4082117Y1590891D01*
X2333484Y866480D01*
X1609073Y-882153D01*
X1609073Y-7478895D01*
X2333484Y-9227526D01*
X4082117Y-9951938D01*
X11984945Y-9951938D01*
X11507858Y-9509568D01*
X10493452Y-7784146D01*
X17095014Y-8103675D01*
X16605607Y-8859749D01*
X16223090Y-9124549D01*
X15868820Y-8977963D01*
X15271404Y-8126197D01*
X16014786Y-9163744D01*
X16890070Y-9459902D01*
X17646516Y-8990156D01*
X17959473Y-8568193D01*
X18534989Y-9220612D01*
X19459301Y-9350772D01*
X20579351Y-8180700D01*
X19702573Y-9167478D01*
X19399695Y-9105011D01*
X18715295Y-8204093D01*
X17095014Y-8103675D01*
X17095014Y-8103675D01*
G37*
D11*
X19817260Y-7684040D02*
X20817260Y-7684040D01*
X20817260Y-7684040D02*
X20817260Y-5584040D01*
X19817260Y-7684040D02*
X19817260Y-5584040D01*
X14407260Y-7716040D02*
X15407260Y-7716040D01*
X15407260Y-7716040D02*
X15407260Y-5616040D01*
X14407260Y-7716040D02*
X14407260Y-5616040D01*
M02*
