G04 #@! TF.FileFunction,Profile,NP*
%FSLAX46Y46*%
G04 Gerber Fmt 4.6, Leading zero omitted, Abs format (unit mm)*
G04 Created by KiCad (PCBNEW 4.0.4-stable) date 08/29/17 21:10:05*
%MOMM*%
%LPD*%
G01*
G04 APERTURE LIST*
%ADD10C,0.100000*%
%ADD11C,0.150000*%
G04 APERTURE END LIST*
D10*
D11*
X10827260Y2605960D02*
G75*
G03X8347260Y2605960I-1240000J0D01*
G01*
X10817260Y2605960D02*
X8357260Y2605960D01*
X11477260Y2635960D02*
X15607260Y2655960D01*
X11477260Y2635960D02*
G75*
G03X7477260Y2635960I-2000000J0D01*
G01*
X16737260Y-12414040D02*
X18407260Y-13084040D01*
X16107260Y-11204040D02*
X16737260Y-12414040D01*
X15407260Y-11164040D02*
X16107260Y-11204040D01*
X14697260Y-12504040D02*
X15407260Y-11164040D01*
X13037260Y-13164040D02*
X14697260Y-12504040D01*
X12637260Y-11424040D02*
X13037260Y-13164040D01*
X12767260Y-11164040D02*
X12637260Y-11424040D01*
X6077260Y-11164040D02*
X12767260Y-11164040D01*
X6147260Y-11294040D02*
X6077260Y-11164040D01*
X5747260Y-13024040D02*
X6147260Y-11294040D01*
X4097260Y-12354040D02*
X5747260Y-13024040D01*
X3457260Y-11164040D02*
X4097260Y-12354040D01*
X2197260Y-11074040D02*
X3457260Y-11164040D01*
X1677260Y-12054040D02*
X2197260Y-11074040D01*
X27260Y-12714040D02*
X1677260Y-12054040D01*
X-382740Y-10954040D02*
X27260Y-12714040D01*
X357260Y-9554040D02*
X-382740Y-10954040D01*
X87260Y-8364040D02*
X357260Y-9554040D01*
X77260Y-7634040D02*
X87260Y-8364040D01*
X-1012740Y-7664040D02*
X77260Y-7634040D01*
X-2772740Y-7054040D02*
X-1012740Y-7664040D01*
X-3662740Y-5504040D02*
X-2772740Y-7054040D01*
X-1992740Y-4874040D02*
X-3662740Y-5504040D01*
X87260Y-5634040D02*
X-1992740Y-4874040D01*
X87260Y-114040D02*
X87260Y-5634040D01*
X897260Y1835960D02*
X87260Y-114040D01*
X2877260Y2655960D02*
X897260Y1835960D01*
X7477260Y2645960D02*
X2877260Y2655960D01*
X17587260Y1845960D02*
X15617260Y2655960D01*
X18407260Y-134040D02*
X17587260Y1845960D01*
X18407260Y-3334040D02*
X18407260Y-134040D01*
X19227260Y-2044040D02*
X18407260Y-3334040D01*
X20487260Y-1124040D02*
X19227260Y-2044040D01*
X22057260Y-2364040D02*
X20487260Y-1124040D01*
X21857260Y-4824040D02*
X22057260Y-2364040D01*
X22857260Y-6164040D02*
X21857260Y-4824040D01*
X22767260Y-8014040D02*
X22857260Y-6164040D01*
X21827260Y-9784040D02*
X22767260Y-8014040D01*
X20307260Y-10954040D02*
X21827260Y-9784040D01*
X18757260Y-11244040D02*
X20307260Y-10954040D01*
X18797260Y-11364040D02*
X18757260Y-11244040D01*
X18407260Y-13084040D02*
X18797260Y-11364040D01*
M02*
