G04 #@! TF.FileFunction,Soldermask,Top*
%FSLAX46Y46*%
G04 Gerber Fmt 4.6, Leading zero omitted, Abs format (unit mm)*
G04 Created by KiCad (PCBNEW 4.0.4-stable) date 08/29/17 21:10:05*
%MOMM*%
%LPD*%
G01*
G04 APERTURE LIST*
%ADD10C,0.100000*%
%ADD11C,0.047783*%
%ADD12R,1.200000X1.200000*%
G04 APERTURE END LIST*
D10*
D11*
G36*
X2876086Y2637522D02*
X916539Y1828366D01*
X107383Y-131182D01*
X107383Y-5672938D01*
X-249002Y-5495244D01*
X-2009772Y-4878042D01*
X-3653074Y-5507688D01*
X-2762486Y-7025311D01*
X-1001591Y-7642512D01*
X107385Y-7598088D01*
X107385Y-8366482D01*
X381393Y-9572516D01*
X-352532Y-10972546D01*
X31727Y-12689764D01*
X1662713Y-12029010D01*
X2177629Y-11046835D01*
X2876088Y-11135184D01*
X3473256Y-11135184D01*
X4109001Y-12347567D01*
X5739859Y-13008321D01*
X6124242Y-11291103D01*
X6042488Y-11135185D01*
X12816051Y-11135185D01*
X12662745Y-11427609D01*
X13047004Y-13144952D01*
X14677990Y-12484197D01*
X15385160Y-11135186D01*
X15527141Y-11135186D01*
X16121201Y-11174134D01*
X16760182Y-12393109D01*
X18391168Y-13053863D01*
X18775427Y-11336645D01*
X18699645Y-11192051D01*
X20291059Y-10923517D01*
X21807722Y-9760281D01*
X22744084Y-7994016D01*
X22840090Y-6165951D01*
X21835685Y-4817316D01*
X22028686Y-2371772D01*
X20484184Y-1148940D01*
X19261361Y-2040771D01*
X18385071Y-3414174D01*
X18385071Y-131178D01*
X17575914Y1828368D01*
X15616367Y2637525D01*
X2876096Y2637525D01*
X2876086Y2637522D01*
X2876086Y2637522D01*
G37*
X2876086Y2637522D02*
X916539Y1828366D01*
X107383Y-131182D01*
X107383Y-5672938D01*
X-249002Y-5495244D01*
X-2009772Y-4878042D01*
X-3653074Y-5507688D01*
X-2762486Y-7025311D01*
X-1001591Y-7642512D01*
X107385Y-7598088D01*
X107385Y-8366482D01*
X381393Y-9572516D01*
X-352532Y-10972546D01*
X31727Y-12689764D01*
X1662713Y-12029010D01*
X2177629Y-11046835D01*
X2876088Y-11135184D01*
X3473256Y-11135184D01*
X4109001Y-12347567D01*
X5739859Y-13008321D01*
X6124242Y-11291103D01*
X6042488Y-11135185D01*
X12816051Y-11135185D01*
X12662745Y-11427609D01*
X13047004Y-13144952D01*
X14677990Y-12484197D01*
X15385160Y-11135186D01*
X15527141Y-11135186D01*
X16121201Y-11174134D01*
X16760182Y-12393109D01*
X18391168Y-13053863D01*
X18775427Y-11336645D01*
X18699645Y-11192051D01*
X20291059Y-10923517D01*
X21807722Y-9760281D01*
X22744084Y-7994016D01*
X22840090Y-6165951D01*
X21835685Y-4817316D01*
X22028686Y-2371772D01*
X20484184Y-1148940D01*
X19261361Y-2040771D01*
X18385071Y-3414174D01*
X18385071Y-131178D01*
X17575914Y1828368D01*
X15616367Y2637525D01*
X2876096Y2637525D01*
X2876086Y2637522D01*
D12*
X20317260Y-5584040D03*
X20317260Y-7184040D03*
X14907260Y-5616040D03*
X14907260Y-7216040D03*
M02*
