G04 #@! TF.FileFunction,Profile,NP*
%FSLAX46Y46*%
G04 Gerber Fmt 4.6, Leading zero omitted, Abs format (unit mm)*
G04 Created by KiCad (PCBNEW 4.0.4-stable) date 08/29/17 21:05:56*
%MOMM*%
%LPD*%
G01*
G04 APERTURE LIST*
%ADD10C,0.100000*%
%ADD11C,0.150000*%
G04 APERTURE END LIST*
D10*
D11*
X143240000Y-67940000D02*
G75*
G03X140760000Y-67940000I-1240000J0D01*
G01*
X143230000Y-67940000D02*
X140770000Y-67940000D01*
X143890000Y-67910000D02*
X148020000Y-67890000D01*
X143890000Y-67910000D02*
G75*
G03X139890000Y-67910000I-2000000J0D01*
G01*
X149150000Y-82960000D02*
X150820000Y-83630000D01*
X148520000Y-81750000D02*
X149150000Y-82960000D01*
X147820000Y-81710000D02*
X148520000Y-81750000D01*
X147110000Y-83050000D02*
X147820000Y-81710000D01*
X145450000Y-83710000D02*
X147110000Y-83050000D01*
X145050000Y-81970000D02*
X145450000Y-83710000D01*
X145180000Y-81710000D02*
X145050000Y-81970000D01*
X138490000Y-81710000D02*
X145180000Y-81710000D01*
X138560000Y-81840000D02*
X138490000Y-81710000D01*
X138160000Y-83570000D02*
X138560000Y-81840000D01*
X136510000Y-82900000D02*
X138160000Y-83570000D01*
X135870000Y-81710000D02*
X136510000Y-82900000D01*
X134610000Y-81620000D02*
X135870000Y-81710000D01*
X134090000Y-82600000D02*
X134610000Y-81620000D01*
X132440000Y-83260000D02*
X134090000Y-82600000D01*
X132030000Y-81500000D02*
X132440000Y-83260000D01*
X132770000Y-80100000D02*
X132030000Y-81500000D01*
X132500000Y-78910000D02*
X132770000Y-80100000D01*
X132490000Y-78180000D02*
X132500000Y-78910000D01*
X131400000Y-78210000D02*
X132490000Y-78180000D01*
X129640000Y-77600000D02*
X131400000Y-78210000D01*
X128750000Y-76050000D02*
X129640000Y-77600000D01*
X130420000Y-75420000D02*
X128750000Y-76050000D01*
X132500000Y-76180000D02*
X130420000Y-75420000D01*
X132500000Y-70660000D02*
X132500000Y-76180000D01*
X133310000Y-68710000D02*
X132500000Y-70660000D01*
X135290000Y-67890000D02*
X133310000Y-68710000D01*
X139890000Y-67900000D02*
X135290000Y-67890000D01*
X150000000Y-68700000D02*
X148030000Y-67890000D01*
X150820000Y-70680000D02*
X150000000Y-68700000D01*
X150820000Y-73880000D02*
X150820000Y-70680000D01*
X151640000Y-72590000D02*
X150820000Y-73880000D01*
X152900000Y-71670000D02*
X151640000Y-72590000D01*
X154470000Y-72910000D02*
X152900000Y-71670000D01*
X154270000Y-75370000D02*
X154470000Y-72910000D01*
X155270000Y-76710000D02*
X154270000Y-75370000D01*
X155180000Y-78560000D02*
X155270000Y-76710000D01*
X154240000Y-80330000D02*
X155180000Y-78560000D01*
X152720000Y-81500000D02*
X154240000Y-80330000D01*
X151170000Y-81790000D02*
X152720000Y-81500000D01*
X151210000Y-81910000D02*
X151170000Y-81790000D01*
X150820000Y-83630000D02*
X151210000Y-81910000D01*
M02*
