%MOIN*%
%OFA0B0*%
%FSLAX44Y44*%
%IPPOS*%
%LPD*%
%ADD10C,0*%
D10*
X00029065Y00006144D02*
X00029065Y00006144D01*
X00027746Y00006155D01*
X00027747Y00006159D01*
X00028101Y00006252D01*
X00028137Y00006355D01*
X00028195Y00006448D01*
X00028273Y00006525D01*
X00028365Y00006583D01*
X00028469Y00006620D01*
X00028577Y00006632D01*
X00028686Y00006620D01*
X00028789Y00006583D01*
X00028882Y00006525D01*
X00028959Y00006448D01*
X00029017Y00006355D01*
X00029053Y00006252D01*
X00029065Y00006144D01*
X00028672Y00012443D02*
X00028672Y00012443D01*
X00027353Y00012455D01*
X00027353Y00012459D01*
X00027708Y00012551D01*
X00027744Y00012655D01*
X00027802Y00012747D01*
X00027879Y00012824D01*
X00027972Y00012883D01*
X00028075Y00012919D01*
X00028183Y00012931D01*
X00028292Y00012919D01*
X00028395Y00012883D01*
X00028488Y00012824D01*
X00028565Y00012747D01*
X00028623Y00012655D01*
X00028659Y00012551D01*
X00028672Y00012443D01*
X00028278Y00019136D02*
X00028278Y00019136D01*
X00026959Y00019148D01*
X00026960Y00019152D01*
X00027314Y00019244D01*
X00027350Y00019348D01*
X00027408Y00019440D01*
X00027485Y00019517D01*
X00027578Y00019576D01*
X00027681Y00019612D01*
X00027790Y00019624D01*
X00027898Y00019612D01*
X00028002Y00019576D01*
X00028094Y00019517D01*
X00028171Y00019440D01*
X00028230Y00019348D01*
X00028266Y00019244D01*
X00028278Y00019136D01*
X00027884Y00025829D02*
X00027884Y00025829D01*
X00026565Y00025840D01*
X00026566Y00025844D01*
X00026920Y00025937D01*
X00026956Y00026040D01*
X00027014Y00026133D01*
X00027092Y00026210D01*
X00027184Y00026268D01*
X00027287Y00026305D01*
X00027396Y00026317D01*
X00027505Y00026305D01*
X00027608Y00026268D01*
X00027700Y00026210D01*
X00027778Y00026133D01*
X00027836Y00026040D01*
X00027872Y00025937D01*
X00027884Y00025829D01*
X00027491Y00032128D02*
X00027491Y00032128D01*
X00026172Y00032140D01*
X00026172Y00032144D01*
X00026526Y00032236D01*
X00026563Y00032340D01*
X00026621Y00032432D01*
X00026698Y00032510D01*
X00026791Y00032568D01*
X00026894Y00032604D01*
X00027002Y00032616D01*
X00027111Y00032604D01*
X00027214Y00032568D01*
X00027307Y00032510D01*
X00027384Y00032432D01*
X00027442Y00032340D01*
X00027478Y00032236D01*
X00027491Y00032128D01*
X00027097Y00038427D02*
X00027097Y00038427D01*
X00025778Y00038439D01*
X00025778Y00038443D01*
X00026133Y00038536D01*
X00026169Y00038639D01*
X00026227Y00038731D01*
X00026304Y00038809D01*
X00026397Y00038867D01*
X00026500Y00038903D01*
X00026609Y00038915D01*
X00026717Y00038903D01*
X00026820Y00038867D01*
X00026913Y00038809D01*
X00026990Y00038731D01*
X00027049Y00038639D01*
X00027085Y00038536D01*
X00027097Y00038427D01*
X00018435Y00006144D02*
X00018435Y00006144D01*
X00017117Y00006155D01*
X00017117Y00006159D01*
X00017471Y00006252D01*
X00017507Y00006355D01*
X00017566Y00006448D01*
X00017643Y00006525D01*
X00017735Y00006583D01*
X00017839Y00006620D01*
X00017947Y00006632D01*
X00018056Y00006620D01*
X00018159Y00006583D01*
X00018252Y00006525D01*
X00018329Y00006448D01*
X00018387Y00006355D01*
X00018423Y00006252D01*
X00018435Y00006144D01*
X00018042Y00012443D02*
X00018042Y00012443D01*
X00016723Y00012455D01*
X00016723Y00012459D01*
X00017078Y00012551D01*
X00017114Y00012655D01*
X00017172Y00012747D01*
X00017249Y00012824D01*
X00017342Y00012883D01*
X00017445Y00012919D01*
X00017554Y00012931D01*
X00017662Y00012919D01*
X00017765Y00012883D01*
X00017858Y00012824D01*
X00017935Y00012747D01*
X00017993Y00012655D01*
X00018029Y00012551D01*
X00018042Y00012443D01*
X00017254Y00025435D02*
X00017254Y00025435D01*
X00015935Y00025447D01*
X00015936Y00025451D01*
X00016290Y00025544D01*
X00016326Y00025647D01*
X00016384Y00025739D01*
X00016462Y00025817D01*
X00016554Y00025875D01*
X00016658Y00025911D01*
X00016766Y00025923D01*
X00016875Y00025911D01*
X00016978Y00025875D01*
X00017071Y00025817D01*
X00017148Y00025739D01*
X00017206Y00025647D01*
X00017242Y00025544D01*
X00017254Y00025435D01*
X00016861Y00031734D02*
X00016861Y00031734D01*
X00015542Y00031746D01*
X00015542Y00031750D01*
X00015896Y00031843D01*
X00015933Y00031946D01*
X00015991Y00032039D01*
X00016068Y00032116D01*
X00016161Y00032174D01*
X00016264Y00032210D01*
X00016372Y00032222D01*
X00016481Y00032210D01*
X00016584Y00032174D01*
X00016677Y00032116D01*
X00016754Y00032039D01*
X00016812Y00031946D01*
X00016848Y00031843D01*
X00016861Y00031734D01*
X00017648Y00019136D02*
X00017648Y00019136D01*
X00016329Y00019148D01*
X00016330Y00019152D01*
X00016684Y00019244D01*
X00016720Y00019348D01*
X00016778Y00019440D01*
X00016855Y00019517D01*
X00016948Y00019576D01*
X00017051Y00019612D01*
X00017160Y00019624D01*
X00017268Y00019612D01*
X00017372Y00019576D01*
X00017464Y00019517D01*
X00017542Y00019440D01*
X00017600Y00019348D01*
X00017636Y00019244D01*
X00017648Y00019136D01*
X00016467Y00038427D02*
X00016467Y00038427D01*
X00015148Y00038439D01*
X00015148Y00038443D01*
X00015503Y00038536D01*
X00015539Y00038639D01*
X00015597Y00038731D01*
X00015674Y00038809D01*
X00015767Y00038867D01*
X00015870Y00038903D01*
X00015979Y00038915D01*
X00016087Y00038903D01*
X00016191Y00038867D01*
X00016283Y00038809D01*
X00016360Y00038731D01*
X00016419Y00038639D01*
X00016455Y00038536D01*
X00016467Y00038427D01*
X00007806Y00006537D02*
X00007806Y00006537D01*
X00006487Y00006549D01*
X00006487Y00006553D01*
X00006841Y00006646D01*
X00006877Y00006749D01*
X00006936Y00006842D01*
X00007013Y00006919D01*
X00007105Y00006977D01*
X00007209Y00007013D01*
X00007317Y00007025D01*
X00007426Y00007013D01*
X00007529Y00006977D01*
X00007622Y00006919D01*
X00007699Y00006842D01*
X00007757Y00006749D01*
X00007793Y00006646D01*
X00007806Y00006537D01*
X00007412Y00012836D02*
X00007412Y00012836D01*
X00006093Y00012848D01*
X00006093Y00012852D01*
X00006448Y00012945D01*
X00006484Y00013048D01*
X00006542Y00013141D01*
X00006619Y00013218D01*
X00006712Y00013276D01*
X00006815Y00013312D01*
X00006924Y00013325D01*
X00007032Y00013312D01*
X00007135Y00013276D01*
X00007228Y00013218D01*
X00007305Y00013141D01*
X00007363Y00013048D01*
X00007400Y00012945D01*
X00007412Y00012836D01*
X00007018Y00019136D02*
X00007018Y00019136D01*
X00005699Y00019148D01*
X00005700Y00019152D01*
X00006054Y00019244D01*
X00006090Y00019348D01*
X00006148Y00019440D01*
X00006226Y00019517D01*
X00006318Y00019576D01*
X00006421Y00019612D01*
X00006530Y00019624D01*
X00006639Y00019612D01*
X00006742Y00019576D01*
X00006834Y00019517D01*
X00006912Y00019440D01*
X00006970Y00019348D01*
X00007006Y00019244D01*
X00007018Y00019136D01*
X00006624Y00025435D02*
X00006624Y00025435D01*
X00005306Y00025447D01*
X00005306Y00025451D01*
X00005660Y00025544D01*
X00005696Y00025647D01*
X00005755Y00025739D01*
X00005832Y00025817D01*
X00005924Y00025875D01*
X00006028Y00025911D01*
X00006136Y00025923D01*
X00006245Y00025911D01*
X00006348Y00025875D01*
X00006441Y00025817D01*
X00006518Y00025739D01*
X00006576Y00025647D01*
X00006612Y00025544D01*
X00006624Y00025435D01*
X00005837Y00038427D02*
X00005837Y00038427D01*
X00004518Y00038439D01*
X00004519Y00038443D01*
X00004873Y00038536D01*
X00004909Y00038639D01*
X00004967Y00038731D01*
X00005044Y00038809D01*
X00005137Y00038867D01*
X00005240Y00038903D01*
X00005349Y00038915D01*
X00005457Y00038903D01*
X00005561Y00038867D01*
X00005653Y00038809D01*
X00005730Y00038731D01*
X00005789Y00038639D01*
X00005825Y00038536D01*
X00005837Y00038427D01*
X00006231Y00031734D02*
X00006231Y00031734D01*
X00004912Y00031746D01*
X00004912Y00031750D01*
X00005267Y00031843D01*
X00005303Y00031946D01*
X00005361Y00032039D01*
X00005438Y00032116D01*
X00005531Y00032174D01*
X00005634Y00032210D01*
X00005743Y00032222D01*
X00005851Y00032210D01*
X00005954Y00032174D01*
X00006047Y00032116D01*
X00006124Y00032039D01*
X00006182Y00031946D01*
X00006218Y00031843D01*
X00006231Y00031734D01*
X00016894Y00006160D02*
X00016894Y00006160D01*
X00016888Y00006160D01*
X00016882Y00006160D01*
X00016876Y00006160D01*
X00016870Y00006161D01*
X00016864Y00006161D01*
X00016858Y00006162D01*
X00016852Y00006162D01*
X00016846Y00006163D01*
X00016840Y00006164D01*
X00016834Y00006164D01*
X00016828Y00006165D01*
X00016822Y00006166D01*
X00016817Y00006168D01*
X00016811Y00006169D01*
X00016805Y00006170D01*
X00016799Y00006172D01*
X00016793Y00006173D01*
X00016788Y00006175D01*
X00016782Y00006176D01*
X00016776Y00006178D01*
X00016541Y00006252D01*
X00016489Y00006273D01*
X00016441Y00006301D01*
X00016397Y00006335D01*
X00016358Y00006375D01*
X00016325Y00006420D01*
X00016299Y00006469D01*
X00016281Y00006522D01*
X00016269Y00006577D01*
X00016266Y00006632D01*
X00016271Y00006688D01*
X00016283Y00006742D01*
X00016303Y00006794D01*
X00016330Y00006843D01*
X00016364Y00006887D01*
X00016403Y00006927D01*
X00016448Y00006960D01*
X00016497Y00006986D01*
X00016550Y00007006D01*
X00016604Y00007018D01*
X00016660Y00007022D01*
X00018806Y00007022D01*
X00018754Y00006919D01*
X00018912Y00006234D01*
X00019565Y00006494D01*
X00019845Y00007022D01*
X00020120Y00007006D01*
X00020369Y00006529D01*
X00021026Y00006266D01*
X00021180Y00006943D01*
X00021164Y00006990D01*
X00021774Y00007104D01*
X00022372Y00007565D01*
X00022743Y00008262D01*
X00022743Y00008271D01*
X00022746Y00008305D01*
X00022752Y00008339D01*
X00022762Y00008373D01*
X00022774Y00008405D01*
X00022789Y00008436D01*
X00022806Y00008466D01*
X00022826Y00008494D01*
X00022849Y00008521D01*
X00022874Y00008545D01*
X00022900Y00008567D01*
X00022929Y00008586D01*
X00022959Y00008603D01*
X00022991Y00008618D01*
X00023024Y00008629D01*
X00023057Y00008637D01*
X00023091Y00008643D01*
X00023126Y00008645D01*
X00023161Y00008645D01*
X00023195Y00008641D01*
X00023229Y00008634D01*
X00023558Y00008554D01*
X00023559Y00008554D01*
X00023561Y00008554D01*
X00023563Y00008553D01*
X00023565Y00008553D01*
X00023567Y00008552D01*
X00023569Y00008552D01*
X00023570Y00008551D01*
X00023572Y00008551D01*
X00023574Y00008550D01*
X00023576Y00008550D01*
X00023578Y00008549D01*
X00023579Y00008549D01*
X00023581Y00008548D01*
X00023583Y00008547D01*
X00023585Y00008547D01*
X00023587Y00008546D01*
X00023588Y00008546D01*
X00023590Y00008545D01*
X00023592Y00008544D01*
X00023594Y00008544D01*
X00024010Y00008399D01*
X00024439Y00008411D01*
X00024443Y00008124D01*
X00024550Y00007655D01*
X00024258Y00007104D01*
X00024420Y00006411D01*
X00025069Y00006671D01*
X00025274Y00007057D01*
X00025554Y00007037D01*
X00025599Y00007031D01*
X00025643Y00007020D01*
X00025686Y00007004D01*
X00025726Y00006983D01*
X00025764Y00006958D01*
X00025798Y00006929D01*
X00025829Y00006895D01*
X00025856Y00006859D01*
X00025879Y00006819D01*
X00025897Y00006778D01*
X00025909Y00006734D01*
X00025917Y00006689D01*
X00025920Y00006644D01*
X00025917Y00006599D01*
X00025909Y00006554D01*
X00025897Y00006511D01*
X00025879Y00006469D01*
X00025856Y00006429D01*
X00025829Y00006393D01*
X00025798Y00006360D01*
X00025384Y00005964D01*
X00025379Y00005959D01*
X00025374Y00005954D01*
X00025368Y00005949D01*
X00025363Y00005945D01*
X00025357Y00005940D01*
X00025351Y00005936D01*
X00025345Y00005931D01*
X00025339Y00005927D01*
X00025333Y00005923D01*
X00025327Y00005919D01*
X00025321Y00005915D01*
X00025315Y00005911D01*
X00025309Y00005907D01*
X00025302Y00005904D01*
X00025296Y00005900D01*
X00025289Y00005897D01*
X00025283Y00005894D01*
X00025276Y00005891D01*
X00025270Y00005888D01*
X00025263Y00005885D01*
X00025263Y00005885D01*
X00025156Y00005840D01*
X00024837Y00005073D01*
X00024837Y00002899D01*
X00024405Y00003057D01*
X00024405Y00003057D01*
X00024400Y00003059D01*
X00024395Y00003061D01*
X00024389Y00003063D01*
X00024384Y00003066D01*
X00024379Y00003068D01*
X00024374Y00003070D01*
X00024369Y00003073D01*
X00024364Y00003075D01*
X00024358Y00003078D01*
X00024353Y00003081D01*
X00024348Y00003083D01*
X00024343Y00003086D01*
X00024339Y00003089D01*
X00024334Y00003092D01*
X00024329Y00003095D01*
X00024324Y00003098D01*
X00024319Y00003101D01*
X00024315Y00003105D01*
X00024310Y00003108D01*
X00024305Y00003111D01*
X00022793Y00004237D01*
X00022793Y00004237D01*
X00022793Y00004238D01*
X00022792Y00004238D01*
X00022792Y00004238D01*
X00022791Y00004239D01*
X00022791Y00004239D01*
X00022790Y00004239D01*
X00022790Y00004240D01*
X00022789Y00004240D01*
X00022789Y00004240D01*
X00022789Y00004241D01*
X00022788Y00004241D01*
X00022788Y00004241D01*
X00022787Y00004242D01*
X00022787Y00004242D01*
X00022786Y00004242D01*
X00022786Y00004243D01*
X00022785Y00004243D01*
X00022785Y00004244D01*
X00022785Y00004244D01*
X00022785Y00004244D01*
X00022239Y00004675D01*
X00021743Y00004313D01*
X00021420Y00003805D01*
X00021420Y00005065D01*
X00021097Y00005844D01*
X00020321Y00006163D01*
X00020317Y00006163D01*
X00018691Y00006155D01*
X00018672Y00006331D01*
X00018613Y00006497D01*
X00018520Y00006646D01*
X00018395Y00006771D01*
X00018246Y00006865D01*
X00018079Y00006923D01*
X00017904Y00006943D01*
X00017729Y00006923D01*
X00017562Y00006865D01*
X00017413Y00006771D01*
X00017288Y00006646D01*
X00017195Y00006497D01*
X00017136Y00006331D01*
X00017117Y00006159D01*
X00017117Y00006159D01*
X00016894Y00006160D01*
X00016376Y00012459D02*
X00016376Y00012459D01*
X00016376Y00012459D01*
X00016358Y00012460D01*
X00016339Y00012461D01*
X00016321Y00012463D01*
X00016303Y00012466D01*
X00016285Y00012470D01*
X00016267Y00012475D01*
X00016249Y00012481D01*
X00016232Y00012487D01*
X00016214Y00012495D01*
X00016198Y00012503D01*
X00016181Y00012511D01*
X00016166Y00012521D01*
X00016150Y00012531D01*
X00016135Y00012543D01*
X00016121Y00012554D01*
X00016107Y00012567D01*
X00016094Y00012580D01*
X00016081Y00012593D01*
X00016069Y00012608D01*
X00016058Y00012622D01*
X00015720Y00013090D01*
X00015697Y00013127D01*
X00015678Y00013165D01*
X00015663Y00013206D01*
X00015652Y00013248D01*
X00015647Y00013291D01*
X00015646Y00013334D01*
X00015650Y00013377D01*
X00015658Y00013419D01*
X00015671Y00013460D01*
X00015689Y00013500D01*
X00015711Y00013537D01*
X00015736Y00013572D01*
X00015766Y00013604D01*
X00015798Y00013632D01*
X00015834Y00013657D01*
X00015872Y00013677D01*
X00015912Y00013693D01*
X00015954Y00013705D01*
X00015996Y00013712D01*
X00016039Y00013714D01*
X00018412Y00013714D01*
X00018361Y00013612D01*
X00018518Y00012927D01*
X00019172Y00013187D01*
X00019451Y00013714D01*
X00019727Y00013699D01*
X00019975Y00013222D01*
X00020632Y00012959D01*
X00020786Y00013636D01*
X00020770Y00013683D01*
X00021380Y00013797D01*
X00021979Y00014258D01*
X00022349Y00014955D01*
X00022349Y00014964D01*
X00022352Y00014998D01*
X00022359Y00015032D01*
X00022368Y00015066D01*
X00022380Y00015098D01*
X00022395Y00015129D01*
X00022412Y00015159D01*
X00022433Y00015187D01*
X00022455Y00015214D01*
X00022480Y00015238D01*
X00022507Y00015260D01*
X00022535Y00015279D01*
X00022566Y00015296D01*
X00022597Y00015310D01*
X00022630Y00015322D01*
X00022664Y00015330D01*
X00022698Y00015336D01*
X00022732Y00015338D01*
X00022767Y00015337D01*
X00022801Y00015334D01*
X00022835Y00015327D01*
X00023164Y00015247D01*
X00023166Y00015247D01*
X00023168Y00015246D01*
X00023169Y00015246D01*
X00023171Y00015246D01*
X00023173Y00015245D01*
X00023175Y00015245D01*
X00023177Y00015244D01*
X00023178Y00015244D01*
X00023180Y00015243D01*
X00023182Y00015242D01*
X00023184Y00015242D01*
X00023186Y00015241D01*
X00023188Y00015241D01*
X00023189Y00015240D01*
X00023191Y00015240D01*
X00023193Y00015239D01*
X00023195Y00015239D01*
X00023196Y00015238D01*
X00023198Y00015237D01*
X00023200Y00015237D01*
X00023617Y00015092D01*
X00024046Y00015104D01*
X00024050Y00014817D01*
X00024156Y00014348D01*
X00023865Y00013797D01*
X00024026Y00013104D01*
X00024676Y00013364D01*
X00024880Y00013750D01*
X00025165Y00013730D01*
X00025203Y00013725D01*
X00025240Y00013717D01*
X00025277Y00013705D01*
X00025312Y00013690D01*
X00025345Y00013671D01*
X00025376Y00013650D01*
X00025406Y00013625D01*
X00025432Y00013598D01*
X00025456Y00013568D01*
X00025477Y00013536D01*
X00025495Y00013502D01*
X00025509Y00013467D01*
X00025520Y00013430D01*
X00025527Y00013393D01*
X00025531Y00013355D01*
X00025530Y00013316D01*
X00025527Y00013278D01*
X00025519Y00013241D01*
X00025508Y00013205D01*
X00025494Y00013169D01*
X00025134Y00012405D01*
X00025127Y00012392D01*
X00025121Y00012379D01*
X00025113Y00012366D01*
X00025105Y00012354D01*
X00025097Y00012342D01*
X00025088Y00012330D01*
X00025079Y00012319D01*
X00025070Y00012308D01*
X00025060Y00012298D01*
X00025049Y00012287D01*
X00025039Y00012277D01*
X00025028Y00012268D01*
X00025016Y00012259D01*
X00025005Y00012250D01*
X00024992Y00012242D01*
X00024980Y00012235D01*
X00024968Y00012227D01*
X00024955Y00012221D01*
X00024942Y00012214D01*
X00024928Y00012208D01*
X00024762Y00012140D01*
X00024443Y00011372D01*
X00024443Y00009199D01*
X00024012Y00009356D01*
X00024006Y00009358D01*
X00024001Y00009360D01*
X00023996Y00009363D01*
X00023990Y00009365D01*
X00023985Y00009367D01*
X00023980Y00009370D01*
X00023975Y00009372D01*
X00023970Y00009375D01*
X00023965Y00009377D01*
X00023960Y00009380D01*
X00023955Y00009383D01*
X00023950Y00009385D01*
X00023945Y00009388D01*
X00023940Y00009391D01*
X00023935Y00009394D01*
X00023930Y00009397D01*
X00023926Y00009401D01*
X00023921Y00009404D01*
X00023916Y00009407D01*
X00023912Y00009410D01*
X00022400Y00010536D01*
X00022399Y00010537D01*
X00022399Y00010537D01*
X00022398Y00010537D01*
X00022398Y00010538D01*
X00022397Y00010538D01*
X00022397Y00010538D01*
X00022397Y00010539D01*
X00022396Y00010539D01*
X00022396Y00010539D01*
X00022395Y00010540D01*
X00022395Y00010540D01*
X00022394Y00010540D01*
X00022394Y00010541D01*
X00022393Y00010541D01*
X00022393Y00010541D01*
X00022393Y00010542D01*
X00022392Y00010542D01*
X00022392Y00010542D01*
X00022391Y00010543D01*
X00022391Y00010543D01*
X00022391Y00010543D01*
X00021845Y00010974D01*
X00021349Y00010612D01*
X00021026Y00010104D01*
X00021026Y00011364D01*
X00020703Y00012144D01*
X00019928Y00012462D01*
X00019924Y00012462D01*
X00018298Y00012455D01*
X00018278Y00012630D01*
X00018220Y00012796D01*
X00018126Y00012946D01*
X00018001Y00013070D01*
X00017852Y00013164D01*
X00017685Y00013222D01*
X00017510Y00013242D01*
X00017335Y00013222D01*
X00017169Y00013164D01*
X00017019Y00013070D01*
X00016895Y00012946D01*
X00016801Y00012796D01*
X00016743Y00012630D01*
X00016723Y00012459D01*
X00016723Y00012459D01*
X00016376Y00012459D01*
X00016053Y00019152D02*
X00016053Y00019152D01*
X00016046Y00019152D01*
X00016040Y00019152D01*
X00016034Y00019153D01*
X00016027Y00019153D01*
X00016021Y00019153D01*
X00016015Y00019154D01*
X00016009Y00019155D01*
X00016002Y00019155D01*
X00015996Y00019156D01*
X00015990Y00019157D01*
X00015984Y00019158D01*
X00015977Y00019160D01*
X00015971Y00019161D01*
X00015965Y00019162D01*
X00015959Y00019164D01*
X00015953Y00019165D01*
X00015947Y00019167D01*
X00015940Y00019169D01*
X00015934Y00019171D01*
X00015928Y00019172D01*
X00015707Y00019247D01*
X00015656Y00019268D01*
X00015608Y00019296D01*
X00015565Y00019331D01*
X00015527Y00019371D01*
X00015495Y00019417D01*
X00015470Y00019466D01*
X00015452Y00019518D01*
X00015441Y00019573D01*
X00015439Y00019628D01*
X00015444Y00019683D01*
X00015456Y00019737D01*
X00015477Y00019789D01*
X00015504Y00019837D01*
X00015538Y00019881D01*
X00015577Y00019920D01*
X00015622Y00019953D01*
X00015671Y00019979D01*
X00015723Y00019998D01*
X00015777Y00020010D01*
X00015832Y00020014D01*
X00018018Y00020014D01*
X00017967Y00019911D01*
X00018124Y00019226D01*
X00018778Y00019486D01*
X00019057Y00020014D01*
X00019333Y00019998D01*
X00019581Y00019522D01*
X00020239Y00019258D01*
X00020392Y00019935D01*
X00020376Y00019982D01*
X00020987Y00020096D01*
X00021585Y00020557D01*
X00021955Y00021254D01*
X00021975Y00021655D01*
X00021978Y00021690D01*
X00021984Y00021724D01*
X00021993Y00021758D01*
X00022006Y00021790D01*
X00022021Y00021822D01*
X00022039Y00021852D01*
X00022059Y00021880D01*
X00022082Y00021906D01*
X00022107Y00021931D01*
X00022134Y00021953D01*
X00022163Y00021972D01*
X00022193Y00021989D01*
X00022225Y00022003D01*
X00022258Y00022014D01*
X00022292Y00022022D01*
X00022326Y00022028D01*
X00022361Y00022030D01*
X00022396Y00022029D01*
X00022430Y00022025D01*
X00022465Y00022018D01*
X00022774Y00021939D01*
X00022776Y00021939D01*
X00022777Y00021938D01*
X00022779Y00021938D01*
X00022781Y00021938D01*
X00022782Y00021937D01*
X00022784Y00021937D01*
X00022785Y00021936D01*
X00022787Y00021936D01*
X00022789Y00021935D01*
X00022790Y00021935D01*
X00022792Y00021934D01*
X00022794Y00021934D01*
X00022795Y00021933D01*
X00022797Y00021933D01*
X00022798Y00021932D01*
X00022800Y00021932D01*
X00022802Y00021931D01*
X00022803Y00021931D01*
X00022805Y00021930D01*
X00022806Y00021930D01*
X00023223Y00021785D01*
X00023652Y00021797D01*
X00023656Y00021510D01*
X00023762Y00021041D01*
X00023471Y00020490D01*
X00023632Y00019797D01*
X00024282Y00020057D01*
X00024487Y00020443D01*
X00024948Y00020410D01*
X00024988Y00020405D01*
X00025027Y00020396D01*
X00025065Y00020383D01*
X00025101Y00020367D01*
X00025136Y00020346D01*
X00025168Y00020323D01*
X00025198Y00020296D01*
X00025225Y00020266D01*
X00025249Y00020234D01*
X00025269Y00020199D01*
X00025286Y00020163D01*
X00025299Y00020125D01*
X00025308Y00020086D01*
X00025313Y00020046D01*
X00025314Y00020006D01*
X00025310Y00019966D01*
X00025303Y00019927D01*
X00025292Y00019888D01*
X00025277Y00019851D01*
X00025258Y00019816D01*
X00024840Y00019113D01*
X00024834Y00019102D01*
X00024827Y00019091D01*
X00024819Y00019081D01*
X00024812Y00019071D01*
X00024804Y00019061D01*
X00024796Y00019052D01*
X00024787Y00019042D01*
X00024778Y00019033D01*
X00024769Y00019025D01*
X00024760Y00019016D01*
X00024750Y00019008D01*
X00024740Y00019000D01*
X00024730Y00018993D01*
X00024719Y00018986D01*
X00024709Y00018979D01*
X00024698Y00018972D01*
X00024687Y00018966D01*
X00024676Y00018961D01*
X00024664Y00018955D01*
X00024652Y00018950D01*
X00024369Y00018833D01*
X00024050Y00018065D01*
X00024050Y00015892D01*
X00023618Y00016049D01*
X00023613Y00016051D01*
X00023607Y00016053D01*
X00023602Y00016056D01*
X00023597Y00016058D01*
X00023592Y00016060D01*
X00023586Y00016062D01*
X00023581Y00016065D01*
X00023576Y00016067D01*
X00023571Y00016070D01*
X00023566Y00016073D01*
X00023561Y00016075D01*
X00023556Y00016078D01*
X00023551Y00016081D01*
X00023546Y00016084D01*
X00023541Y00016087D01*
X00023537Y00016090D01*
X00023532Y00016093D01*
X00023527Y00016097D01*
X00023523Y00016100D01*
X00023518Y00016103D01*
X00022006Y00017229D01*
X00022006Y00017230D01*
X00022005Y00017230D01*
X00022005Y00017230D01*
X00022004Y00017231D01*
X00022004Y00017231D01*
X00022003Y00017231D01*
X00022003Y00017232D01*
X00022002Y00017232D01*
X00022002Y00017232D01*
X00022002Y00017233D01*
X00022001Y00017233D01*
X00022001Y00017233D01*
X00022000Y00017234D01*
X00022000Y00017234D01*
X00021999Y00017234D01*
X00021999Y00017235D01*
X00021998Y00017235D01*
X00021998Y00017235D01*
X00021998Y00017236D01*
X00021997Y00017236D01*
X00021451Y00017667D01*
X00020955Y00017305D01*
X00020632Y00016797D01*
X00020632Y00018057D01*
X00020309Y00018836D01*
X00019534Y00019155D01*
X00019530Y00019155D01*
X00017904Y00019148D01*
X00017884Y00019323D01*
X00017826Y00019489D01*
X00017732Y00019638D01*
X00017607Y00019763D01*
X00017458Y00019857D01*
X00017292Y00019915D01*
X00017117Y00019935D01*
X00016941Y00019915D01*
X00016775Y00019857D01*
X00016626Y00019763D01*
X00016501Y00019638D01*
X00016407Y00019489D01*
X00016349Y00019323D01*
X00016330Y00019152D01*
X00016329Y00019151D01*
X00016053Y00019152D01*
X00015739Y00025451D02*
X00015739Y00025451D01*
X00015733Y00025451D01*
X00015728Y00025451D01*
X00015722Y00025452D01*
X00015716Y00025452D01*
X00015710Y00025452D01*
X00015704Y00025453D01*
X00015698Y00025453D01*
X00015692Y00025454D01*
X00015687Y00025455D01*
X00015681Y00025456D01*
X00015675Y00025457D01*
X00015669Y00025458D01*
X00015663Y00025459D01*
X00015658Y00025460D01*
X00015652Y00025461D01*
X00015646Y00025462D01*
X00015640Y00025464D01*
X00015635Y00025465D01*
X00015629Y00025467D01*
X00015623Y00025469D01*
X00015384Y00025543D01*
X00015332Y00025563D01*
X00015283Y00025591D01*
X00015239Y00025625D01*
X00015200Y00025665D01*
X00015167Y00025710D01*
X00015141Y00025759D01*
X00015122Y00025812D01*
X00015110Y00025867D01*
X00015107Y00025922D01*
X00015111Y00025978D01*
X00015124Y00026033D01*
X00015143Y00026085D01*
X00015170Y00026134D01*
X00015204Y00026178D01*
X00015244Y00026218D01*
X00015289Y00026251D01*
X00015338Y00026278D01*
X00015390Y00026297D01*
X00015445Y00026309D01*
X00015501Y00026313D01*
X00017624Y00026313D01*
X00017573Y00026211D01*
X00017731Y00025525D01*
X00018384Y00025785D01*
X00018664Y00026313D01*
X00018939Y00026297D01*
X00019187Y00025821D01*
X00019845Y00025557D01*
X00019998Y00026234D01*
X00019983Y00026281D01*
X00020593Y00026396D01*
X00021191Y00026856D01*
X00021561Y00027553D01*
X00021581Y00027954D01*
X00021584Y00027989D01*
X00021590Y00028023D01*
X00021600Y00028057D01*
X00021612Y00028090D01*
X00021627Y00028121D01*
X00021645Y00028151D01*
X00021665Y00028179D01*
X00021688Y00028206D01*
X00021713Y00028230D01*
X00021740Y00028252D01*
X00021769Y00028271D01*
X00021799Y00028288D01*
X00021831Y00028302D01*
X00021864Y00028313D01*
X00021898Y00028322D01*
X00021933Y00028327D01*
X00021967Y00028329D01*
X00022002Y00028328D01*
X00022037Y00028324D01*
X00022071Y00028317D01*
X00022380Y00028239D01*
X00022382Y00028238D01*
X00022384Y00028238D01*
X00022385Y00028237D01*
X00022387Y00028237D01*
X00022389Y00028236D01*
X00022390Y00028236D01*
X00022392Y00028235D01*
X00022393Y00028235D01*
X00022395Y00028235D01*
X00022397Y00028234D01*
X00022398Y00028234D01*
X00022400Y00028233D01*
X00022401Y00028233D01*
X00022403Y00028232D01*
X00022405Y00028232D01*
X00022406Y00028231D01*
X00022408Y00028231D01*
X00022409Y00028230D01*
X00022411Y00028229D01*
X00022413Y00028229D01*
X00022829Y00028085D01*
X00023258Y00028096D01*
X00023262Y00027809D01*
X00023369Y00027340D01*
X00023077Y00026789D01*
X00023239Y00026096D01*
X00023888Y00026356D01*
X00024093Y00026742D01*
X00024328Y00026725D01*
X00024370Y00026720D01*
X00024411Y00026710D01*
X00024451Y00026696D01*
X00024489Y00026678D01*
X00024525Y00026655D01*
X00024559Y00026629D01*
X00024589Y00026600D01*
X00024616Y00026567D01*
X00024639Y00026532D01*
X00024659Y00026494D01*
X00024674Y00026455D01*
X00024685Y00026414D01*
X00024692Y00026372D01*
X00024694Y00026329D01*
X00024691Y00026287D01*
X00024684Y00026245D01*
X00024672Y00026205D01*
X00024656Y00026165D01*
X00024636Y00026128D01*
X00024612Y00026093D01*
X00024336Y00025732D01*
X00024330Y00025724D01*
X00024323Y00025716D01*
X00024316Y00025709D01*
X00024309Y00025701D01*
X00024302Y00025694D01*
X00024295Y00025686D01*
X00024287Y00025679D01*
X00024279Y00025673D01*
X00024272Y00025666D01*
X00024263Y00025660D01*
X00024255Y00025653D01*
X00024247Y00025647D01*
X00024238Y00025642D01*
X00024229Y00025636D01*
X00024221Y00025631D01*
X00024212Y00025626D01*
X00024202Y00025621D01*
X00024193Y00025616D01*
X00024184Y00025612D01*
X00024174Y00025608D01*
X00023975Y00025525D01*
X00023656Y00024758D01*
X00023656Y00022585D01*
X00023224Y00022742D01*
X00023222Y00022743D01*
X00023219Y00022744D01*
X00023217Y00022745D01*
X00023214Y00022746D01*
X00023211Y00022747D01*
X00023209Y00022748D01*
X00023206Y00022749D01*
X00023204Y00022750D01*
X00023201Y00022751D01*
X00023199Y00022753D01*
X00023196Y00022754D01*
X00023194Y00022755D01*
X00023191Y00022756D01*
X00023189Y00022757D01*
X00023186Y00022758D01*
X00023184Y00022760D01*
X00023181Y00022761D01*
X00023179Y00022762D01*
X00023177Y00022763D01*
X00023174Y00022765D01*
X00021375Y00023724D01*
X00021372Y00023725D01*
X00021369Y00023727D01*
X00021366Y00023729D01*
X00021363Y00023731D01*
X00021360Y00023732D01*
X00021357Y00023734D01*
X00021354Y00023736D01*
X00021351Y00023738D01*
X00021348Y00023740D01*
X00021345Y00023742D01*
X00021342Y00023744D01*
X00021339Y00023745D01*
X00021336Y00023747D01*
X00021333Y00023750D01*
X00021330Y00023752D01*
X00021327Y00023754D01*
X00021324Y00023756D01*
X00021322Y00023758D01*
X00021319Y00023760D01*
X00021316Y00023762D01*
X00021057Y00023966D01*
X00020561Y00023604D01*
X00020239Y00023096D01*
X00020239Y00024356D01*
X00019916Y00025136D01*
X00019140Y00025455D01*
X00019136Y00025455D01*
X00017510Y00025447D01*
X00017490Y00025622D01*
X00017432Y00025788D01*
X00017338Y00025938D01*
X00017214Y00026062D01*
X00017064Y00026156D01*
X00016898Y00026214D01*
X00016723Y00026234D01*
X00016548Y00026214D01*
X00016381Y00026156D01*
X00016232Y00026062D01*
X00016107Y00025938D01*
X00016013Y00025788D01*
X00015955Y00025622D01*
X00015936Y00025451D01*
X00015935Y00025451D01*
X00015739Y00025451D01*
X00015441Y00031750D02*
X00015441Y00031750D01*
X00015429Y00031750D01*
X00015416Y00031751D01*
X00015404Y00031752D01*
X00015392Y00031753D01*
X00015380Y00031755D01*
X00015367Y00031757D01*
X00015355Y00031760D01*
X00015343Y00031763D01*
X00015331Y00031766D01*
X00015320Y00031770D01*
X00015308Y00031774D01*
X00015296Y00031778D01*
X00015285Y00031783D01*
X00015274Y00031788D01*
X00015263Y00031793D01*
X00015252Y00031799D01*
X00015241Y00031805D01*
X00015231Y00031812D01*
X00015220Y00031818D01*
X00015210Y00031825D01*
X00014567Y00032294D01*
X00014529Y00032325D01*
X00014495Y00032361D01*
X00014466Y00032401D01*
X00014442Y00032445D01*
X00014424Y00032491D01*
X00014411Y00032538D01*
X00014405Y00032588D01*
X00014405Y00032637D01*
X00014412Y00032686D01*
X00014424Y00032734D01*
X00014442Y00032780D01*
X00014466Y00032823D01*
X00014495Y00032863D01*
X00014529Y00032899D01*
X00014567Y00032931D01*
X00014609Y00032957D01*
X00014653Y00032978D01*
X00014700Y00032993D01*
X00014749Y00033003D01*
X00014798Y00033006D01*
X00017231Y00033006D01*
X00017180Y00032903D01*
X00017337Y00032218D01*
X00017991Y00032478D01*
X00018270Y00033006D01*
X00018546Y00032990D01*
X00018794Y00032514D01*
X00019451Y00032250D01*
X00019605Y00032927D01*
X00019589Y00032974D01*
X00020199Y00033088D01*
X00020798Y00033549D01*
X00021168Y00034246D01*
X00021168Y00034255D01*
X00021171Y00034289D01*
X00021178Y00034324D01*
X00021187Y00034357D01*
X00021199Y00034389D01*
X00021214Y00034421D01*
X00021231Y00034451D01*
X00021252Y00034479D01*
X00021274Y00034505D01*
X00021299Y00034529D01*
X00021326Y00034551D01*
X00021354Y00034571D01*
X00021384Y00034588D01*
X00021416Y00034602D01*
X00021449Y00034613D01*
X00021482Y00034622D01*
X00021517Y00034627D01*
X00021551Y00034629D01*
X00021586Y00034629D01*
X00021620Y00034625D01*
X00021654Y00034618D01*
X00021983Y00034539D01*
X00021985Y00034538D01*
X00021986Y00034538D01*
X00021988Y00034537D01*
X00021990Y00034537D01*
X00021992Y00034536D01*
X00021994Y00034536D01*
X00021996Y00034535D01*
X00021997Y00034535D01*
X00021999Y00034534D01*
X00022001Y00034534D01*
X00022003Y00034533D01*
X00022005Y00034533D01*
X00022006Y00034532D01*
X00022008Y00034532D01*
X00022010Y00034531D01*
X00022012Y00034530D01*
X00022014Y00034530D01*
X00022015Y00034529D01*
X00022017Y00034529D01*
X00022019Y00034528D01*
X00022435Y00034384D01*
X00022865Y00034396D01*
X00022869Y00034108D01*
X00022975Y00033640D01*
X00022683Y00033088D01*
X00022845Y00032396D01*
X00023494Y00032655D01*
X00023699Y00033041D01*
X00023886Y00033028D01*
X00023928Y00033023D01*
X00023970Y00033013D01*
X00024010Y00032998D01*
X00024048Y00032980D01*
X00024084Y00032957D01*
X00024118Y00032931D01*
X00024148Y00032901D01*
X00024175Y00032868D01*
X00024199Y00032833D01*
X00024218Y00032795D01*
X00024233Y00032755D01*
X00024244Y00032714D01*
X00024250Y00032672D01*
X00024252Y00032629D01*
X00024249Y00032586D01*
X00024241Y00032545D01*
X00024229Y00032504D01*
X00024213Y00032464D01*
X00024192Y00032427D01*
X00024168Y00032392D01*
X00023854Y00031993D01*
X00023848Y00031985D01*
X00023842Y00031977D01*
X00023835Y00031970D01*
X00023828Y00031962D01*
X00023821Y00031955D01*
X00023814Y00031948D01*
X00023806Y00031941D01*
X00023798Y00031935D01*
X00023791Y00031928D01*
X00023783Y00031922D01*
X00023775Y00031916D01*
X00023766Y00031910D01*
X00023758Y00031905D01*
X00023749Y00031899D01*
X00023741Y00031894D01*
X00023732Y00031889D01*
X00023723Y00031885D01*
X00023714Y00031880D01*
X00023705Y00031876D01*
X00023695Y00031872D01*
X00023581Y00031825D01*
X00023262Y00031057D01*
X00023262Y00028884D01*
X00022831Y00029041D01*
X00022828Y00029042D01*
X00022825Y00029043D01*
X00022823Y00029044D01*
X00022820Y00029045D01*
X00022818Y00029046D01*
X00022815Y00029047D01*
X00022813Y00029048D01*
X00022810Y00029050D01*
X00022808Y00029051D01*
X00022805Y00029052D01*
X00022803Y00029053D01*
X00022800Y00029054D01*
X00022798Y00029055D01*
X00022795Y00029056D01*
X00022793Y00029058D01*
X00022790Y00029059D01*
X00022788Y00029060D01*
X00022785Y00029061D01*
X00022783Y00029063D01*
X00022780Y00029064D01*
X00020981Y00030023D01*
X00020978Y00030025D01*
X00020975Y00030026D01*
X00020972Y00030028D01*
X00020969Y00030030D01*
X00020966Y00030032D01*
X00020963Y00030033D01*
X00020960Y00030035D01*
X00020957Y00030037D01*
X00020954Y00030039D01*
X00020951Y00030041D01*
X00020948Y00030043D01*
X00020945Y00030045D01*
X00020942Y00030047D01*
X00020939Y00030049D01*
X00020936Y00030051D01*
X00020934Y00030053D01*
X00020931Y00030055D01*
X00020928Y00030057D01*
X00020925Y00030059D01*
X00020922Y00030061D01*
X00020664Y00030266D01*
X00020168Y00029903D01*
X00019845Y00029396D01*
X00019845Y00030655D01*
X00019522Y00031435D01*
X00018746Y00031754D01*
X00018743Y00031754D01*
X00017117Y00031746D01*
X00017097Y00031921D01*
X00017039Y00032088D01*
X00016945Y00032237D01*
X00016820Y00032362D01*
X00016671Y00032455D01*
X00016504Y00032514D01*
X00016329Y00032533D01*
X00016154Y00032514D01*
X00015987Y00032455D01*
X00015838Y00032362D01*
X00015714Y00032237D01*
X00015620Y00032088D01*
X00015561Y00031921D01*
X00015542Y00031750D01*
X00015542Y00031750D01*
X00015441Y00031750D01*
X00006291Y00006553D02*
X00006291Y00006553D01*
X00006285Y00006554D01*
X00006279Y00006554D01*
X00006273Y00006554D01*
X00006267Y00006554D01*
X00006261Y00006555D01*
X00006255Y00006555D01*
X00006249Y00006556D01*
X00006244Y00006556D01*
X00006238Y00006557D01*
X00006232Y00006558D01*
X00006226Y00006559D01*
X00006220Y00006560D01*
X00006215Y00006561D01*
X00006209Y00006562D01*
X00006203Y00006563D01*
X00006197Y00006565D01*
X00006192Y00006566D01*
X00006186Y00006568D01*
X00006180Y00006569D01*
X00006175Y00006571D01*
X00005935Y00006646D01*
X00005883Y00006666D01*
X00005834Y00006693D01*
X00005790Y00006727D01*
X00005751Y00006767D01*
X00005718Y00006813D01*
X00005692Y00006862D01*
X00005673Y00006914D01*
X00005662Y00006969D01*
X00005658Y00007025D01*
X00005662Y00007081D01*
X00005675Y00007135D01*
X00005695Y00007187D01*
X00005722Y00007236D01*
X00005755Y00007281D01*
X00005795Y00007320D01*
X00005840Y00007353D01*
X00005889Y00007380D01*
X00005941Y00007399D01*
X00005996Y00007411D01*
X00006052Y00007415D01*
X00008176Y00007415D01*
X00008124Y00007313D01*
X00008282Y00006628D01*
X00008935Y00006888D01*
X00009215Y00007415D01*
X00009491Y00007399D01*
X00009739Y00006923D01*
X00010396Y00006659D01*
X00010550Y00007336D01*
X00010534Y00007384D01*
X00011144Y00007498D01*
X00011743Y00007959D01*
X00011994Y00008433D01*
X00012007Y00008455D01*
X00012021Y00008477D01*
X00012037Y00008497D01*
X00012054Y00008516D01*
X00012072Y00008534D01*
X00012091Y00008551D01*
X00012111Y00008567D01*
X00012132Y00008581D01*
X00012155Y00008594D01*
X00012177Y00008606D01*
X00012201Y00008616D01*
X00012225Y00008624D01*
X00012250Y00008631D01*
X00012275Y00008636D01*
X00012300Y00008640D01*
X00012326Y00008642D01*
X00012352Y00008642D01*
X00012377Y00008640D01*
X00012403Y00008637D01*
X00012428Y00008633D01*
X00013188Y00008464D01*
X00013190Y00008463D01*
X00013192Y00008463D01*
X00013194Y00008462D01*
X00013196Y00008461D01*
X00013199Y00008461D01*
X00013201Y00008460D01*
X00013203Y00008460D01*
X00013205Y00008459D01*
X00013207Y00008459D01*
X00013209Y00008458D01*
X00013212Y00008457D01*
X00013214Y00008457D01*
X00013216Y00008456D01*
X00013218Y00008455D01*
X00013220Y00008455D01*
X00013222Y00008454D01*
X00013225Y00008453D01*
X00013227Y00008453D01*
X00013229Y00008452D01*
X00013231Y00008451D01*
X00013380Y00008399D01*
X00013809Y00008411D01*
X00013813Y00008124D01*
X00013920Y00007655D01*
X00013628Y00007104D01*
X00013790Y00006411D01*
X00014439Y00006671D01*
X00014644Y00007057D01*
X00014803Y00007046D01*
X00014844Y00007040D01*
X00014885Y00007031D01*
X00014925Y00007017D01*
X00014963Y00006999D01*
X00014999Y00006976D01*
X00015032Y00006951D01*
X00015062Y00006921D01*
X00015089Y00006889D01*
X00015113Y00006854D01*
X00015132Y00006817D01*
X00015148Y00006778D01*
X00015159Y00006737D01*
X00015166Y00006696D01*
X00015168Y00006654D01*
X00015166Y00006612D01*
X00015159Y00006570D01*
X00015148Y00006529D01*
X00015133Y00006490D01*
X00015113Y00006453D01*
X00015090Y00006418D01*
X00014785Y00006008D01*
X00014778Y00005999D01*
X00014771Y00005991D01*
X00014765Y00005983D01*
X00014758Y00005975D01*
X00014750Y00005967D01*
X00014743Y00005960D01*
X00014735Y00005953D01*
X00014727Y00005946D01*
X00014719Y00005939D01*
X00014711Y00005932D01*
X00014702Y00005926D01*
X00014694Y00005920D01*
X00014685Y00005914D01*
X00014676Y00005908D01*
X00014667Y00005903D01*
X00014658Y00005897D01*
X00014648Y00005892D01*
X00014639Y00005888D01*
X00014629Y00005883D01*
X00014620Y00005879D01*
X00014620Y00005879D01*
X00014526Y00005840D01*
X00014207Y00005073D01*
X00014207Y00002899D01*
X00013775Y00003057D01*
X00013775Y00003057D01*
X00013772Y00003059D01*
X00013768Y00003060D01*
X00013765Y00003061D01*
X00013761Y00003063D01*
X00013757Y00003064D01*
X00013754Y00003066D01*
X00013750Y00003067D01*
X00013747Y00003069D01*
X00013743Y00003071D01*
X00013740Y00003072D01*
X00013736Y00003074D01*
X00013733Y00003076D01*
X00013729Y00003077D01*
X00013726Y00003079D01*
X00013723Y00003081D01*
X00013719Y00003083D01*
X00013716Y00003085D01*
X00013712Y00003087D01*
X00013709Y00003089D01*
X00013706Y00003091D01*
X00012388Y00003893D01*
X00012370Y00003905D01*
X00012353Y00003918D01*
X00012336Y00003932D01*
X00012320Y00003946D01*
X00012304Y00003962D01*
X00012290Y00003978D01*
X00012277Y00003995D01*
X00012264Y00004013D01*
X00012253Y00004032D01*
X00012242Y00004051D01*
X00012233Y00004070D01*
X00012225Y00004091D01*
X00012218Y00004111D01*
X00012212Y00004132D01*
X00012207Y00004153D01*
X00012203Y00004175D01*
X00012201Y00004196D01*
X00012200Y00004218D01*
X00012200Y00004240D01*
X00012201Y00004261D01*
X00012227Y00004581D01*
X00011609Y00005069D01*
X00011113Y00004707D01*
X00010790Y00004199D01*
X00010790Y00005459D01*
X00010467Y00006238D01*
X00009691Y00006557D01*
X00009687Y00006557D01*
X00008061Y00006549D01*
X00008042Y00006724D01*
X00007983Y00006891D01*
X00007890Y00007040D01*
X00007765Y00007165D01*
X00007616Y00007259D01*
X00007449Y00007317D01*
X00007274Y00007336D01*
X00007099Y00007317D01*
X00006932Y00007259D01*
X00006783Y00007165D01*
X00006658Y00007040D01*
X00006565Y00006891D01*
X00006506Y00006724D01*
X00006487Y00006553D01*
X00006487Y00006553D01*
X00006291Y00006553D01*
X00005897Y00012853D02*
X00005897Y00012853D01*
X00005891Y00012853D01*
X00005885Y00012853D01*
X00005879Y00012853D01*
X00005873Y00012853D01*
X00005867Y00012854D01*
X00005862Y00012854D01*
X00005856Y00012855D01*
X00005850Y00012856D01*
X00005844Y00012856D01*
X00005838Y00012857D01*
X00005832Y00012858D01*
X00005827Y00012859D01*
X00005821Y00012860D01*
X00005815Y00012861D01*
X00005809Y00012863D01*
X00005804Y00012864D01*
X00005798Y00012866D01*
X00005792Y00012867D01*
X00005787Y00012869D01*
X00005781Y00012870D01*
X00005541Y00012945D01*
X00005489Y00012965D01*
X00005441Y00012993D01*
X00005396Y00013027D01*
X00005357Y00013067D01*
X00005324Y00013112D01*
X00005298Y00013161D01*
X00005279Y00013214D01*
X00005268Y00013268D01*
X00005264Y00013324D01*
X00005269Y00013380D01*
X00005281Y00013434D01*
X00005301Y00013486D01*
X00005328Y00013535D01*
X00005362Y00013580D01*
X00005401Y00013619D01*
X00005446Y00013653D01*
X00005495Y00013679D01*
X00005548Y00013699D01*
X00005602Y00013710D01*
X00005658Y00013714D01*
X00007782Y00013714D01*
X00007731Y00013612D01*
X00007888Y00012927D01*
X00008542Y00013187D01*
X00008821Y00013714D01*
X00009097Y00013699D01*
X00009345Y00013222D01*
X00010002Y00012959D01*
X00010156Y00013636D01*
X00010140Y00013683D01*
X00010750Y00013797D01*
X00011349Y00014258D01*
X00011719Y00014955D01*
X00011719Y00014964D01*
X00011723Y00014998D01*
X00011729Y00015032D01*
X00011738Y00015066D01*
X00011750Y00015098D01*
X00011765Y00015129D01*
X00011783Y00015159D01*
X00011803Y00015187D01*
X00011825Y00015214D01*
X00011850Y00015238D01*
X00011877Y00015260D01*
X00011905Y00015279D01*
X00011936Y00015296D01*
X00011967Y00015310D01*
X00012000Y00015322D01*
X00012034Y00015330D01*
X00012068Y00015336D01*
X00012102Y00015338D01*
X00012137Y00015337D01*
X00012171Y00015334D01*
X00012205Y00015327D01*
X00012534Y00015247D01*
X00012536Y00015247D01*
X00012538Y00015246D01*
X00012539Y00015246D01*
X00012541Y00015246D01*
X00012543Y00015245D01*
X00012545Y00015245D01*
X00012547Y00015244D01*
X00012549Y00015244D01*
X00012550Y00015243D01*
X00012552Y00015242D01*
X00012554Y00015242D01*
X00012556Y00015241D01*
X00012558Y00015241D01*
X00012559Y00015240D01*
X00012561Y00015240D01*
X00012563Y00015239D01*
X00012565Y00015239D01*
X00012567Y00015238D01*
X00012568Y00015237D01*
X00012570Y00015237D01*
X00012987Y00015092D01*
X00013416Y00015104D01*
X00013420Y00014817D01*
X00013526Y00014348D01*
X00013235Y00013797D01*
X00013396Y00013104D01*
X00014046Y00013364D01*
X00014250Y00013750D01*
X00014492Y00013733D01*
X00014530Y00013728D01*
X00014567Y00013720D01*
X00014603Y00013708D01*
X00014638Y00013693D01*
X00014671Y00013675D01*
X00014702Y00013654D01*
X00014731Y00013629D01*
X00014758Y00013602D01*
X00014782Y00013573D01*
X00014802Y00013542D01*
X00014820Y00013508D01*
X00014835Y00013473D01*
X00014846Y00013437D01*
X00014853Y00013400D01*
X00014857Y00013362D01*
X00014858Y00013324D01*
X00014854Y00013287D01*
X00014848Y00013249D01*
X00014837Y00013213D01*
X00014823Y00013178D01*
X00014470Y00012395D01*
X00014463Y00012381D01*
X00014456Y00012368D01*
X00014449Y00012355D01*
X00014441Y00012343D01*
X00014433Y00012330D01*
X00014424Y00012318D01*
X00014415Y00012307D01*
X00014405Y00012296D01*
X00014395Y00012285D01*
X00014385Y00012274D01*
X00014374Y00012264D01*
X00014363Y00012254D01*
X00014351Y00012245D01*
X00014339Y00012236D01*
X00014327Y00012228D01*
X00014314Y00012220D01*
X00014301Y00012212D01*
X00014288Y00012205D01*
X00014275Y00012199D01*
X00014261Y00012193D01*
X00014132Y00012140D01*
X00013813Y00011372D01*
X00013813Y00009199D01*
X00013757Y00009219D01*
X00013756Y00009220D01*
X00013756Y00009220D01*
X00013755Y00009220D01*
X00013754Y00009220D01*
X00013754Y00009220D01*
X00013753Y00009221D01*
X00013753Y00009221D01*
X00013752Y00009221D01*
X00013752Y00009221D01*
X00013751Y00009222D01*
X00013750Y00009222D01*
X00013750Y00009222D01*
X00013749Y00009222D01*
X00013749Y00009222D01*
X00013748Y00009223D01*
X00013748Y00009223D01*
X00013747Y00009223D01*
X00013747Y00009223D01*
X00013746Y00009223D01*
X00013745Y00009224D01*
X00012033Y00009909D01*
X00012010Y00009919D01*
X00011987Y00009931D01*
X00011966Y00009943D01*
X00011945Y00009958D01*
X00011926Y00009973D01*
X00011907Y00009990D01*
X00011890Y00010008D01*
X00011873Y00010027D01*
X00011858Y00010046D01*
X00011844Y00010067D01*
X00011832Y00010089D01*
X00011821Y00010111D01*
X00011811Y00010135D01*
X00011803Y00010158D01*
X00011796Y00010182D01*
X00011791Y00010207D01*
X00011788Y00010232D01*
X00011786Y00010257D01*
X00011785Y00010282D01*
X00011786Y00010307D01*
X00011833Y00010880D01*
X00011215Y00011368D01*
X00010719Y00011006D01*
X00010396Y00010498D01*
X00010396Y00011758D01*
X00010073Y00012537D01*
X00009298Y00012856D01*
X00009294Y00012856D01*
X00007668Y00012848D01*
X00007648Y00013024D01*
X00007590Y00013190D01*
X00007496Y00013339D01*
X00007371Y00013464D01*
X00007222Y00013558D01*
X00007056Y00013616D01*
X00006880Y00013636D01*
X00006705Y00013616D01*
X00006539Y00013558D01*
X00006389Y00013464D01*
X00006265Y00013339D01*
X00006171Y00013190D01*
X00006113Y00013024D01*
X00006093Y00012852D01*
X00006093Y00012852D01*
X00005897Y00012853D01*
X00005503Y00019152D02*
X00005503Y00019152D01*
X00005497Y00019152D01*
X00005491Y00019152D01*
X00005485Y00019152D01*
X00005480Y00019153D01*
X00005474Y00019153D01*
X00005468Y00019154D01*
X00005462Y00019154D01*
X00005456Y00019155D01*
X00005450Y00019156D01*
X00005445Y00019156D01*
X00005439Y00019157D01*
X00005433Y00019158D01*
X00005427Y00019159D01*
X00005421Y00019161D01*
X00005416Y00019162D01*
X00005410Y00019163D01*
X00005404Y00019165D01*
X00005399Y00019166D01*
X00005393Y00019168D01*
X00005387Y00019170D01*
X00005148Y00019244D01*
X00005096Y00019264D01*
X00005047Y00019292D01*
X00005003Y00019326D01*
X00004964Y00019366D01*
X00004931Y00019411D01*
X00004904Y00019460D01*
X00004885Y00019513D01*
X00004874Y00019568D01*
X00004871Y00019623D01*
X00004875Y00019679D01*
X00004887Y00019733D01*
X00004907Y00019786D01*
X00004934Y00019835D01*
X00004968Y00019879D01*
X00005008Y00019918D01*
X00005052Y00019952D01*
X00005102Y00019978D01*
X00005154Y00019998D01*
X00005209Y00020010D01*
X00005264Y00020014D01*
X00007388Y00020014D01*
X00007337Y00019911D01*
X00007494Y00019226D01*
X00008148Y00019486D01*
X00008428Y00020014D01*
X00008703Y00019998D01*
X00008951Y00019522D01*
X00009609Y00019258D01*
X00009762Y00019935D01*
X00009746Y00019982D01*
X00010357Y00020096D01*
X00010955Y00020557D01*
X00011325Y00021254D01*
X00011326Y00021263D01*
X00011329Y00021297D01*
X00011335Y00021331D01*
X00011344Y00021365D01*
X00011356Y00021397D01*
X00011371Y00021429D01*
X00011389Y00021458D01*
X00011409Y00021487D01*
X00011432Y00021513D01*
X00011456Y00021537D01*
X00011483Y00021559D01*
X00011512Y00021579D01*
X00011542Y00021595D01*
X00011574Y00021610D01*
X00011606Y00021621D01*
X00011640Y00021629D01*
X00011674Y00021635D01*
X00011709Y00021637D01*
X00011743Y00021637D01*
X00011778Y00021633D01*
X00011812Y00021626D01*
X00012140Y00021547D01*
X00012142Y00021546D01*
X00012144Y00021546D01*
X00012146Y00021545D01*
X00012148Y00021545D01*
X00012149Y00021544D01*
X00012151Y00021544D01*
X00012153Y00021543D01*
X00012155Y00021543D01*
X00012157Y00021542D01*
X00012158Y00021542D01*
X00012160Y00021541D01*
X00012162Y00021541D01*
X00012164Y00021540D01*
X00012166Y00021540D01*
X00012167Y00021539D01*
X00012169Y00021538D01*
X00012171Y00021538D01*
X00012173Y00021537D01*
X00012175Y00021537D01*
X00012176Y00021536D01*
X00012593Y00021392D01*
X00013022Y00021403D01*
X00013026Y00021116D01*
X00013132Y00020648D01*
X00012841Y00020096D01*
X00013002Y00019403D01*
X00013652Y00019663D01*
X00013857Y00020049D01*
X00013954Y00020042D01*
X00013995Y00020037D01*
X00014035Y00020028D01*
X00014074Y00020014D01*
X00014111Y00019997D01*
X00014146Y00019976D01*
X00014179Y00019952D01*
X00014209Y00019924D01*
X00014236Y00019893D01*
X00014259Y00019859D01*
X00014279Y00019824D01*
X00014296Y00019786D01*
X00014308Y00019747D01*
X00014316Y00019707D01*
X00014320Y00019666D01*
X00014319Y00019625D01*
X00014315Y00019584D01*
X00014306Y00019544D01*
X00014293Y00019505D01*
X00014276Y00019468D01*
X00014255Y00019433D01*
X00013971Y00019002D01*
X00013965Y00018992D01*
X00013958Y00018983D01*
X00013950Y00018974D01*
X00013943Y00018965D01*
X00013935Y00018956D01*
X00013927Y00018947D01*
X00013919Y00018939D01*
X00013911Y00018931D01*
X00013902Y00018923D01*
X00013893Y00018915D01*
X00013884Y00018908D01*
X00013875Y00018901D01*
X00013865Y00018894D01*
X00013855Y00018888D01*
X00013845Y00018881D01*
X00013835Y00018876D01*
X00013825Y00018870D01*
X00013814Y00018865D01*
X00013804Y00018860D01*
X00013793Y00018855D01*
X00013739Y00018833D01*
X00013420Y00018065D01*
X00013420Y00015892D01*
X00012988Y00016049D01*
X00012983Y00016051D01*
X00012977Y00016053D01*
X00012972Y00016056D01*
X00012967Y00016058D01*
X00012962Y00016060D01*
X00012956Y00016062D01*
X00012951Y00016065D01*
X00012946Y00016067D01*
X00012941Y00016070D01*
X00012936Y00016073D01*
X00012931Y00016075D01*
X00012926Y00016078D01*
X00012921Y00016081D01*
X00012916Y00016084D01*
X00012911Y00016087D01*
X00012907Y00016090D01*
X00012902Y00016093D01*
X00012897Y00016097D01*
X00012893Y00016100D01*
X00012888Y00016103D01*
X00011376Y00017229D01*
X00011376Y00017230D01*
X00011375Y00017230D01*
X00011375Y00017230D01*
X00011374Y00017231D01*
X00011374Y00017231D01*
X00011373Y00017231D01*
X00011373Y00017232D01*
X00011373Y00017232D01*
X00011372Y00017232D01*
X00011372Y00017233D01*
X00011371Y00017233D01*
X00011371Y00017233D01*
X00011370Y00017234D01*
X00011370Y00017234D01*
X00011369Y00017234D01*
X00011369Y00017235D01*
X00011369Y00017235D01*
X00011368Y00017235D01*
X00011368Y00017236D01*
X00011367Y00017236D01*
X00010821Y00017667D01*
X00010325Y00017305D01*
X00010002Y00016797D01*
X00010002Y00018057D01*
X00009680Y00018836D01*
X00008904Y00019155D01*
X00008900Y00019155D01*
X00007274Y00019148D01*
X00007254Y00019323D01*
X00007196Y00019489D01*
X00007102Y00019638D01*
X00006978Y00019763D01*
X00006828Y00019857D01*
X00006662Y00019915D01*
X00006487Y00019935D01*
X00006311Y00019915D01*
X00006145Y00019857D01*
X00005996Y00019763D01*
X00005871Y00019638D01*
X00005777Y00019489D01*
X00005719Y00019323D01*
X00005700Y00019152D01*
X00005699Y00019151D01*
X00005503Y00019152D01*
X00005144Y00025451D02*
X00005144Y00025451D01*
X00005137Y00025451D01*
X00005131Y00025451D01*
X00005125Y00025452D01*
X00005119Y00025452D01*
X00005113Y00025452D01*
X00005106Y00025453D01*
X00005100Y00025454D01*
X00005094Y00025454D01*
X00005088Y00025455D01*
X00005082Y00025456D01*
X00005076Y00025457D01*
X00005069Y00025458D01*
X00005063Y00025459D01*
X00005057Y00025461D01*
X00005051Y00025462D01*
X00005045Y00025464D01*
X00005039Y00025465D01*
X00005033Y00025467D01*
X00005027Y00025469D01*
X00005021Y00025471D01*
X00004795Y00025545D01*
X00004744Y00025566D01*
X00004696Y00025594D01*
X00004653Y00025629D01*
X00004614Y00025669D01*
X00004582Y00025715D01*
X00004557Y00025764D01*
X00004539Y00025816D01*
X00004528Y00025871D01*
X00004525Y00025926D01*
X00004530Y00025982D01*
X00004543Y00026036D01*
X00004563Y00026087D01*
X00004590Y00026136D01*
X00004624Y00026180D01*
X00004663Y00026219D01*
X00004708Y00026252D01*
X00004757Y00026278D01*
X00004809Y00026297D01*
X00004863Y00026309D01*
X00004919Y00026313D01*
X00006994Y00026313D01*
X00006943Y00026211D01*
X00007101Y00025525D01*
X00007754Y00025785D01*
X00008034Y00026313D01*
X00008309Y00026297D01*
X00008557Y00025821D01*
X00009215Y00025557D01*
X00009369Y00026234D01*
X00009353Y00026281D01*
X00009963Y00026396D01*
X00010561Y00026856D01*
X00010931Y00027553D01*
X00010932Y00027562D01*
X00010935Y00027597D01*
X00010941Y00027631D01*
X00010951Y00027664D01*
X00010963Y00027697D01*
X00010978Y00027728D01*
X00010995Y00027758D01*
X00011015Y00027786D01*
X00011038Y00027812D01*
X00011063Y00027836D01*
X00011089Y00027858D01*
X00011118Y00027878D01*
X00011148Y00027895D01*
X00011180Y00027909D01*
X00011213Y00027920D01*
X00011246Y00027929D01*
X00011280Y00027934D01*
X00011315Y00027937D01*
X00011350Y00027936D01*
X00011384Y00027932D01*
X00011418Y00027926D01*
X00011747Y00027846D01*
X00011748Y00027845D01*
X00011750Y00027845D01*
X00011752Y00027844D01*
X00011754Y00027844D01*
X00011756Y00027843D01*
X00011758Y00027843D01*
X00011759Y00027842D01*
X00011761Y00027842D01*
X00011763Y00027841D01*
X00011765Y00027841D01*
X00011767Y00027840D01*
X00011768Y00027840D01*
X00011770Y00027839D01*
X00011772Y00027839D01*
X00011774Y00027838D01*
X00011776Y00027838D01*
X00011777Y00027837D01*
X00011779Y00027836D01*
X00011781Y00027836D01*
X00011783Y00027835D01*
X00012199Y00027691D01*
X00012628Y00027703D01*
X00012632Y00027415D01*
X00012739Y00026947D01*
X00012447Y00026396D01*
X00012609Y00025703D01*
X00013258Y00025962D01*
X00013463Y00026348D01*
X00013650Y00026335D01*
X00013692Y00026330D01*
X00013734Y00026320D01*
X00013774Y00026305D01*
X00013812Y00026287D01*
X00013848Y00026264D01*
X00013882Y00026238D01*
X00013912Y00026208D01*
X00013939Y00026175D01*
X00013962Y00026140D01*
X00013982Y00026102D01*
X00013997Y00026062D01*
X00014008Y00026021D01*
X00014014Y00025979D01*
X00014015Y00025936D01*
X00014012Y00025894D01*
X00014005Y00025852D01*
X00013993Y00025811D01*
X00013977Y00025771D01*
X00013956Y00025734D01*
X00013932Y00025699D01*
X00013618Y00025300D01*
X00013612Y00025292D01*
X00013605Y00025284D01*
X00013599Y00025277D01*
X00013592Y00025269D01*
X00013585Y00025262D01*
X00013577Y00025255D01*
X00013570Y00025248D01*
X00013562Y00025242D01*
X00013554Y00025235D01*
X00013546Y00025229D01*
X00013538Y00025223D01*
X00013530Y00025217D01*
X00013522Y00025212D01*
X00013513Y00025206D01*
X00013504Y00025201D01*
X00013496Y00025196D01*
X00013487Y00025192D01*
X00013478Y00025187D01*
X00013468Y00025183D01*
X00013459Y00025179D01*
X00013345Y00025132D01*
X00013026Y00024364D01*
X00013026Y00022191D01*
X00012594Y00022349D01*
X00012589Y00022351D01*
X00012584Y00022353D01*
X00012578Y00022355D01*
X00012573Y00022357D01*
X00012568Y00022359D01*
X00012563Y00022362D01*
X00012558Y00022364D01*
X00012552Y00022367D01*
X00012547Y00022369D01*
X00012542Y00022372D01*
X00012537Y00022375D01*
X00012532Y00022377D01*
X00012527Y00022380D01*
X00012523Y00022383D01*
X00012518Y00022386D01*
X00012513Y00022389D01*
X00012508Y00022393D01*
X00012504Y00022396D01*
X00012499Y00022399D01*
X00012494Y00022403D01*
X00010982Y00023528D01*
X00010982Y00023529D01*
X00010982Y00023529D01*
X00010981Y00023529D01*
X00010981Y00023530D01*
X00010980Y00023530D01*
X00010980Y00023530D01*
X00010979Y00023531D01*
X00010979Y00023531D01*
X00010978Y00023531D01*
X00010978Y00023532D01*
X00010977Y00023532D01*
X00010977Y00023532D01*
X00010977Y00023533D01*
X00010976Y00023533D01*
X00010976Y00023533D01*
X00010975Y00023534D01*
X00010975Y00023534D01*
X00010974Y00023535D01*
X00010974Y00023535D01*
X00010974Y00023535D01*
X00010428Y00023966D01*
X00009931Y00023604D01*
X00009609Y00023096D01*
X00009609Y00024356D01*
X00009286Y00025136D01*
X00008510Y00025455D01*
X00008506Y00025455D01*
X00006880Y00025447D01*
X00006861Y00025622D01*
X00006802Y00025788D01*
X00006709Y00025938D01*
X00006584Y00026062D01*
X00006435Y00026156D01*
X00006268Y00026214D01*
X00006093Y00026234D01*
X00005918Y00026214D01*
X00005751Y00026156D01*
X00005602Y00026062D01*
X00005477Y00025938D01*
X00005383Y00025788D01*
X00005325Y00025622D01*
X00005306Y00025451D01*
X00005306Y00025451D01*
X00005144Y00025451D01*
X00004597Y00031751D02*
X00004597Y00031751D01*
X00004571Y00031751D01*
X00004545Y00031754D01*
X00004520Y00031758D01*
X00004495Y00031764D01*
X00004470Y00031772D01*
X00004446Y00031781D01*
X00004422Y00031792D01*
X00004400Y00031804D01*
X00004378Y00031818D01*
X00004357Y00031833D01*
X00004337Y00031850D01*
X00004318Y00031868D01*
X00004300Y00031887D01*
X00004284Y00031907D01*
X00004269Y00031928D01*
X00004256Y00031950D01*
X00004244Y00031973D01*
X00004233Y00031996D01*
X00004224Y00032021D01*
X00004217Y00032046D01*
X00004096Y00032513D01*
X00004088Y00032549D01*
X00004084Y00032584D01*
X00004083Y00032620D01*
X00004086Y00032656D01*
X00004091Y00032691D01*
X00004100Y00032726D01*
X00004112Y00032760D01*
X00004127Y00032793D01*
X00004145Y00032824D01*
X00004166Y00032853D01*
X00004189Y00032880D01*
X00004214Y00032906D01*
X00004242Y00032928D01*
X00004272Y00032948D01*
X00004304Y00032966D01*
X00004336Y00032980D01*
X00004371Y00032991D01*
X00004405Y00032999D01*
X00004441Y00033004D01*
X00004477Y00033006D01*
X00006601Y00033006D01*
X00006550Y00032903D01*
X00006707Y00032218D01*
X00007361Y00032478D01*
X00007640Y00033006D01*
X00007916Y00032990D01*
X00008164Y00032514D01*
X00008821Y00032250D01*
X00008975Y00032927D01*
X00008959Y00032974D01*
X00009569Y00033088D01*
X00010168Y00033549D01*
X00010538Y00034246D01*
X00010538Y00034255D01*
X00010541Y00034289D01*
X00010548Y00034324D01*
X00010557Y00034357D01*
X00010569Y00034389D01*
X00010584Y00034421D01*
X00010601Y00034451D01*
X00010622Y00034479D01*
X00010644Y00034505D01*
X00010669Y00034529D01*
X00010696Y00034551D01*
X00010724Y00034571D01*
X00010755Y00034588D01*
X00010786Y00034602D01*
X00010819Y00034613D01*
X00010852Y00034622D01*
X00010887Y00034627D01*
X00010921Y00034629D01*
X00010956Y00034629D01*
X00010990Y00034625D01*
X00011024Y00034618D01*
X00011353Y00034539D01*
X00011355Y00034538D01*
X00011357Y00034538D01*
X00011358Y00034537D01*
X00011360Y00034537D01*
X00011362Y00034536D01*
X00011364Y00034536D01*
X00011366Y00034535D01*
X00011367Y00034535D01*
X00011369Y00034534D01*
X00011371Y00034534D01*
X00011373Y00034533D01*
X00011375Y00034533D01*
X00011376Y00034532D01*
X00011378Y00034532D01*
X00011380Y00034531D01*
X00011382Y00034530D01*
X00011384Y00034530D01*
X00011385Y00034529D01*
X00011387Y00034529D01*
X00011389Y00034528D01*
X00011806Y00034384D01*
X00012235Y00034396D01*
X00012239Y00034108D01*
X00012345Y00033640D01*
X00012054Y00033088D01*
X00012215Y00032396D01*
X00012865Y00032655D01*
X00013069Y00033041D01*
X00013565Y00033006D01*
X00013611Y00032922D01*
X00013617Y00032908D01*
X00013624Y00032895D01*
X00013630Y00032881D01*
X00013635Y00032866D01*
X00013640Y00032852D01*
X00013644Y00032837D01*
X00013648Y00032823D01*
X00013651Y00032808D01*
X00013653Y00032793D01*
X00013655Y00032778D01*
X00013657Y00032763D01*
X00013657Y00032748D01*
X00013657Y00032733D01*
X00013657Y00032717D01*
X00013656Y00032702D01*
X00013655Y00032687D01*
X00013652Y00032672D01*
X00013650Y00032657D01*
X00013646Y00032642D01*
X00013643Y00032628D01*
X00013402Y00031779D01*
X00013397Y00031762D01*
X00013391Y00031746D01*
X00013384Y00031729D01*
X00013376Y00031713D01*
X00013368Y00031697D01*
X00013359Y00031682D01*
X00013350Y00031667D01*
X00013339Y00031653D01*
X00013329Y00031639D01*
X00013317Y00031625D01*
X00013305Y00031612D01*
X00013292Y00031600D01*
X00013279Y00031588D01*
X00013265Y00031577D01*
X00013251Y00031566D01*
X00013236Y00031556D01*
X00013221Y00031547D01*
X00013206Y00031538D01*
X00013190Y00031530D01*
X00013174Y00031523D01*
X00012951Y00031431D01*
X00012632Y00030663D01*
X00012632Y00028490D01*
X00012201Y00028648D01*
X00012201Y00028648D01*
X00012195Y00028650D01*
X00012190Y00028652D01*
X00012185Y00028654D01*
X00012179Y00028656D01*
X00012174Y00028658D01*
X00012169Y00028661D01*
X00012164Y00028663D01*
X00012159Y00028666D01*
X00012154Y00028668D01*
X00012149Y00028671D01*
X00012144Y00028674D01*
X00012139Y00028677D01*
X00012134Y00028680D01*
X00012129Y00028683D01*
X00012124Y00028686D01*
X00012119Y00028689D01*
X00012115Y00028692D01*
X00012110Y00028695D01*
X00012105Y00028698D01*
X00012101Y00028702D01*
X00010589Y00029828D01*
X00010588Y00029828D01*
X00010588Y00029828D01*
X00010587Y00029829D01*
X00010587Y00029829D01*
X00010586Y00029829D01*
X00010586Y00029830D01*
X00010586Y00029830D01*
X00010585Y00029830D01*
X00010585Y00029831D01*
X00010584Y00029831D01*
X00010584Y00029831D01*
X00010583Y00029832D01*
X00010583Y00029832D01*
X00010582Y00029832D01*
X00010582Y00029833D01*
X00010582Y00029833D01*
X00010581Y00029833D01*
X00010581Y00029834D01*
X00010580Y00029834D01*
X00010580Y00029834D01*
X00010580Y00029834D01*
X00010034Y00030266D01*
X00009538Y00029903D01*
X00009215Y00029396D01*
X00009215Y00030655D01*
X00008892Y00031435D01*
X00008117Y00031754D01*
X00008113Y00031754D01*
X00006487Y00031746D01*
X00006467Y00031921D01*
X00006409Y00032088D01*
X00006315Y00032237D01*
X00006190Y00032362D01*
X00006041Y00032455D01*
X00005874Y00032514D01*
X00005699Y00032533D01*
X00005524Y00032514D01*
X00005358Y00032455D01*
X00005208Y00032362D01*
X00005084Y00032237D01*
X00004990Y00032088D01*
X00004932Y00031921D01*
X00004912Y00031750D01*
X00004912Y00031750D01*
X00004597Y00031751D01*
X00002626Y00033028D02*
X00002626Y00033028D01*
X00002659Y00033024D01*
X00002692Y00033018D01*
X00002723Y00033008D01*
X00002754Y00032997D01*
X00002784Y00032982D01*
X00002813Y00032965D01*
X00002840Y00032946D01*
X00002865Y00032925D01*
X00002888Y00032901D01*
X00002910Y00032876D01*
X00002929Y00032849D01*
X00002946Y00032820D01*
X00002960Y00032790D01*
X00002972Y00032759D01*
X00002981Y00032727D01*
X00002987Y00032695D01*
X00002991Y00032662D01*
X00002992Y00032629D01*
X00002990Y00032596D01*
X00002985Y00032563D01*
X00002851Y00031844D01*
X00002847Y00031825D01*
X00002842Y00031806D01*
X00002836Y00031787D01*
X00002829Y00031769D01*
X00002821Y00031751D01*
X00002813Y00031734D01*
X00002803Y00031716D01*
X00002793Y00031700D01*
X00002782Y00031684D01*
X00002770Y00031668D01*
X00002757Y00031653D01*
X00002744Y00031639D01*
X00002730Y00031626D01*
X00002715Y00031613D01*
X00002699Y00031601D01*
X00002684Y00031589D01*
X00002667Y00031579D01*
X00002650Y00031569D01*
X00002633Y00031560D01*
X00002615Y00031552D01*
X00002321Y00031431D01*
X00002002Y00030663D01*
X00002002Y00028490D01*
X00001183Y00028789D01*
X00000526Y00028541D01*
X00000876Y00027931D01*
X00001569Y00027691D01*
X00001998Y00027703D01*
X00002002Y00027415D01*
X00002109Y00026947D01*
X00001817Y00026396D01*
X00001979Y00025703D01*
X00002628Y00025962D01*
X00002833Y00026348D01*
X00003043Y00026333D01*
X00003085Y00026328D01*
X00003126Y00026318D01*
X00003166Y00026304D01*
X00003205Y00026285D01*
X00003241Y00026263D01*
X00003274Y00026237D01*
X00003305Y00026207D01*
X00003332Y00026174D01*
X00003355Y00026138D01*
X00003374Y00026100D01*
X00003389Y00026061D01*
X00003400Y00026019D01*
X00003406Y00025977D01*
X00003408Y00025935D01*
X00003405Y00025892D01*
X00003398Y00025850D01*
X00003386Y00025810D01*
X00003369Y00025770D01*
X00003349Y00025733D01*
X00003325Y00025698D01*
X00003025Y00025315D01*
X00003019Y00025307D01*
X00003012Y00025300D01*
X00003005Y00025292D01*
X00002999Y00025285D01*
X00002991Y00025278D01*
X00002984Y00025271D01*
X00002977Y00025264D01*
X00002969Y00025257D01*
X00002961Y00025251D01*
X00002953Y00025244D01*
X00002945Y00025238D01*
X00002937Y00025233D01*
X00002928Y00025227D01*
X00002920Y00025222D01*
X00002911Y00025216D01*
X00002902Y00025212D01*
X00002893Y00025207D01*
X00002884Y00025202D01*
X00002875Y00025198D01*
X00002866Y00025194D01*
X00002866Y00025194D01*
X00002715Y00025132D01*
X00002396Y00024364D01*
X00002396Y00022191D01*
X00001577Y00022490D01*
X00000920Y00022242D01*
X00001270Y00021632D01*
X00001963Y00021392D01*
X00002392Y00021403D01*
X00002396Y00021116D01*
X00002502Y00020648D01*
X00002211Y00020096D01*
X00002372Y00019403D01*
X00003022Y00019663D01*
X00003227Y00020049D01*
X00003414Y00020036D01*
X00003456Y00020030D01*
X00003497Y00020021D01*
X00003537Y00020006D01*
X00003576Y00019988D01*
X00003612Y00019965D01*
X00003645Y00019939D01*
X00003676Y00019909D01*
X00003703Y00019876D01*
X00003726Y00019841D01*
X00003746Y00019803D01*
X00003761Y00019763D01*
X00003771Y00019722D01*
X00003778Y00019679D01*
X00003779Y00019637D01*
X00003776Y00019594D01*
X00003769Y00019552D01*
X00003757Y00019512D01*
X00003740Y00019472D01*
X00003720Y00019435D01*
X00003695Y00019400D01*
X00003382Y00019001D01*
X00003376Y00018993D01*
X00003369Y00018985D01*
X00003362Y00018978D01*
X00003356Y00018970D01*
X00003348Y00018963D01*
X00003341Y00018956D01*
X00003334Y00018949D01*
X00003326Y00018943D01*
X00003318Y00018936D01*
X00003310Y00018930D01*
X00003302Y00018924D01*
X00003294Y00018918D01*
X00003285Y00018913D01*
X00003277Y00018907D01*
X00003268Y00018902D01*
X00003259Y00018897D01*
X00003250Y00018893D01*
X00003241Y00018888D01*
X00003232Y00018884D01*
X00003223Y00018880D01*
X00003109Y00018833D01*
X00002790Y00018065D01*
X00002790Y00015892D01*
X00001971Y00016191D01*
X00001313Y00015943D01*
X00001664Y00015333D01*
X00002357Y00015092D01*
X00002786Y00015104D01*
X00002790Y00014817D01*
X00002896Y00014348D01*
X00002605Y00013797D01*
X00002766Y00013104D01*
X00003416Y00013364D01*
X00003620Y00013750D01*
X00003807Y00013737D01*
X00003850Y00013731D01*
X00003891Y00013721D01*
X00003931Y00013707D01*
X00003969Y00013689D01*
X00004006Y00013666D01*
X00004039Y00013640D01*
X00004070Y00013610D01*
X00004097Y00013577D01*
X00004120Y00013541D01*
X00004139Y00013503D01*
X00004154Y00013464D01*
X00004165Y00013422D01*
X00004171Y00013380D01*
X00004173Y00013338D01*
X00004170Y00013295D01*
X00004162Y00013253D01*
X00004150Y00013212D01*
X00004134Y00013173D01*
X00004113Y00013136D01*
X00004089Y00013101D01*
X00003776Y00012701D01*
X00003769Y00012694D01*
X00003763Y00012686D01*
X00003756Y00012678D01*
X00003749Y00012671D01*
X00003742Y00012664D01*
X00003735Y00012657D01*
X00003727Y00012650D01*
X00003720Y00012643D01*
X00003712Y00012637D01*
X00003704Y00012631D01*
X00003696Y00012625D01*
X00003688Y00012619D01*
X00003679Y00012613D01*
X00003671Y00012608D01*
X00003662Y00012603D01*
X00003653Y00012598D01*
X00003644Y00012593D01*
X00003635Y00012589D01*
X00003626Y00012585D01*
X00003617Y00012581D01*
X00003502Y00012533D01*
X00003183Y00011766D01*
X00003183Y00009592D01*
X00002365Y00009892D01*
X00001707Y00009644D01*
X00002057Y00009033D01*
X00002750Y00008793D01*
X00003180Y00008805D01*
X00003183Y00008518D01*
X00003290Y00008049D01*
X00002998Y00007498D01*
X00003160Y00006805D01*
X00003809Y00007065D01*
X00004014Y00007451D01*
X00004201Y00007437D01*
X00004243Y00007432D01*
X00004285Y00007422D01*
X00004325Y00007408D01*
X00004363Y00007389D01*
X00004399Y00007367D01*
X00004433Y00007340D01*
X00004463Y00007311D01*
X00004490Y00007278D01*
X00004514Y00007242D01*
X00004533Y00007204D01*
X00004548Y00007164D01*
X00004559Y00007123D01*
X00004565Y00007081D01*
X00004567Y00007038D01*
X00004564Y00006996D01*
X00004556Y00006954D01*
X00004544Y00006913D01*
X00004528Y00006874D01*
X00004507Y00006837D01*
X00004483Y00006802D01*
X00004169Y00006402D01*
X00004163Y00006394D01*
X00004157Y00006387D01*
X00004150Y00006379D01*
X00004143Y00006372D01*
X00004136Y00006365D01*
X00004129Y00006358D01*
X00004121Y00006351D01*
X00004113Y00006344D01*
X00004106Y00006338D01*
X00004098Y00006332D01*
X00004090Y00006326D01*
X00004081Y00006320D01*
X00004073Y00006314D01*
X00004064Y00006309D01*
X00004056Y00006304D01*
X00004047Y00006299D01*
X00004038Y00006294D01*
X00004029Y00006290D01*
X00004020Y00006285D01*
X00004010Y00006281D01*
X00003896Y00006234D01*
X00003577Y00005466D01*
X00003577Y00003293D01*
X00002758Y00003592D01*
X00002101Y00003344D01*
X00002451Y00002734D01*
X00003144Y00002494D01*
X00003573Y00002506D01*
X00003577Y00002218D01*
X00003683Y00001750D01*
X00003392Y00001199D01*
X00003554Y00000506D01*
X00004203Y00000766D01*
X00004408Y00001151D01*
X00004904Y00001116D01*
X00005156Y00000648D01*
X00005806Y00000384D01*
X00005963Y00001065D01*
X00005935Y00001116D01*
X00008569Y00001116D01*
X00008518Y00001014D01*
X00008676Y00000329D01*
X00009329Y00000588D01*
X00009609Y00001116D01*
X00009884Y00001100D01*
X00010132Y00000624D01*
X00010790Y00000360D01*
X00010943Y00001037D01*
X00010928Y00001085D01*
X00011538Y00001199D01*
X00012136Y00001659D01*
X00012318Y00002002D01*
X00012318Y00002002D01*
X00012328Y00002019D01*
X00012338Y00002035D01*
X00012349Y00002051D01*
X00012361Y00002066D01*
X00012373Y00002081D01*
X00012387Y00002095D01*
X00012401Y00002108D01*
X00012415Y00002121D01*
X00012431Y00002133D01*
X00012446Y00002144D01*
X00012463Y00002154D01*
X00012480Y00002164D01*
X00012497Y00002173D01*
X00012515Y00002181D01*
X00012533Y00002188D01*
X00012551Y00002194D01*
X00012570Y00002199D01*
X00012589Y00002203D01*
X00012608Y00002206D01*
X00012627Y00002209D01*
X00013190Y00002264D01*
X00013198Y00002265D01*
X00013207Y00002266D01*
X00013215Y00002266D01*
X00013224Y00002266D01*
X00013232Y00002266D01*
X00013241Y00002266D01*
X00013249Y00002266D01*
X00013258Y00002265D01*
X00013266Y00002265D01*
X00013275Y00002264D01*
X00013283Y00002263D01*
X00013292Y00002261D01*
X00013300Y00002260D01*
X00013308Y00002258D01*
X00013317Y00002256D01*
X00013325Y00002254D01*
X00013333Y00002252D01*
X00013341Y00002250D01*
X00013349Y00002247D01*
X00013357Y00002245D01*
X00013774Y00002100D01*
X00014203Y00002112D01*
X00014207Y00001825D01*
X00014313Y00001356D01*
X00014022Y00000805D01*
X00014183Y00000112D01*
X00014833Y00000372D01*
X00015038Y00000758D01*
X00015534Y00000722D01*
X00015786Y00000254D01*
X00016435Y-00000009D01*
X00016593Y00000671D01*
X00016565Y00000722D01*
X00019199Y00000722D01*
X00019148Y00000620D01*
X00019306Y-00000064D01*
X00019959Y00000195D01*
X00020239Y00000722D01*
X00020514Y00000707D01*
X00020762Y00000230D01*
X00021420Y-00000033D01*
X00021573Y00000644D01*
X00021557Y00000691D01*
X00022168Y00000805D01*
X00022766Y00001266D01*
X00023136Y00001962D01*
X00023137Y00001972D01*
X00023140Y00002006D01*
X00023146Y00002040D01*
X00023155Y00002073D01*
X00023167Y00002106D01*
X00023182Y00002137D01*
X00023200Y00002167D01*
X00023220Y00002195D01*
X00023243Y00002222D01*
X00023267Y00002246D01*
X00023294Y00002268D01*
X00023323Y00002287D01*
X00023353Y00002304D01*
X00023385Y00002318D01*
X00023417Y00002330D01*
X00023451Y00002338D01*
X00023485Y00002344D01*
X00023520Y00002346D01*
X00023554Y00002345D01*
X00023589Y00002342D01*
X00023623Y00002335D01*
X00023951Y00002255D01*
X00023953Y00002255D01*
X00023955Y00002254D01*
X00023957Y00002254D01*
X00023959Y00002253D01*
X00023960Y00002253D01*
X00023962Y00002252D01*
X00023964Y00002252D01*
X00023966Y00002251D01*
X00023968Y00002251D01*
X00023970Y00002250D01*
X00023971Y00002250D01*
X00023973Y00002249D01*
X00023975Y00002249D01*
X00023977Y00002248D01*
X00023978Y00002248D01*
X00023980Y00002247D01*
X00023982Y00002246D01*
X00023984Y00002246D01*
X00023986Y00002245D01*
X00023987Y00002245D01*
X00024404Y00002100D01*
X00024833Y00002112D01*
X00024837Y00001825D01*
X00024943Y00001356D01*
X00024652Y00000805D01*
X00024813Y00000112D01*
X00025463Y00000372D01*
X00025668Y00000758D01*
X00026164Y00000722D01*
X00026416Y00000254D01*
X00027065Y-00000009D01*
X00027223Y00000671D01*
X00027195Y00000722D01*
X00029829Y00000722D01*
X00029778Y00000620D01*
X00029935Y-00000064D01*
X00030589Y00000195D01*
X00030869Y00000722D01*
X00031144Y00000707D01*
X00031392Y00000230D01*
X00032050Y-00000033D01*
X00032203Y00000644D01*
X00032187Y00000691D01*
X00032798Y00000805D01*
X00033396Y00001266D01*
X00033766Y00001962D01*
X00033802Y00002691D01*
X00033408Y00003218D01*
X00033487Y00004187D01*
X00032869Y00004675D01*
X00032372Y00004313D01*
X00032050Y00003805D01*
X00032050Y00005065D01*
X00031727Y00005844D01*
X00030951Y00006163D01*
X00030947Y00006163D01*
X00029321Y00006155D01*
X00029302Y00006331D01*
X00029243Y00006497D01*
X00029149Y00006646D01*
X00029025Y00006771D01*
X00028875Y00006865D01*
X00028709Y00006923D01*
X00028534Y00006943D01*
X00028359Y00006923D01*
X00028192Y00006865D01*
X00028043Y00006771D01*
X00027918Y00006646D01*
X00027824Y00006497D01*
X00027766Y00006331D01*
X00027747Y00006159D01*
X00027746Y00006159D01*
X00027578Y00006160D01*
X00027574Y00006160D01*
X00027569Y00006160D01*
X00027565Y00006160D01*
X00027560Y00006160D01*
X00027556Y00006160D01*
X00027552Y00006161D01*
X00027547Y00006161D01*
X00027543Y00006161D01*
X00027538Y00006162D01*
X00027534Y00006162D01*
X00027530Y00006163D01*
X00027525Y00006163D01*
X00027521Y00006164D01*
X00027516Y00006165D01*
X00027512Y00006165D01*
X00027508Y00006166D01*
X00027503Y00006167D01*
X00027499Y00006168D01*
X00027495Y00006169D01*
X00027490Y00006170D01*
X00027168Y00006244D01*
X00027114Y00006261D01*
X00027062Y00006286D01*
X00027014Y00006318D01*
X00026972Y00006356D01*
X00026935Y00006401D01*
X00026906Y00006450D01*
X00026884Y00006503D01*
X00026869Y00006558D01*
X00026863Y00006615D01*
X00026866Y00006672D01*
X00026876Y00006729D01*
X00026895Y00006783D01*
X00026921Y00006834D01*
X00026955Y00006880D01*
X00026995Y00006922D01*
X00027040Y00006957D01*
X00027090Y00006985D01*
X00027144Y00007005D01*
X00027200Y00007017D01*
X00027257Y00007022D01*
X00029435Y00007022D01*
X00029384Y00006919D01*
X00029542Y00006234D01*
X00030195Y00006494D01*
X00030475Y00007022D01*
X00030750Y00007006D01*
X00030998Y00006529D01*
X00031656Y00006266D01*
X00031809Y00006943D01*
X00031794Y00006990D01*
X00032404Y00007104D01*
X00033002Y00007565D01*
X00033372Y00008262D01*
X00033408Y00008990D01*
X00033014Y00009518D01*
X00033093Y00010486D01*
X00032475Y00010974D01*
X00031979Y00010612D01*
X00031656Y00010104D01*
X00031656Y00011364D01*
X00031333Y00012144D01*
X00030557Y00012462D01*
X00030554Y00012462D01*
X00028928Y00012455D01*
X00028908Y00012630D01*
X00028850Y00012796D01*
X00028756Y00012946D01*
X00028631Y00013070D01*
X00028482Y00013164D01*
X00028315Y00013222D01*
X00028140Y00013242D01*
X00027965Y00013222D01*
X00027799Y00013164D01*
X00027649Y00013070D01*
X00027525Y00012946D01*
X00027431Y00012796D01*
X00027372Y00012630D01*
X00027353Y00012459D01*
X00027353Y00012459D01*
X00027053Y00012459D01*
X00027034Y00012460D01*
X00027016Y00012461D01*
X00026997Y00012463D01*
X00026979Y00012466D01*
X00026961Y00012470D01*
X00026943Y00012475D01*
X00026925Y00012481D01*
X00026908Y00012487D01*
X00026891Y00012494D01*
X00026874Y00012503D01*
X00026858Y00012511D01*
X00026842Y00012521D01*
X00026827Y00012531D01*
X00026812Y00012542D01*
X00026797Y00012554D01*
X00026784Y00012567D01*
X00026770Y00012580D01*
X00026758Y00012593D01*
X00026746Y00012608D01*
X00026735Y00012622D01*
X00026397Y00013090D01*
X00026373Y00013127D01*
X00026354Y00013165D01*
X00026339Y00013206D01*
X00026329Y00013248D01*
X00026323Y00013291D01*
X00026322Y00013334D01*
X00026326Y00013377D01*
X00026335Y00013419D01*
X00026348Y00013460D01*
X00026365Y00013500D01*
X00026387Y00013537D01*
X00026413Y00013572D01*
X00026442Y00013604D01*
X00026475Y00013632D01*
X00026510Y00013657D01*
X00026548Y00013677D01*
X00026589Y00013693D01*
X00026630Y00013705D01*
X00026673Y00013712D01*
X00026716Y00013714D01*
X00029042Y00013714D01*
X00028991Y00013612D01*
X00029148Y00012927D01*
X00029802Y00013187D01*
X00030081Y00013714D01*
X00030357Y00013699D01*
X00030605Y00013222D01*
X00031262Y00012959D01*
X00031416Y00013636D01*
X00031400Y00013683D01*
X00032010Y00013797D01*
X00032609Y00014258D01*
X00032979Y00014955D01*
X00033014Y00015683D01*
X00032620Y00016211D01*
X00032699Y00017179D01*
X00032081Y00017667D01*
X00031585Y00017305D01*
X00031262Y00016797D01*
X00031262Y00018057D01*
X00030939Y00018836D01*
X00030164Y00019155D01*
X00030160Y00019155D01*
X00028534Y00019148D01*
X00028514Y00019323D01*
X00028456Y00019489D01*
X00028362Y00019638D01*
X00028237Y00019763D01*
X00028088Y00019857D01*
X00027922Y00019915D01*
X00027746Y00019935D01*
X00027571Y00019915D01*
X00027405Y00019857D01*
X00027256Y00019763D01*
X00027131Y00019638D01*
X00027037Y00019489D01*
X00026979Y00019323D01*
X00026960Y00019152D01*
X00026959Y00019151D01*
X00026828Y00019152D01*
X00026810Y00019152D01*
X00026793Y00019153D01*
X00026776Y00019155D01*
X00026758Y00019158D01*
X00026741Y00019162D01*
X00026724Y00019166D01*
X00026707Y00019171D01*
X00026691Y00019177D01*
X00026674Y00019183D01*
X00026658Y00019191D01*
X00026643Y00019199D01*
X00026627Y00019207D01*
X00026613Y00019217D01*
X00026598Y00019226D01*
X00026584Y00019237D01*
X00026571Y00019248D01*
X00026558Y00019260D01*
X00026545Y00019272D01*
X00026533Y00019285D01*
X00026522Y00019299D01*
X00026146Y00019767D01*
X00026120Y00019803D01*
X00026098Y00019842D01*
X00026081Y00019882D01*
X00026069Y00019925D01*
X00026062Y00019968D01*
X00026059Y00020013D01*
X00026061Y00020057D01*
X00026069Y00020100D01*
X00026081Y00020143D01*
X00026098Y00020184D01*
X00026119Y00020223D01*
X00026144Y00020259D01*
X00026174Y00020292D01*
X00026207Y00020321D01*
X00026243Y00020347D01*
X00026282Y00020368D01*
X00026322Y00020385D01*
X00026365Y00020397D01*
X00026408Y00020405D01*
X00026453Y00020407D01*
X00028648Y00020407D01*
X00028597Y00020305D01*
X00028754Y00019620D01*
X00029408Y00019880D01*
X00029687Y00020407D01*
X00029963Y00020392D01*
X00030211Y00019915D01*
X00030869Y00019651D01*
X00031022Y00020329D01*
X00031006Y00020376D01*
X00031617Y00020490D01*
X00032215Y00020951D01*
X00032585Y00021648D01*
X00032620Y00022376D01*
X00032227Y00022903D01*
X00032306Y00023872D01*
X00031687Y00024360D01*
X00031191Y00023998D01*
X00030869Y00023490D01*
X00030869Y00024750D01*
X00030546Y00025529D01*
X00029770Y00025848D01*
X00029766Y00025848D01*
X00028140Y00025840D01*
X00028120Y00026016D01*
X00028062Y00026182D01*
X00027968Y00026331D01*
X00027844Y00026456D01*
X00027694Y00026550D01*
X00027528Y00026608D01*
X00027353Y00026628D01*
X00027178Y00026608D01*
X00027011Y00026550D01*
X00026862Y00026456D01*
X00026737Y00026331D01*
X00026643Y00026182D01*
X00026585Y00026016D01*
X00026566Y00025844D01*
X00026565Y00025844D01*
X00026446Y00025845D01*
X00026440Y00025845D01*
X00026433Y00025845D01*
X00026426Y00025845D01*
X00026419Y00025846D01*
X00026412Y00025846D01*
X00026405Y00025847D01*
X00026398Y00025848D01*
X00026392Y00025849D01*
X00026385Y00025850D01*
X00026378Y00025851D01*
X00026371Y00025852D01*
X00026365Y00025853D01*
X00026358Y00025855D01*
X00026351Y00025857D01*
X00026345Y00025858D01*
X00026338Y00025860D01*
X00026331Y00025862D01*
X00026325Y00025864D01*
X00026318Y00025866D01*
X00026312Y00025869D01*
X00026108Y00025943D01*
X00026058Y00025966D01*
X00026012Y00025995D01*
X00025970Y00026030D01*
X00025933Y00026071D01*
X00025903Y00026117D01*
X00025879Y00026166D01*
X00025862Y00026218D01*
X00025852Y00026272D01*
X00025851Y00026327D01*
X00025856Y00026382D01*
X00025870Y00026435D01*
X00025890Y00026486D01*
X00025918Y00026533D01*
X00025952Y00026577D01*
X00025991Y00026615D01*
X00026036Y00026647D01*
X00026084Y00026673D01*
X00026136Y00026691D01*
X00026189Y00026703D01*
X00026244Y00026707D01*
X00028254Y00026707D01*
X00028203Y00026604D01*
X00028361Y00025919D01*
X00029014Y00026179D01*
X00029294Y00026707D01*
X00029569Y00026691D01*
X00029817Y00026214D01*
X00030475Y00025951D01*
X00030628Y00026628D01*
X00030613Y00026675D01*
X00031223Y00026789D01*
X00031821Y00027250D01*
X00032191Y00027947D01*
X00032227Y00028675D01*
X00031833Y00029203D01*
X00031912Y00030171D01*
X00031294Y00030659D01*
X00030798Y00030297D01*
X00030475Y00029789D01*
X00030475Y00031049D01*
X00030152Y00031829D01*
X00029376Y00032148D01*
X00029372Y00032148D01*
X00027746Y00032140D01*
X00027727Y00032315D01*
X00027668Y00032481D01*
X00027575Y00032631D01*
X00027450Y00032755D01*
X00027301Y00032849D01*
X00027134Y00032907D01*
X00026959Y00032927D01*
X00026784Y00032907D01*
X00026617Y00032849D01*
X00026468Y00032755D01*
X00026343Y00032631D01*
X00026250Y00032481D01*
X00026191Y00032315D01*
X00026172Y00032144D01*
X00026172Y00032144D01*
X00025976Y00032144D01*
X00025970Y00032144D01*
X00025964Y00032144D01*
X00025958Y00032144D01*
X00025952Y00032145D01*
X00025946Y00032145D01*
X00025940Y00032146D01*
X00025934Y00032146D01*
X00025929Y00032147D01*
X00025923Y00032148D01*
X00025917Y00032149D01*
X00025911Y00032149D01*
X00025905Y00032150D01*
X00025900Y00032152D01*
X00025894Y00032153D01*
X00025888Y00032154D01*
X00025882Y00032155D01*
X00025877Y00032157D01*
X00025871Y00032158D01*
X00025865Y00032160D01*
X00025860Y00032162D01*
X00025620Y00032236D01*
X00025568Y00032256D01*
X00025519Y00032284D01*
X00025475Y00032318D01*
X00025436Y00032358D01*
X00025403Y00032403D01*
X00025377Y00032452D01*
X00025358Y00032505D01*
X00025347Y00032560D01*
X00025343Y00032615D01*
X00025347Y00032671D01*
X00025360Y00032726D01*
X00025380Y00032778D01*
X00025407Y00032827D01*
X00025440Y00032871D01*
X00025480Y00032911D01*
X00025525Y00032944D01*
X00025574Y00032971D01*
X00025626Y00032990D01*
X00025681Y00033002D01*
X00025737Y00033006D01*
X00027861Y00033006D01*
X00027809Y00032903D01*
X00027967Y00032218D01*
X00028620Y00032478D01*
X00028900Y00033006D01*
X00029176Y00032990D01*
X00029424Y00032514D01*
X00030081Y00032250D01*
X00030235Y00032927D01*
X00030219Y00032974D01*
X00030829Y00033088D01*
X00031428Y00033549D01*
X00031798Y00034246D01*
X00031833Y00034974D01*
X00031439Y00035502D01*
X00031518Y00036470D01*
X00030900Y00036959D01*
X00030404Y00036596D01*
X00030081Y00036088D01*
X00030081Y00037348D01*
X00029758Y00038128D01*
X00028983Y00038447D01*
X00028979Y00038447D01*
X00027353Y00038439D01*
X00027333Y00038614D01*
X00027275Y00038780D01*
X00027181Y00038930D01*
X00027056Y00039054D01*
X00026907Y00039148D01*
X00026741Y00039207D01*
X00026565Y00039226D01*
X00026390Y00039207D01*
X00026224Y00039148D01*
X00026074Y00039054D01*
X00025950Y00038930D01*
X00025856Y00038780D01*
X00025798Y00038614D01*
X00025778Y00038443D01*
X00025778Y00038443D01*
X00023967Y00038447D01*
X00023187Y00038124D01*
X00022869Y00037356D01*
X00022869Y00035183D01*
X00022437Y00035341D01*
X00022432Y00035343D01*
X00022426Y00035345D01*
X00022421Y00035347D01*
X00022416Y00035349D01*
X00022410Y00035351D01*
X00022405Y00035354D01*
X00022400Y00035356D01*
X00022395Y00035359D01*
X00022390Y00035361D01*
X00022385Y00035364D01*
X00022380Y00035367D01*
X00022375Y00035370D01*
X00022370Y00035372D01*
X00022365Y00035375D01*
X00022360Y00035378D01*
X00022356Y00035382D01*
X00022351Y00035385D01*
X00022346Y00035388D01*
X00022341Y00035391D01*
X00022337Y00035395D01*
X00020825Y00036521D01*
X00020824Y00036521D01*
X00020824Y00036521D01*
X00020824Y00036522D01*
X00020823Y00036522D01*
X00020823Y00036522D01*
X00020822Y00036523D01*
X00020822Y00036523D01*
X00020821Y00036523D01*
X00020821Y00036524D01*
X00020820Y00036524D01*
X00020820Y00036524D01*
X00020820Y00036525D01*
X00020819Y00036525D01*
X00020819Y00036525D01*
X00020818Y00036526D01*
X00020818Y00036526D01*
X00020817Y00036526D01*
X00020817Y00036527D01*
X00020816Y00036527D01*
X00020816Y00036527D01*
X00020270Y00036959D01*
X00019774Y00036596D01*
X00019451Y00036088D01*
X00019451Y00037348D01*
X00019128Y00038128D01*
X00018353Y00038447D01*
X00018349Y00038447D01*
X00016723Y00038439D01*
X00016703Y00038614D01*
X00016645Y00038780D01*
X00016551Y00038930D01*
X00016426Y00039054D01*
X00016277Y00039148D01*
X00016111Y00039207D01*
X00015935Y00039226D01*
X00015760Y00039207D01*
X00015594Y00039148D01*
X00015444Y00039054D01*
X00015320Y00038930D01*
X00015226Y00038780D01*
X00015168Y00038614D01*
X00015148Y00038443D01*
X00015148Y00038443D01*
X00013337Y00038447D01*
X00012557Y00038124D01*
X00012239Y00037356D01*
X00012239Y00035183D01*
X00011807Y00035341D01*
X00011807Y00035341D01*
X00011802Y00035343D01*
X00011796Y00035345D01*
X00011791Y00035347D01*
X00011786Y00035349D01*
X00011781Y00035351D01*
X00011775Y00035354D01*
X00011770Y00035356D01*
X00011765Y00035359D01*
X00011760Y00035361D01*
X00011755Y00035364D01*
X00011750Y00035367D01*
X00011745Y00035370D01*
X00011740Y00035372D01*
X00011735Y00035375D01*
X00011730Y00035378D01*
X00011726Y00035382D01*
X00011721Y00035385D01*
X00011716Y00035388D01*
X00011712Y00035391D01*
X00011707Y00035395D01*
X00010195Y00036521D01*
X00010195Y00036521D01*
X00010194Y00036521D01*
X00010194Y00036522D01*
X00010193Y00036522D01*
X00010193Y00036522D01*
X00010192Y00036523D01*
X00010192Y00036523D01*
X00010191Y00036523D01*
X00010191Y00036524D01*
X00010191Y00036524D01*
X00010190Y00036524D01*
X00010190Y00036525D01*
X00010189Y00036525D01*
X00010189Y00036525D01*
X00010188Y00036526D01*
X00010188Y00036526D01*
X00010187Y00036526D01*
X00010187Y00036527D01*
X00010187Y00036527D01*
X00010186Y00036527D01*
X00010186Y00036527D01*
X00009640Y00036959D01*
X00009144Y00036596D01*
X00008821Y00036088D01*
X00008821Y00037348D01*
X00008498Y00038128D01*
X00007723Y00038447D01*
X00007719Y00038447D01*
X00006093Y00038439D01*
X00006073Y00038614D01*
X00006015Y00038780D01*
X00005921Y00038930D01*
X00005796Y00039054D01*
X00005647Y00039148D01*
X00005481Y00039207D01*
X00005306Y00039226D01*
X00005130Y00039207D01*
X00004964Y00039148D01*
X00004815Y00039054D01*
X00004690Y00038930D01*
X00004596Y00038780D01*
X00004538Y00038614D01*
X00004519Y00038443D01*
X00004518Y00038443D01*
X00002707Y00038447D01*
X00001928Y00038124D01*
X00001609Y00037356D01*
X00001609Y00035183D01*
X00000790Y00035482D01*
X00000132Y00035234D01*
X00000483Y00034624D01*
X00001176Y00034384D01*
X00001605Y00034396D01*
X00001609Y00034108D01*
X00001715Y00033640D01*
X00001424Y00033088D01*
X00001585Y00032396D01*
X00002235Y00032655D01*
X00002439Y00033041D01*
X00002626Y00033028D01*
M02*