%MOIN*%
%OFA0B0*%
%FSLAX46Y46*%
%IPPOS*%
%LPD*%
%ADD10C,0.0039370078740157488*%
%ADD11R,0.031496062992125991X0.031496062992125991*%
%ADD12C,0.023622047244094488*%
%ADD13C,0.00984251968503937*%
%ADD24C,0.0039370078740157488*%
%ADD25R,0.031496062992125991X0.031496062992125991*%
%ADD26C,0.023622047244094488*%
%ADD27C,0.00984251968503937*%
%ADD28C,0.0039370078740157488*%
%ADD29R,0.031496062992125991X0.031496062992125991*%
%ADD30C,0.023622047244094488*%
%ADD31C,0.00984251968503937*%
%ADD32C,0.0039370078740157488*%
%ADD33R,0.031496062992125991X0.031496062992125991*%
%ADD34C,0.023622047244094488*%
%ADD35C,0.00984251968503937*%
%ADD36C,0.0039370078740157488*%
%ADD37R,0.031496062992125991X0.031496062992125991*%
%ADD38C,0.023622047244094488*%
%ADD39C,0.00984251968503937*%
%ADD40C,0.0039370078740157488*%
%ADD41R,0.031496062992125991X0.031496062992125991*%
%ADD42C,0.023622047244094488*%
%ADD43C,0.00984251968503937*%
%ADD44C,0.0039370078740157488*%
%ADD45R,0.031496062992125991X0.031496062992125991*%
%ADD46C,0.023622047244094488*%
%ADD47C,0.00984251968503937*%
%ADD48C,0.0039370078740157488*%
%ADD49R,0.031496062992125991X0.031496062992125991*%
%ADD50C,0.023622047244094488*%
%ADD51C,0.00984251968503937*%
%ADD52C,0.0039370078740157488*%
%ADD53R,0.031496062992125991X0.031496062992125991*%
%ADD54C,0.023622047244094488*%
%ADD55C,0.00984251968503937*%
%ADD56C,0.0039370078740157488*%
%ADD57R,0.031496062992125991X0.031496062992125991*%
%ADD58C,0.023622047244094488*%
%ADD59C,0.00984251968503937*%
%ADD60C,0.0039370078740157488*%
%ADD61R,0.031496062992125991X0.031496062992125991*%
%ADD62C,0.023622047244094488*%
%ADD63C,0.00984251968503937*%
%ADD64C,0.0039370078740157488*%
%ADD65R,0.031496062992125991X0.031496062992125991*%
%ADD66C,0.023622047244094488*%
%ADD67C,0.00984251968503937*%
%ADD68C,0.0039370078740157488*%
%ADD69R,0.031496062992125991X0.031496062992125991*%
%ADD70C,0.023622047244094488*%
%ADD71C,0.00984251968503937*%
%ADD72C,0.0039370078740157488*%
%ADD73R,0.031496062992125991X0.031496062992125991*%
%ADD74C,0.023622047244094488*%
%ADD75C,0.00984251968503937*%
%ADD76C,0.0039370078740157488*%
%ADD77R,0.031496062992125991X0.031496062992125991*%
%ADD78C,0.023622047244094488*%
%ADD79C,0.00984251968503937*%
%ADD80C,0.0039370078740157488*%
%ADD81R,0.031496062992125991X0.031496062992125991*%
%ADD82C,0.023622047244094488*%
%ADD83C,0.00984251968503937*%
%ADD84C,0.0039370078740157488*%
%ADD85R,0.031496062992125991X0.031496062992125991*%
%ADD86C,0.023622047244094488*%
%ADD87C,0.00984251968503937*%
%ADD88C,0.0039370078740157488*%
%ADD89R,0.031496062992125991X0.031496062992125991*%
%ADD90C,0.023622047244094488*%
%ADD91C,0.00984251968503937*%
G01G01*
D10*
D11*
X0000196850Y0003070866D02*
X0000996742Y0002851022D03*
X0000996742Y0002788029D03*
X0000783750Y0002849762D03*
X0000783750Y0002786770D03*
D12*
X0000592018Y0002988029D03*
X0000761309Y0003003777D03*
X0000564459Y0002793148D03*
X0000782962Y0002814329D03*
X0000997529Y0002815588D03*
X0000403041Y0003094329D03*
X0000375482Y0002726218D03*
X0000623514Y0002909289D03*
X0000536900Y0002775431D03*
X0000777057Y0002659289D03*
X0000464065Y0002802990D03*
X0000377451Y0003015588D03*
D13*
X0000761309Y0003003777D02*
X0000745561Y0002988029D01*
X0000745561Y0002988029D02*
X0000592018Y0002988029D01*
X0000564459Y0002793148D02*
X0000621073Y0002849762D01*
X0000621073Y0002849762D02*
X0000783750Y0002849762D01*
X0000783750Y0002849762D02*
X0000995482Y0002849762D01*
X0000995482Y0002849762D02*
X0000996742Y0002851022D01*
X0000782254Y0002848266D02*
X0000783750Y0002849762D01*
X0000783750Y0002786770D02*
X0000783750Y0002813541D01*
X0000783750Y0002813541D02*
X0000782962Y0002814329D01*
X0000996742Y0002788029D02*
X0000996742Y0002814801D01*
X0000996742Y0002814801D02*
X0000997529Y0002815588D01*
X0000782962Y0002785982D02*
X0000783750Y0002786770D01*
X0000403041Y0003094329D02*
X0000438474Y0003094329D01*
X0000438474Y0003094329D02*
X0000623514Y0002909289D01*
X0000623514Y0002909289D02*
X0000440443Y0002726218D01*
X0000440443Y0002726218D02*
X0000375482Y0002726218D01*
X0000536900Y0002775431D02*
X0000637884Y0002674447D01*
X0000637884Y0002674447D02*
X0000637884Y0002659289D01*
X0000637884Y0002659289D02*
X0000777057Y0002659289D01*
X0000377451Y0003015588D02*
X0000377451Y0002889604D01*
X0000377451Y0002889604D02*
X0000464065Y0002802990D01*
G04 next file*
G04 #@! TF.FileFunction,Copper,L1,Top,Signal*
G04 Gerber Fmt 4.6, Leading zero omitted, Abs format (unit mm)*
G04 Created by KiCad (PCBNEW 4.0.4-stable) date 08/29/17 21:10:05*
G01G01*
G04 APERTURE LIST*
G04 APERTURE END LIST*
D24*
D25*
X0000157480Y0003740157D02*
X0000957372Y0003520313D03*
X0000957372Y0003457321D03*
X0000744380Y0003519053D03*
X0000744380Y0003456061D03*
D26*
X0000552648Y0003657321D03*
X0000721939Y0003673069D03*
X0000525088Y0003462439D03*
X0000743592Y0003483620D03*
X0000958159Y0003484880D03*
X0000363671Y0003763620D03*
X0000336112Y0003395510D03*
X0000584144Y0003578581D03*
X0000497529Y0003444722D03*
X0000737687Y0003328581D03*
X0000424695Y0003472281D03*
X0000338081Y0003684880D03*
D27*
X0000721939Y0003673069D02*
X0000706191Y0003657321D01*
X0000706191Y0003657321D02*
X0000552648Y0003657321D01*
X0000525088Y0003462439D02*
X0000581703Y0003519053D01*
X0000581703Y0003519053D02*
X0000744380Y0003519053D01*
X0000744380Y0003519053D02*
X0000956112Y0003519053D01*
X0000956112Y0003519053D02*
X0000957372Y0003520313D01*
X0000742884Y0003517557D02*
X0000744380Y0003519053D01*
X0000744380Y0003456061D02*
X0000744380Y0003482832D01*
X0000744380Y0003482832D02*
X0000743592Y0003483620D01*
X0000957372Y0003457321D02*
X0000957372Y0003484092D01*
X0000957372Y0003484092D02*
X0000958159Y0003484880D01*
X0000743592Y0003455274D02*
X0000744380Y0003456061D01*
X0000363671Y0003763620D02*
X0000399104Y0003763620D01*
X0000399104Y0003763620D02*
X0000584144Y0003578581D01*
X0000584144Y0003578581D02*
X0000401073Y0003395510D01*
X0000401073Y0003395510D02*
X0000336112Y0003395510D01*
X0000497529Y0003444722D02*
X0000598514Y0003343738D01*
X0000598514Y0003343738D02*
X0000598514Y0003328581D01*
X0000598514Y0003328581D02*
X0000737687Y0003328581D01*
X0000338081Y0003684880D02*
X0000338081Y0003558896D01*
X0000338081Y0003558896D02*
X0000424695Y0003472281D01*
G04 next file*
G04 #@! TF.FileFunction,Copper,L1,Top,Signal*
G04 Gerber Fmt 4.6, Leading zero omitted, Abs format (unit mm)*
G04 Created by KiCad (PCBNEW 4.0.4-stable) date 08/29/17 21:10:05*
G01G01*
G04 APERTURE LIST*
G04 APERTURE END LIST*
D28*
D29*
X0000236220Y0002440944D02*
X0001036112Y0002221100D03*
X0001036112Y0002158108D03*
X0000823120Y0002219840D03*
X0000823120Y0002156848D03*
D30*
X0000631388Y0002358108D03*
X0000800679Y0002373856D03*
X0000603829Y0002163226D03*
X0000822333Y0002184407D03*
X0001036900Y0002185667D03*
X0000442411Y0002464407D03*
X0000414852Y0002096297D03*
X0000662884Y0002279368D03*
X0000576270Y0002145510D03*
X0000816427Y0002029368D03*
X0000503435Y0002173069D03*
X0000416821Y0002385667D03*
D31*
X0000800679Y0002373856D02*
X0000784931Y0002358108D01*
X0000784931Y0002358108D02*
X0000631388Y0002358108D01*
X0000603829Y0002163226D02*
X0000660443Y0002219840D01*
X0000660443Y0002219840D02*
X0000823120Y0002219840D01*
X0000823120Y0002219840D02*
X0001034852Y0002219840D01*
X0001034852Y0002219840D02*
X0001036112Y0002221100D01*
X0000821624Y0002218344D02*
X0000823120Y0002219840D01*
X0000823120Y0002156848D02*
X0000823120Y0002183620D01*
X0000823120Y0002183620D02*
X0000822333Y0002184407D01*
X0001036112Y0002158108D02*
X0001036112Y0002184880D01*
X0001036112Y0002184880D02*
X0001036900Y0002185667D01*
X0000822333Y0002156061D02*
X0000823120Y0002156848D01*
X0000442411Y0002464407D02*
X0000477844Y0002464407D01*
X0000477844Y0002464407D02*
X0000662884Y0002279368D01*
X0000662884Y0002279368D02*
X0000479813Y0002096297D01*
X0000479813Y0002096297D02*
X0000414852Y0002096297D01*
X0000576270Y0002145510D02*
X0000677254Y0002044525D01*
X0000677254Y0002044525D02*
X0000677254Y0002029368D01*
X0000677254Y0002029368D02*
X0000816427Y0002029368D01*
X0000416821Y0002385667D02*
X0000416821Y0002259683D01*
X0000416821Y0002259683D02*
X0000503435Y0002173069D01*
G04 next file*
G04 #@! TF.FileFunction,Copper,L1,Top,Signal*
G04 Gerber Fmt 4.6, Leading zero omitted, Abs format (unit mm)*
G04 Created by KiCad (PCBNEW 4.0.4-stable) date 08/29/17 21:10:05*
G01G01*
G04 APERTURE LIST*
G04 APERTURE END LIST*
D32*
D33*
X0000275590Y0001811023D02*
X0001075482Y0001591179D03*
X0001075482Y0001528187D03*
X0000862490Y0001589919D03*
X0000862490Y0001526927D03*
D34*
X0000670758Y0001728187D03*
X0000840049Y0001743935D03*
X0000643199Y0001533305D03*
X0000861703Y0001554486D03*
X0001076270Y0001555746D03*
X0000481781Y0001834486D03*
X0000454222Y0001466376D03*
X0000702254Y0001649447D03*
X0000615640Y0001515588D03*
X0000855797Y0001399447D03*
X0000542805Y0001543148D03*
X0000456191Y0001755746D03*
D35*
X0000840049Y0001743935D02*
X0000824301Y0001728187D01*
X0000824301Y0001728187D02*
X0000670758Y0001728187D01*
X0000643199Y0001533305D02*
X0000699813Y0001589919D01*
X0000699813Y0001589919D02*
X0000862490Y0001589919D01*
X0000862490Y0001589919D02*
X0001074222Y0001589919D01*
X0001074222Y0001589919D02*
X0001075482Y0001591179D01*
X0000860994Y0001588423D02*
X0000862490Y0001589919D01*
X0000862490Y0001526927D02*
X0000862490Y0001553699D01*
X0000862490Y0001553699D02*
X0000861703Y0001554486D01*
X0001075482Y0001528187D02*
X0001075482Y0001554958D01*
X0001075482Y0001554958D02*
X0001076270Y0001555746D01*
X0000861703Y0001526140D02*
X0000862490Y0001526927D01*
X0000481781Y0001834486D02*
X0000517214Y0001834486D01*
X0000517214Y0001834486D02*
X0000702254Y0001649447D01*
X0000702254Y0001649447D02*
X0000519183Y0001466376D01*
X0000519183Y0001466376D02*
X0000454222Y0001466376D01*
X0000615640Y0001515588D02*
X0000716624Y0001414604D01*
X0000716624Y0001414604D02*
X0000716624Y0001399447D01*
X0000716624Y0001399447D02*
X0000855797Y0001399447D01*
X0000456191Y0001755746D02*
X0000456191Y0001629762D01*
X0000456191Y0001629762D02*
X0000542805Y0001543148D01*
G04 next file*
G04 #@! TF.FileFunction,Copper,L1,Top,Signal*
G04 Gerber Fmt 4.6, Leading zero omitted, Abs format (unit mm)*
G04 Created by KiCad (PCBNEW 4.0.4-stable) date 08/29/17 21:10:05*
G01G01*
G04 APERTURE LIST*
G04 APERTURE END LIST*
D36*
D37*
X0000314960Y0001181102D02*
X0001114852Y0000961258D03*
X0001114852Y0000898266D03*
X0000901860Y0000959998D03*
X0000901860Y0000897006D03*
D38*
X0000710128Y0001098266D03*
X0000879419Y0001114014D03*
X0000682569Y0000903384D03*
X0000901073Y0000924565D03*
X0001115640Y0000925825D03*
X0000521151Y0001204565D03*
X0000493592Y0000836455D03*
X0000741624Y0001019525D03*
X0000655010Y0000885667D03*
X0000895167Y0000769525D03*
X0000582175Y0000913226D03*
X0000495561Y0001125825D03*
D39*
X0000879419Y0001114014D02*
X0000863671Y0001098266D01*
X0000863671Y0001098266D02*
X0000710128Y0001098266D01*
X0000682569Y0000903384D02*
X0000739183Y0000959998D01*
X0000739183Y0000959998D02*
X0000901860Y0000959998D01*
X0000901860Y0000959998D02*
X0001113592Y0000959998D01*
X0001113592Y0000959998D02*
X0001114852Y0000961258D01*
X0000900364Y0000958502D02*
X0000901860Y0000959998D01*
X0000901860Y0000897006D02*
X0000901860Y0000923777D01*
X0000901860Y0000923777D02*
X0000901073Y0000924565D01*
X0001114852Y0000898266D02*
X0001114852Y0000925037D01*
X0001114852Y0000925037D02*
X0001115640Y0000925825D01*
X0000901073Y0000896218D02*
X0000901860Y0000897006D01*
X0000521151Y0001204565D02*
X0000556585Y0001204565D01*
X0000556585Y0001204565D02*
X0000741624Y0001019525D01*
X0000741624Y0001019525D02*
X0000558553Y0000836455D01*
X0000558553Y0000836455D02*
X0000493592Y0000836455D01*
X0000655010Y0000885667D02*
X0000755994Y0000784683D01*
X0000755994Y0000784683D02*
X0000755994Y0000769525D01*
X0000755994Y0000769525D02*
X0000895167Y0000769525D01*
X0000495561Y0001125825D02*
X0000495561Y0000999840D01*
X0000495561Y0000999840D02*
X0000582175Y0000913226D01*
G04 next file*
G04 #@! TF.FileFunction,Copper,L1,Top,Signal*
G04 Gerber Fmt 4.6, Leading zero omitted, Abs format (unit mm)*
G04 Created by KiCad (PCBNEW 4.0.4-stable) date 08/29/17 21:10:05*
G01G01*
G04 APERTURE LIST*
G04 APERTURE END LIST*
D40*
D41*
X0000354330Y0000551181D02*
X0001154222Y0000331337D03*
X0001154222Y0000268344D03*
X0000941230Y0000330077D03*
X0000941230Y0000267085D03*
D42*
X0000749498Y0000468344D03*
X0000918789Y0000484092D03*
X0000721939Y0000273462D03*
X0000940443Y0000294644D03*
X0001155010Y0000295903D03*
X0000560522Y0000574644D03*
X0000532962Y0000206533D03*
X0000780994Y0000389604D03*
X0000694380Y0000255746D03*
X0000934537Y0000139604D03*
X0000621545Y0000283305D03*
X0000534931Y0000495903D03*
D43*
X0000918789Y0000484092D02*
X0000903041Y0000468344D01*
X0000903041Y0000468344D02*
X0000749498Y0000468344D01*
X0000721939Y0000273462D02*
X0000778553Y0000330077D01*
X0000778553Y0000330077D02*
X0000941230Y0000330077D01*
X0000941230Y0000330077D02*
X0001152962Y0000330077D01*
X0001152962Y0000330077D02*
X0001154222Y0000331337D01*
X0000939734Y0000328581D02*
X0000941230Y0000330077D01*
X0000941230Y0000267085D02*
X0000941230Y0000293856D01*
X0000941230Y0000293856D02*
X0000940443Y0000294644D01*
X0001154222Y0000268344D02*
X0001154222Y0000295116D01*
X0001154222Y0000295116D02*
X0001155010Y0000295903D01*
X0000940443Y0000266297D02*
X0000941230Y0000267085D01*
X0000560522Y0000574644D02*
X0000595955Y0000574644D01*
X0000595955Y0000574644D02*
X0000780994Y0000389604D01*
X0000780994Y0000389604D02*
X0000597923Y0000206533D01*
X0000597923Y0000206533D02*
X0000532962Y0000206533D01*
X0000694380Y0000255746D02*
X0000795364Y0000154762D01*
X0000795364Y0000154762D02*
X0000795364Y0000139604D01*
X0000795364Y0000139604D02*
X0000934537Y0000139604D01*
X0000534931Y0000495903D02*
X0000534931Y0000369919D01*
X0000534931Y0000369919D02*
X0000621545Y0000283305D01*
G04 next file*
G04 #@! TF.FileFunction,Copper,L1,Top,Signal*
G04 Gerber Fmt 4.6, Leading zero omitted, Abs format (unit mm)*
G04 Created by KiCad (PCBNEW 4.0.4-stable) date 08/29/17 21:10:05*
G01G01*
G04 APERTURE LIST*
G04 APERTURE END LIST*
D44*
D45*
X0001220472Y0003740157D02*
X0002020364Y0003520313D03*
X0002020364Y0003457321D03*
X0001807372Y0003519053D03*
X0001807372Y0003456061D03*
D46*
X0001615640Y0003657321D03*
X0001784931Y0003673069D03*
X0001588081Y0003462439D03*
X0001806585Y0003483620D03*
X0002021151Y0003484880D03*
X0001426663Y0003763620D03*
X0001399104Y0003395510D03*
X0001647136Y0003578581D03*
X0001560522Y0003444722D03*
X0001800679Y0003328581D03*
X0001487687Y0003472281D03*
X0001401073Y0003684880D03*
D47*
X0001784931Y0003673069D02*
X0001769183Y0003657321D01*
X0001769183Y0003657321D02*
X0001615640Y0003657321D01*
X0001588081Y0003462439D02*
X0001644695Y0003519053D01*
X0001644695Y0003519053D02*
X0001807372Y0003519053D01*
X0001807372Y0003519053D02*
X0002019104Y0003519053D01*
X0002019104Y0003519053D02*
X0002020364Y0003520313D01*
X0001805876Y0003517557D02*
X0001807372Y0003519053D01*
X0001807372Y0003456061D02*
X0001807372Y0003482832D01*
X0001807372Y0003482832D02*
X0001806585Y0003483620D01*
X0002020364Y0003457321D02*
X0002020364Y0003484092D01*
X0002020364Y0003484092D02*
X0002021151Y0003484880D01*
X0001806585Y0003455274D02*
X0001807372Y0003456061D01*
X0001426663Y0003763620D02*
X0001462096Y0003763620D01*
X0001462096Y0003763620D02*
X0001647136Y0003578581D01*
X0001647136Y0003578581D02*
X0001464065Y0003395510D01*
X0001464065Y0003395510D02*
X0001399104Y0003395510D01*
X0001560522Y0003444722D02*
X0001661506Y0003343738D01*
X0001661506Y0003343738D02*
X0001661506Y0003328581D01*
X0001661506Y0003328581D02*
X0001800679Y0003328581D01*
X0001401073Y0003684880D02*
X0001401073Y0003558896D01*
X0001401073Y0003558896D02*
X0001487687Y0003472281D01*
G04 next file*
G04 #@! TF.FileFunction,Copper,L1,Top,Signal*
G04 Gerber Fmt 4.6, Leading zero omitted, Abs format (unit mm)*
G04 Created by KiCad (PCBNEW 4.0.4-stable) date 08/29/17 21:10:05*
G01G01*
G04 APERTURE LIST*
G04 APERTURE END LIST*
D48*
D49*
X0001338582Y0001811023D02*
X0002138474Y0001591179D03*
X0002138474Y0001528187D03*
X0001925482Y0001589919D03*
X0001925482Y0001526927D03*
D50*
X0001733750Y0001728187D03*
X0001903041Y0001743935D03*
X0001706191Y0001533305D03*
X0001924695Y0001554486D03*
X0002139262Y0001555746D03*
X0001544774Y0001834486D03*
X0001517214Y0001466376D03*
X0001765246Y0001649447D03*
X0001678632Y0001515588D03*
X0001918789Y0001399447D03*
X0001605797Y0001543148D03*
X0001519183Y0001755746D03*
D51*
X0001903041Y0001743935D02*
X0001887293Y0001728187D01*
X0001887293Y0001728187D02*
X0001733750Y0001728187D01*
X0001706191Y0001533305D02*
X0001762805Y0001589919D01*
X0001762805Y0001589919D02*
X0001925482Y0001589919D01*
X0001925482Y0001589919D02*
X0002137214Y0001589919D01*
X0002137214Y0001589919D02*
X0002138474Y0001591179D01*
X0001923986Y0001588423D02*
X0001925482Y0001589919D01*
X0001925482Y0001526927D02*
X0001925482Y0001553699D01*
X0001925482Y0001553699D02*
X0001924695Y0001554486D01*
X0002138474Y0001528187D02*
X0002138474Y0001554958D01*
X0002138474Y0001554958D02*
X0002139262Y0001555746D01*
X0001924695Y0001526140D02*
X0001925482Y0001526927D01*
X0001544774Y0001834486D02*
X0001580207Y0001834486D01*
X0001580207Y0001834486D02*
X0001765246Y0001649447D01*
X0001765246Y0001649447D02*
X0001582175Y0001466376D01*
X0001582175Y0001466376D02*
X0001517214Y0001466376D01*
X0001678632Y0001515588D02*
X0001779616Y0001414604D01*
X0001779616Y0001414604D02*
X0001779616Y0001399447D01*
X0001779616Y0001399447D02*
X0001918789Y0001399447D01*
X0001519183Y0001755746D02*
X0001519183Y0001629762D01*
X0001519183Y0001629762D02*
X0001605797Y0001543148D01*
G04 next file*
G04 #@! TF.FileFunction,Copper,L1,Top,Signal*
G04 Gerber Fmt 4.6, Leading zero omitted, Abs format (unit mm)*
G04 Created by KiCad (PCBNEW 4.0.4-stable) date 08/29/17 21:10:05*
G01G01*
G04 APERTURE LIST*
G04 APERTURE END LIST*
D52*
D53*
X0001259842Y0003070866D02*
X0002059734Y0002851022D03*
X0002059734Y0002788029D03*
X0001846742Y0002849762D03*
X0001846742Y0002786770D03*
D54*
X0001655010Y0002988029D03*
X0001824301Y0003003777D03*
X0001627451Y0002793148D03*
X0001845955Y0002814329D03*
X0002060522Y0002815588D03*
X0001466033Y0003094329D03*
X0001438474Y0002726218D03*
X0001686506Y0002909289D03*
X0001599892Y0002775431D03*
X0001840049Y0002659289D03*
X0001527057Y0002802990D03*
X0001440443Y0003015588D03*
D55*
X0001824301Y0003003777D02*
X0001808553Y0002988029D01*
X0001808553Y0002988029D02*
X0001655010Y0002988029D01*
X0001627451Y0002793148D02*
X0001684065Y0002849762D01*
X0001684065Y0002849762D02*
X0001846742Y0002849762D01*
X0001846742Y0002849762D02*
X0002058474Y0002849762D01*
X0002058474Y0002849762D02*
X0002059734Y0002851022D01*
X0001845246Y0002848266D02*
X0001846742Y0002849762D01*
X0001846742Y0002786770D02*
X0001846742Y0002813541D01*
X0001846742Y0002813541D02*
X0001845955Y0002814329D01*
X0002059734Y0002788029D02*
X0002059734Y0002814801D01*
X0002059734Y0002814801D02*
X0002060522Y0002815588D01*
X0001845955Y0002785982D02*
X0001846742Y0002786770D01*
X0001466033Y0003094329D02*
X0001501466Y0003094329D01*
X0001501466Y0003094329D02*
X0001686506Y0002909289D01*
X0001686506Y0002909289D02*
X0001503435Y0002726218D01*
X0001503435Y0002726218D02*
X0001438474Y0002726218D01*
X0001599892Y0002775431D02*
X0001700876Y0002674447D01*
X0001700876Y0002674447D02*
X0001700876Y0002659289D01*
X0001700876Y0002659289D02*
X0001840049Y0002659289D01*
X0001440443Y0003015588D02*
X0001440443Y0002889604D01*
X0001440443Y0002889604D02*
X0001527057Y0002802990D01*
G04 next file*
G04 #@! TF.FileFunction,Copper,L1,Top,Signal*
G04 Gerber Fmt 4.6, Leading zero omitted, Abs format (unit mm)*
G04 Created by KiCad (PCBNEW 4.0.4-stable) date 08/29/17 21:10:05*
G01G01*
G04 APERTURE LIST*
G04 APERTURE END LIST*
D56*
D57*
X0001299212Y0002440944D02*
X0002099104Y0002221100D03*
X0002099104Y0002158108D03*
X0001886112Y0002219840D03*
X0001886112Y0002156848D03*
D58*
X0001694380Y0002358108D03*
X0001863671Y0002373856D03*
X0001666821Y0002163226D03*
X0001885325Y0002184407D03*
X0002099892Y0002185667D03*
X0001505403Y0002464407D03*
X0001477844Y0002096297D03*
X0001725876Y0002279368D03*
X0001639262Y0002145510D03*
X0001879419Y0002029368D03*
X0001566427Y0002173069D03*
X0001479813Y0002385667D03*
D59*
X0001863671Y0002373856D02*
X0001847923Y0002358108D01*
X0001847923Y0002358108D02*
X0001694380Y0002358108D01*
X0001666821Y0002163226D02*
X0001723435Y0002219840D01*
X0001723435Y0002219840D02*
X0001886112Y0002219840D01*
X0001886112Y0002219840D02*
X0002097844Y0002219840D01*
X0002097844Y0002219840D02*
X0002099104Y0002221100D01*
X0001884616Y0002218344D02*
X0001886112Y0002219840D01*
X0001886112Y0002156848D02*
X0001886112Y0002183620D01*
X0001886112Y0002183620D02*
X0001885325Y0002184407D01*
X0002099104Y0002158108D02*
X0002099104Y0002184880D01*
X0002099104Y0002184880D02*
X0002099892Y0002185667D01*
X0001885325Y0002156061D02*
X0001886112Y0002156848D01*
X0001505403Y0002464407D02*
X0001540837Y0002464407D01*
X0001540837Y0002464407D02*
X0001725876Y0002279368D01*
X0001725876Y0002279368D02*
X0001542805Y0002096297D01*
X0001542805Y0002096297D02*
X0001477844Y0002096297D01*
X0001639262Y0002145510D02*
X0001740246Y0002044525D01*
X0001740246Y0002044525D02*
X0001740246Y0002029368D01*
X0001740246Y0002029368D02*
X0001879419Y0002029368D01*
X0001479813Y0002385667D02*
X0001479813Y0002259683D01*
X0001479813Y0002259683D02*
X0001566427Y0002173069D01*
G04 next file*
G04 #@! TF.FileFunction,Copper,L1,Top,Signal*
G04 Gerber Fmt 4.6, Leading zero omitted, Abs format (unit mm)*
G04 Created by KiCad (PCBNEW 4.0.4-stable) date 08/29/17 21:10:05*
G01G01*
G04 APERTURE LIST*
G04 APERTURE END LIST*
D60*
D61*
X0001377952Y0001141732D02*
X0002177844Y0000921888D03*
X0002177844Y0000858896D03*
X0001964852Y0000920628D03*
X0001964852Y0000857636D03*
D62*
X0001773120Y0001058896D03*
X0001942411Y0001074644D03*
X0001745561Y0000864014D03*
X0001964065Y0000885195D03*
X0002178632Y0000886455D03*
X0001584144Y0001165195D03*
X0001556585Y0000797085D03*
X0001804616Y0000980155D03*
X0001718002Y0000846297D03*
X0001958159Y0000730155D03*
X0001645167Y0000873856D03*
X0001558553Y0001086455D03*
D63*
X0001942411Y0001074644D02*
X0001926663Y0001058896D01*
X0001926663Y0001058896D02*
X0001773120Y0001058896D01*
X0001745561Y0000864014D02*
X0001802175Y0000920628D01*
X0001802175Y0000920628D02*
X0001964852Y0000920628D01*
X0001964852Y0000920628D02*
X0002176585Y0000920628D01*
X0002176585Y0000920628D02*
X0002177844Y0000921888D01*
X0001963356Y0000919132D02*
X0001964852Y0000920628D01*
X0001964852Y0000857636D02*
X0001964852Y0000884407D01*
X0001964852Y0000884407D02*
X0001964065Y0000885195D01*
X0002177844Y0000858896D02*
X0002177844Y0000885667D01*
X0002177844Y0000885667D02*
X0002178632Y0000886455D01*
X0001964065Y0000856848D02*
X0001964852Y0000857636D01*
X0001584144Y0001165195D02*
X0001619577Y0001165195D01*
X0001619577Y0001165195D02*
X0001804616Y0000980155D01*
X0001804616Y0000980155D02*
X0001621545Y0000797085D01*
X0001621545Y0000797085D02*
X0001556585Y0000797085D01*
X0001718002Y0000846297D02*
X0001818986Y0000745313D01*
X0001818986Y0000745313D02*
X0001818986Y0000730155D01*
X0001818986Y0000730155D02*
X0001958159Y0000730155D01*
X0001558553Y0001086455D02*
X0001558553Y0000960470D01*
X0001558553Y0000960470D02*
X0001645167Y0000873856D01*
G04 next file*
G04 #@! TF.FileFunction,Copper,L1,Top,Signal*
G04 Gerber Fmt 4.6, Leading zero omitted, Abs format (unit mm)*
G04 Created by KiCad (PCBNEW 4.0.4-stable) date 08/29/17 21:10:05*
G01G01*
G04 APERTURE LIST*
G04 APERTURE END LIST*
D64*
D65*
X0001417322Y0000511811D02*
X0002217214Y0000291966D03*
X0002217214Y0000228974D03*
X0002004222Y0000290707D03*
X0002004222Y0000227714D03*
D66*
X0001812490Y0000428974D03*
X0001981781Y0000444722D03*
X0001784931Y0000234092D03*
X0002003435Y0000255273D03*
X0002218002Y0000256533D03*
X0001623514Y0000535274D03*
X0001595955Y0000167163D03*
X0001843986Y0000350234D03*
X0001757372Y0000216376D03*
X0001997529Y0000100234D03*
X0001684537Y0000243935D03*
X0001597923Y0000456533D03*
D67*
X0001981781Y0000444722D02*
X0001966033Y0000428974D01*
X0001966033Y0000428974D02*
X0001812490Y0000428974D01*
X0001784931Y0000234092D02*
X0001841545Y0000290707D01*
X0001841545Y0000290707D02*
X0002004222Y0000290707D01*
X0002004222Y0000290707D02*
X0002215955Y0000290707D01*
X0002215955Y0000290707D02*
X0002217214Y0000291966D01*
X0002002726Y0000289211D02*
X0002004222Y0000290707D01*
X0002004222Y0000227714D02*
X0002004222Y0000254486D01*
X0002004222Y0000254486D02*
X0002003435Y0000255273D01*
X0002217214Y0000228974D02*
X0002217214Y0000255746D01*
X0002217214Y0000255746D02*
X0002218002Y0000256533D01*
X0002003435Y0000226927D02*
X0002004222Y0000227714D01*
X0001623514Y0000535274D02*
X0001658947Y0000535274D01*
X0001658947Y0000535274D02*
X0001843986Y0000350234D01*
X0001843986Y0000350234D02*
X0001660915Y0000167163D01*
X0001660915Y0000167163D02*
X0001595955Y0000167163D01*
X0001757372Y0000216376D02*
X0001858356Y0000115392D01*
X0001858356Y0000115392D02*
X0001858356Y0000100234D01*
X0001858356Y0000100234D02*
X0001997529Y0000100234D01*
X0001597923Y0000456533D02*
X0001597923Y0000330549D01*
X0001597923Y0000330549D02*
X0001684537Y0000243935D01*
G04 next file*
G04 #@! TF.FileFunction,Copper,L1,Top,Signal*
G04 Gerber Fmt 4.6, Leading zero omitted, Abs format (unit mm)*
G04 Created by KiCad (PCBNEW 4.0.4-stable) date 08/29/17 21:10:05*
G01G01*
G04 APERTURE LIST*
G04 APERTURE END LIST*
D68*
D69*
X0002283464Y0003740157D02*
X0003083356Y0003520313D03*
X0003083356Y0003457321D03*
X0002870364Y0003519053D03*
X0002870364Y0003456061D03*
D70*
X0002678632Y0003657321D03*
X0002847923Y0003673069D03*
X0002651073Y0003462439D03*
X0002869577Y0003483620D03*
X0003084144Y0003484880D03*
X0002489655Y0003763620D03*
X0002462096Y0003395510D03*
X0002710128Y0003578581D03*
X0002623514Y0003444722D03*
X0002863671Y0003328581D03*
X0002550679Y0003472281D03*
X0002464065Y0003684880D03*
D71*
X0002847923Y0003673069D02*
X0002832175Y0003657321D01*
X0002832175Y0003657321D02*
X0002678632Y0003657321D01*
X0002651073Y0003462439D02*
X0002707687Y0003519053D01*
X0002707687Y0003519053D02*
X0002870364Y0003519053D01*
X0002870364Y0003519053D02*
X0003082096Y0003519053D01*
X0003082096Y0003519053D02*
X0003083356Y0003520313D01*
X0002868868Y0003517557D02*
X0002870364Y0003519053D01*
X0002870364Y0003456061D02*
X0002870364Y0003482832D01*
X0002870364Y0003482832D02*
X0002869577Y0003483620D01*
X0003083356Y0003457321D02*
X0003083356Y0003484092D01*
X0003083356Y0003484092D02*
X0003084144Y0003484880D01*
X0002869577Y0003455274D02*
X0002870364Y0003456061D01*
X0002489655Y0003763620D02*
X0002525088Y0003763620D01*
X0002525088Y0003763620D02*
X0002710128Y0003578581D01*
X0002710128Y0003578581D02*
X0002527057Y0003395510D01*
X0002527057Y0003395510D02*
X0002462096Y0003395510D01*
X0002623514Y0003444722D02*
X0002724498Y0003343738D01*
X0002724498Y0003343738D02*
X0002724498Y0003328581D01*
X0002724498Y0003328581D02*
X0002863671Y0003328581D01*
X0002464065Y0003684880D02*
X0002464065Y0003558896D01*
X0002464065Y0003558896D02*
X0002550679Y0003472281D01*
G04 next file*
G04 #@! TF.FileFunction,Copper,L1,Top,Signal*
G04 Gerber Fmt 4.6, Leading zero omitted, Abs format (unit mm)*
G04 Created by KiCad (PCBNEW 4.0.4-stable) date 08/29/17 21:10:05*
G01G01*
G04 APERTURE LIST*
G04 APERTURE END LIST*
D72*
D73*
X0002322834Y0003110236D02*
X0003122726Y0002890392D03*
X0003122726Y0002827400D03*
X0002909734Y0002889132D03*
X0002909734Y0002826140D03*
D74*
X0002718002Y0003027400D03*
X0002887293Y0003043148D03*
X0002690443Y0002832518D03*
X0002908947Y0002853699D03*
X0003123514Y0002854958D03*
X0002529025Y0003133699D03*
X0002501466Y0002765588D03*
X0002749498Y0002948659D03*
X0002662884Y0002814801D03*
X0002903041Y0002698659D03*
X0002590049Y0002842360D03*
X0002503435Y0003054959D03*
D75*
X0002887293Y0003043148D02*
X0002871545Y0003027400D01*
X0002871545Y0003027400D02*
X0002718002Y0003027400D01*
X0002690443Y0002832518D02*
X0002747057Y0002889132D01*
X0002747057Y0002889132D02*
X0002909734Y0002889132D01*
X0002909734Y0002889132D02*
X0003121466Y0002889132D01*
X0003121466Y0002889132D02*
X0003122726Y0002890392D01*
X0002908238Y0002887636D02*
X0002909734Y0002889132D01*
X0002909734Y0002826140D02*
X0002909734Y0002852911D01*
X0002909734Y0002852911D02*
X0002908947Y0002853699D01*
X0003122726Y0002827400D02*
X0003122726Y0002854171D01*
X0003122726Y0002854171D02*
X0003123514Y0002854958D01*
X0002908947Y0002825352D02*
X0002909734Y0002826140D01*
X0002529025Y0003133699D02*
X0002564459Y0003133699D01*
X0002564459Y0003133699D02*
X0002749498Y0002948659D01*
X0002749498Y0002948659D02*
X0002566427Y0002765588D01*
X0002566427Y0002765588D02*
X0002501466Y0002765588D01*
X0002662884Y0002814801D02*
X0002763868Y0002713817D01*
X0002763868Y0002713817D02*
X0002763868Y0002698659D01*
X0002763868Y0002698659D02*
X0002903041Y0002698659D01*
X0002503435Y0003054959D02*
X0002503435Y0002928974D01*
X0002503435Y0002928974D02*
X0002590049Y0002842360D01*
G04 next file*
G04 #@! TF.FileFunction,Copper,L1,Top,Signal*
G04 Gerber Fmt 4.6, Leading zero omitted, Abs format (unit mm)*
G04 Created by KiCad (PCBNEW 4.0.4-stable) date 08/29/17 21:10:05*
G01G01*
G04 APERTURE LIST*
G04 APERTURE END LIST*
D76*
D77*
X0002362204Y0002480314D02*
X0003162096Y0002260470D03*
X0003162096Y0002197478D03*
X0002949104Y0002259211D03*
X0002949104Y0002196218D03*
D78*
X0002757372Y0002397478D03*
X0002926663Y0002413226D03*
X0002729813Y0002202596D03*
X0002948317Y0002223777D03*
X0003162884Y0002225037D03*
X0002568396Y0002503777D03*
X0002540837Y0002135667D03*
X0002788868Y0002318738D03*
X0002702254Y0002184880D03*
X0002942411Y0002068738D03*
X0002629419Y0002212439D03*
X0002542805Y0002425037D03*
D79*
X0002926663Y0002413226D02*
X0002910915Y0002397478D01*
X0002910915Y0002397478D02*
X0002757372Y0002397478D01*
X0002729813Y0002202596D02*
X0002786427Y0002259211D01*
X0002786427Y0002259211D02*
X0002949104Y0002259211D01*
X0002949104Y0002259211D02*
X0003160837Y0002259211D01*
X0003160837Y0002259211D02*
X0003162096Y0002260470D01*
X0002947608Y0002257714D02*
X0002949104Y0002259211D01*
X0002949104Y0002196218D02*
X0002949104Y0002222990D01*
X0002949104Y0002222990D02*
X0002948317Y0002223777D01*
X0003162096Y0002197478D02*
X0003162096Y0002224250D01*
X0003162096Y0002224250D02*
X0003162884Y0002225037D01*
X0002948317Y0002195431D02*
X0002949104Y0002196218D01*
X0002568396Y0002503777D02*
X0002603829Y0002503777D01*
X0002603829Y0002503777D02*
X0002788868Y0002318738D01*
X0002788868Y0002318738D02*
X0002605797Y0002135667D01*
X0002605797Y0002135667D02*
X0002540837Y0002135667D01*
X0002702254Y0002184880D02*
X0002803238Y0002083896D01*
X0002803238Y0002083896D02*
X0002803238Y0002068738D01*
X0002803238Y0002068738D02*
X0002942411Y0002068738D01*
X0002542805Y0002425037D02*
X0002542805Y0002299053D01*
X0002542805Y0002299053D02*
X0002629419Y0002212439D01*
G04 next file*
G04 #@! TF.FileFunction,Copper,L1,Top,Signal*
G04 Gerber Fmt 4.6, Leading zero omitted, Abs format (unit mm)*
G04 Created by KiCad (PCBNEW 4.0.4-stable) date 08/29/17 21:10:05*
G01G01*
G04 APERTURE LIST*
G04 APERTURE END LIST*
D80*
D81*
X0002401574Y0001811023D02*
X0003201466Y0001591179D03*
X0003201466Y0001528187D03*
X0002988474Y0001589919D03*
X0002988474Y0001526927D03*
D82*
X0002796742Y0001728187D03*
X0002966033Y0001743935D03*
X0002769183Y0001533305D03*
X0002987687Y0001554486D03*
X0003202254Y0001555746D03*
X0002607766Y0001834486D03*
X0002580207Y0001466376D03*
X0002828238Y0001649447D03*
X0002741624Y0001515588D03*
X0002981781Y0001399447D03*
X0002668789Y0001543148D03*
X0002582175Y0001755746D03*
D83*
X0002966033Y0001743935D02*
X0002950285Y0001728187D01*
X0002950285Y0001728187D02*
X0002796742Y0001728187D01*
X0002769183Y0001533305D02*
X0002825797Y0001589919D01*
X0002825797Y0001589919D02*
X0002988474Y0001589919D01*
X0002988474Y0001589919D02*
X0003200207Y0001589919D01*
X0003200207Y0001589919D02*
X0003201466Y0001591179D01*
X0002986978Y0001588423D02*
X0002988474Y0001589919D01*
X0002988474Y0001526927D02*
X0002988474Y0001553699D01*
X0002988474Y0001553699D02*
X0002987687Y0001554486D01*
X0003201466Y0001528187D02*
X0003201466Y0001554958D01*
X0003201466Y0001554958D02*
X0003202254Y0001555746D01*
X0002987687Y0001526140D02*
X0002988474Y0001526927D01*
X0002607766Y0001834486D02*
X0002643199Y0001834486D01*
X0002643199Y0001834486D02*
X0002828238Y0001649447D01*
X0002828238Y0001649447D02*
X0002645167Y0001466376D01*
X0002645167Y0001466376D02*
X0002580207Y0001466376D01*
X0002741624Y0001515588D02*
X0002842608Y0001414604D01*
X0002842608Y0001414604D02*
X0002842608Y0001399447D01*
X0002842608Y0001399447D02*
X0002981781Y0001399447D01*
X0002582175Y0001755746D02*
X0002582175Y0001629762D01*
X0002582175Y0001629762D02*
X0002668789Y0001543148D01*
G04 next file*
G04 #@! TF.FileFunction,Copper,L1,Top,Signal*
G04 Gerber Fmt 4.6, Leading zero omitted, Abs format (unit mm)*
G04 Created by KiCad (PCBNEW 4.0.4-stable) date 08/29/17 21:10:05*
G01G01*
G04 APERTURE LIST*
G04 APERTURE END LIST*
D84*
D85*
X0002440944Y0001141732D02*
X0003240837Y0000921888D03*
X0003240837Y0000858896D03*
X0003027844Y0000920628D03*
X0003027844Y0000857636D03*
D86*
X0002836112Y0001058896D03*
X0003005403Y0001074644D03*
X0002808553Y0000864014D03*
X0003027057Y0000885195D03*
X0003241624Y0000886455D03*
X0002647136Y0001165195D03*
X0002619577Y0000797085D03*
X0002867608Y0000980155D03*
X0002780994Y0000846297D03*
X0003021151Y0000730155D03*
X0002708159Y0000873856D03*
X0002621545Y0001086455D03*
D87*
X0003005403Y0001074644D02*
X0002989655Y0001058896D01*
X0002989655Y0001058896D02*
X0002836112Y0001058896D01*
X0002808553Y0000864014D02*
X0002865167Y0000920628D01*
X0002865167Y0000920628D02*
X0003027844Y0000920628D01*
X0003027844Y0000920628D02*
X0003239577Y0000920628D01*
X0003239577Y0000920628D02*
X0003240837Y0000921888D01*
X0003026348Y0000919132D02*
X0003027844Y0000920628D01*
X0003027844Y0000857636D02*
X0003027844Y0000884407D01*
X0003027844Y0000884407D02*
X0003027057Y0000885195D01*
X0003240837Y0000858896D02*
X0003240837Y0000885667D01*
X0003240837Y0000885667D02*
X0003241624Y0000886455D01*
X0003027057Y0000856848D02*
X0003027844Y0000857636D01*
X0002647136Y0001165195D02*
X0002682569Y0001165195D01*
X0002682569Y0001165195D02*
X0002867608Y0000980155D01*
X0002867608Y0000980155D02*
X0002684537Y0000797085D01*
X0002684537Y0000797085D02*
X0002619577Y0000797085D01*
X0002780994Y0000846297D02*
X0002881978Y0000745313D01*
X0002881978Y0000745313D02*
X0002881978Y0000730155D01*
X0002881978Y0000730155D02*
X0003021151Y0000730155D01*
X0002621545Y0001086455D02*
X0002621545Y0000960470D01*
X0002621545Y0000960470D02*
X0002708159Y0000873856D01*
G04 next file*
G04 #@! TF.FileFunction,Copper,L1,Top,Signal*
G04 Gerber Fmt 4.6, Leading zero omitted, Abs format (unit mm)*
G04 Created by KiCad (PCBNEW 4.0.4-stable) date 08/29/17 21:10:05*
G01G01*
G04 APERTURE LIST*
G04 APERTURE END LIST*
D88*
D89*
X0002480314Y0000511811D02*
X0003280207Y0000291966D03*
X0003280207Y0000228974D03*
X0003067214Y0000290707D03*
X0003067214Y0000227714D03*
D90*
X0002875482Y0000428974D03*
X0003044774Y0000444722D03*
X0002847923Y0000234092D03*
X0003066427Y0000255273D03*
X0003280994Y0000256533D03*
X0002686506Y0000535274D03*
X0002658947Y0000167163D03*
X0002906978Y0000350234D03*
X0002820364Y0000216376D03*
X0003060522Y0000100234D03*
X0002747529Y0000243935D03*
X0002660915Y0000456533D03*
D91*
X0003044774Y0000444722D02*
X0003029025Y0000428974D01*
X0003029025Y0000428974D02*
X0002875482Y0000428974D01*
X0002847923Y0000234092D02*
X0002904537Y0000290707D01*
X0002904537Y0000290707D02*
X0003067214Y0000290707D01*
X0003067214Y0000290707D02*
X0003278947Y0000290707D01*
X0003278947Y0000290707D02*
X0003280207Y0000291966D01*
X0003065718Y0000289211D02*
X0003067214Y0000290707D01*
X0003067214Y0000227714D02*
X0003067214Y0000254486D01*
X0003067214Y0000254486D02*
X0003066427Y0000255273D01*
X0003280207Y0000228974D02*
X0003280207Y0000255746D01*
X0003280207Y0000255746D02*
X0003280994Y0000256533D01*
X0003066427Y0000226927D02*
X0003067214Y0000227714D01*
X0002686506Y0000535274D02*
X0002721939Y0000535274D01*
X0002721939Y0000535274D02*
X0002906978Y0000350234D01*
X0002906978Y0000350234D02*
X0002723907Y0000167163D01*
X0002723907Y0000167163D02*
X0002658947Y0000167163D01*
X0002820364Y0000216376D02*
X0002921348Y0000115392D01*
X0002921348Y0000115392D02*
X0002921348Y0000100234D01*
X0002921348Y0000100234D02*
X0003060522Y0000100234D01*
X0002660915Y0000456533D02*
X0002660915Y0000330549D01*
X0002660915Y0000330549D02*
X0002747529Y0000243935D01*
M02*