%MOIN*%
%OFA0B0*%
%FSLAX46Y46*%
%IPPOS*%
%LPD*%
%ADD10C,0.0039370078740157488*%
%ADD11C,0.0047244094488188976*%
%ADD22C,0.0039370078740157488*%
%ADD23C,0.0047244094488188976*%
%ADD24C,0.0039370078740157488*%
%ADD25C,0.0047244094488188976*%
%ADD26C,0.0039370078740157488*%
%ADD27C,0.0047244094488188976*%
%ADD28C,0.0039370078740157488*%
%ADD29C,0.0047244094488188976*%
%ADD30C,0.0039370078740157488*%
%ADD31C,0.0047244094488188976*%
%ADD32C,0.0039370078740157488*%
%ADD33C,0.0047244094488188976*%
%ADD34C,0.0039370078740157488*%
%ADD35C,0.0047244094488188976*%
%ADD36C,0.0039370078740157488*%
%ADD37C,0.0047244094488188976*%
%ADD38C,0.0039370078740157488*%
%ADD39C,0.0047244094488188976*%
%ADD40C,0.0039370078740157488*%
%ADD41C,0.0047244094488188976*%
%ADD42C,0.0039370078740157488*%
%ADD43C,0.0047244094488188976*%
%ADD44C,0.0039370078740157488*%
%ADD45C,0.0047244094488188976*%
%ADD46C,0.0039370078740157488*%
%ADD47C,0.0047244094488188976*%
%ADD48C,0.0039370078740157488*%
%ADD49C,0.0047244094488188976*%
%ADD50C,0.0039370078740157488*%
%ADD51C,0.0047244094488188976*%
%ADD52C,0.0039370078740157488*%
%ADD53C,0.0047244094488188976*%
%ADD54C,0.0039370078740157488*%
%ADD55C,0.0047244094488188976*%
G01G01*
D10*
G36*
X0000869882Y0002751823D02*
X0000609978Y0002764403D01*
X0000615371Y0002831997D01*
X0000653957Y0002880315D01*
X0000660002Y0002884141D01*
X0000658361Y0002891107D01*
X0000651894Y0002933087D01*
X0000659267Y0002991886D01*
X0000711864Y0003010860D01*
X0000763568Y0002961360D01*
X0000789014Y0002917411D01*
X0000790489Y0002914334D01*
X0000793531Y0002912786D01*
X0000846612Y0002901670D01*
X0000856719Y0002901611D01*
X0000856719Y0003036134D01*
X0000828199Y0003104978D01*
X0000759355Y0003133498D01*
X0000357564Y0003133498D01*
X0000357563Y0003133499D01*
X0000288719Y0003104979D01*
X0000260199Y0003036135D01*
X0000260199Y0002776421D01*
X0000288719Y0002707577D01*
X0000357563Y0002679057D01*
X0000668698Y0002679057D01*
X0000649915Y0002696473D01*
X0000609978Y0002764403D01*
X0000869882Y0002751823D01*
X0000850614Y0002722057D01*
X0000835554Y0002711631D01*
X0000821607Y0002717403D01*
X0000798086Y0002750937D01*
X0000827353Y0002710088D01*
X0000861813Y0002698429D01*
X0000891595Y0002716922D01*
X0000903916Y0002733535D01*
X0000926574Y0002707849D01*
X0000962964Y0002702725D01*
X0001007061Y0002748791D01*
X0000972542Y0002709941D01*
X0000960617Y0002712401D01*
X0000933673Y0002747870D01*
X0000869882Y0002751823D01*
X0000869882Y0002751823D01*
G37*
D11*
X0000977057Y0002768344D02*
X0001016427Y0002768344D01*
X0001016427Y0002768344D02*
X0001016427Y0002851022D01*
X0000977057Y0002768344D02*
X0000977057Y0002851022D01*
X0000764065Y0002767085D02*
X0000803435Y0002767085D01*
X0000803435Y0002767085D02*
X0000803435Y0002849762D01*
X0000764065Y0002767085D02*
X0000764065Y0002849762D01*
G04 next file*
G04 #@! TF.FileFunction,Legend,Top*
G04 Gerber Fmt 4.6, Leading zero omitted, Abs format (unit mm)*
G04 Created by KiCad (PCBNEW 4.0.4-stable) date 08/29/17 21:10:05*
G01G01*
G04 APERTURE LIST*
G04 APERTURE END LIST*
D22*
G36*
X0000830512Y0003421115D02*
X0000570608Y0003433695D01*
X0000576000Y0003501288D01*
X0000614587Y0003549606D01*
X0000620632Y0003553432D01*
X0000618991Y0003560399D01*
X0000612524Y0003602379D01*
X0000619897Y0003661177D01*
X0000672494Y0003680151D01*
X0000724198Y0003630651D01*
X0000749644Y0003586702D01*
X0000751119Y0003583625D01*
X0000754161Y0003582077D01*
X0000807242Y0003570961D01*
X0000817349Y0003570902D01*
X0000817349Y0003705425D01*
X0000788829Y0003774269D01*
X0000719985Y0003802789D01*
X0000318194Y0003802789D01*
X0000318193Y0003802790D01*
X0000249349Y0003774270D01*
X0000220829Y0003705427D01*
X0000220829Y0003445712D01*
X0000249349Y0003376869D01*
X0000318193Y0003348348D01*
X0000629328Y0003348348D01*
X0000610545Y0003365765D01*
X0000570608Y0003433695D01*
X0000830512Y0003421115D01*
X0000811244Y0003391348D01*
X0000796184Y0003380923D01*
X0000782237Y0003386694D01*
X0000758716Y0003420228D01*
X0000787983Y0003379380D01*
X0000822443Y0003367720D01*
X0000852225Y0003386214D01*
X0000864546Y0003402827D01*
X0000887204Y0003377141D01*
X0000923594Y0003372016D01*
X0000967690Y0003418082D01*
X0000933172Y0003379233D01*
X0000921247Y0003381692D01*
X0000894302Y0003417161D01*
X0000830512Y0003421115D01*
X0000830512Y0003421115D01*
G37*
D23*
X0000937687Y0003437636D02*
X0000977057Y0003437636D01*
X0000977057Y0003437636D02*
X0000977057Y0003520313D01*
X0000937687Y0003437636D02*
X0000937687Y0003520313D01*
X0000724695Y0003436376D02*
X0000764065Y0003436376D01*
X0000764065Y0003436376D02*
X0000764065Y0003519053D01*
X0000724695Y0003436376D02*
X0000724695Y0003519053D01*
G04 next file*
G04 #@! TF.FileFunction,Legend,Top*
G04 Gerber Fmt 4.6, Leading zero omitted, Abs format (unit mm)*
G04 Created by KiCad (PCBNEW 4.0.4-stable) date 08/29/17 21:10:05*
G01G01*
G04 APERTURE LIST*
G04 APERTURE END LIST*
D24*
G36*
X0000909252Y0002121902D02*
X0000649348Y0002134482D01*
X0000654741Y0002202075D01*
X0000693327Y0002250394D01*
X0000699372Y0002254220D01*
X0000697731Y0002261186D01*
X0000691265Y0002303166D01*
X0000698638Y0002361965D01*
X0000751234Y0002380939D01*
X0000802939Y0002331439D01*
X0000828384Y0002287489D01*
X0000829859Y0002284413D01*
X0000832901Y0002282865D01*
X0000885982Y0002271749D01*
X0000896089Y0002271689D01*
X0000896089Y0002406213D01*
X0000867569Y0002475056D01*
X0000798725Y0002503577D01*
X0000396934Y0002503577D01*
X0000396933Y0002503578D01*
X0000328089Y0002475058D01*
X0000299569Y0002406214D01*
X0000299569Y0002146500D01*
X0000328089Y0002077656D01*
X0000396933Y0002049136D01*
X0000708068Y0002049136D01*
X0000689285Y0002066552D01*
X0000649348Y0002134482D01*
X0000909252Y0002121902D01*
X0000889984Y0002092135D01*
X0000874924Y0002081710D01*
X0000860977Y0002087481D01*
X0000837456Y0002121015D01*
X0000866723Y0002080167D01*
X0000901183Y0002068507D01*
X0000930965Y0002087001D01*
X0000943286Y0002103614D01*
X0000965944Y0002077928D01*
X0001002334Y0002072804D01*
X0001046431Y0002118870D01*
X0001011912Y0002080020D01*
X0000999987Y0002082479D01*
X0000973043Y0002117949D01*
X0000909252Y0002121902D01*
X0000909252Y0002121902D01*
G37*
D25*
X0001016427Y0002138423D02*
X0001055797Y0002138423D01*
X0001055797Y0002138423D02*
X0001055797Y0002221100D01*
X0001016427Y0002138423D02*
X0001016427Y0002221100D01*
X0000803435Y0002137163D02*
X0000842805Y0002137163D01*
X0000842805Y0002137163D02*
X0000842805Y0002219840D01*
X0000803435Y0002137163D02*
X0000803435Y0002219840D01*
G04 next file*
G04 #@! TF.FileFunction,Legend,Top*
G04 Gerber Fmt 4.6, Leading zero omitted, Abs format (unit mm)*
G04 Created by KiCad (PCBNEW 4.0.4-stable) date 08/29/17 21:10:05*
G01G01*
G04 APERTURE LIST*
G04 APERTURE END LIST*
D26*
G36*
X0000948622Y0001491981D02*
X0000688718Y0001504561D01*
X0000694111Y0001572154D01*
X0000732697Y0001620472D01*
X0000738742Y0001624298D01*
X0000737101Y0001631265D01*
X0000730635Y0001673245D01*
X0000738008Y0001732043D01*
X0000790604Y0001751017D01*
X0000842309Y0001701517D01*
X0000867754Y0001657568D01*
X0000869229Y0001654491D01*
X0000872271Y0001652943D01*
X0000925353Y0001641827D01*
X0000935459Y0001641768D01*
X0000935459Y0001776291D01*
X0000906939Y0001845135D01*
X0000838095Y0001873655D01*
X0000436304Y0001873655D01*
X0000436303Y0001873657D01*
X0000367460Y0001845137D01*
X0000338939Y0001776293D01*
X0000338939Y0001516578D01*
X0000367460Y0001447735D01*
X0000436303Y0001419215D01*
X0000747438Y0001419215D01*
X0000728655Y0001436631D01*
X0000688718Y0001504561D01*
X0000948622Y0001491981D01*
X0000929354Y0001462214D01*
X0000914294Y0001451789D01*
X0000900347Y0001457560D01*
X0000876826Y0001491094D01*
X0000906093Y0001450246D01*
X0000940553Y0001438586D01*
X0000970335Y0001457080D01*
X0000982656Y0001473693D01*
X0001005314Y0001448007D01*
X0001041704Y0001442882D01*
X0001085801Y0001488948D01*
X0001051282Y0001450099D01*
X0001039358Y0001452558D01*
X0001012413Y0001488027D01*
X0000948622Y0001491981D01*
X0000948622Y0001491981D01*
G37*
D27*
X0001055797Y0001508502D02*
X0001095167Y0001508502D01*
X0001095167Y0001508502D02*
X0001095167Y0001591179D01*
X0001055797Y0001508502D02*
X0001055797Y0001591179D01*
X0000842805Y0001507242D02*
X0000882175Y0001507242D01*
X0000882175Y0001507242D02*
X0000882175Y0001589919D01*
X0000842805Y0001507242D02*
X0000842805Y0001589919D01*
G04 next file*
G04 #@! TF.FileFunction,Legend,Top*
G04 Gerber Fmt 4.6, Leading zero omitted, Abs format (unit mm)*
G04 Created by KiCad (PCBNEW 4.0.4-stable) date 08/29/17 21:10:05*
G01G01*
G04 APERTURE LIST*
G04 APERTURE END LIST*
D28*
G36*
X0000987992Y0000862060D02*
X0000728088Y0000874639D01*
X0000733481Y0000942233D01*
X0000772067Y0000990551D01*
X0000778113Y0000994377D01*
X0000776471Y0001001344D01*
X0000770005Y0001043324D01*
X0000777378Y0001102122D01*
X0000829974Y0001121096D01*
X0000881679Y0001071596D01*
X0000907124Y0001027647D01*
X0000908599Y0001024570D01*
X0000911641Y0001023022D01*
X0000964723Y0001011906D01*
X0000974829Y0001011847D01*
X0000974829Y0001146370D01*
X0000946309Y0001215214D01*
X0000877466Y0001243734D01*
X0000475674Y0001243734D01*
X0000475673Y0001243735D01*
X0000406830Y0001215215D01*
X0000378309Y0001146371D01*
X0000378309Y0000886657D01*
X0000406830Y0000817813D01*
X0000475673Y0000789293D01*
X0000786808Y0000789293D01*
X0000768025Y0000806709D01*
X0000728088Y0000874639D01*
X0000987992Y0000862060D01*
X0000968724Y0000832293D01*
X0000953664Y0000821868D01*
X0000939717Y0000827639D01*
X0000916197Y0000861173D01*
X0000945464Y0000820325D01*
X0000979924Y0000808665D01*
X0001009705Y0000827159D01*
X0001022026Y0000843771D01*
X0001044684Y0000818086D01*
X0001081074Y0000812961D01*
X0001125171Y0000859027D01*
X0001090652Y0000820178D01*
X0001078728Y0000822637D01*
X0001051783Y0000858106D01*
X0000987992Y0000862060D01*
X0000987992Y0000862060D01*
G37*
D29*
X0001095167Y0000878581D02*
X0001134537Y0000878581D01*
X0001134537Y0000878581D02*
X0001134537Y0000961258D01*
X0001095167Y0000878581D02*
X0001095167Y0000961258D01*
X0000882175Y0000877321D02*
X0000921545Y0000877321D01*
X0000921545Y0000877321D02*
X0000921545Y0000959998D01*
X0000882175Y0000877321D02*
X0000882175Y0000959998D01*
G04 next file*
G04 #@! TF.FileFunction,Legend,Top*
G04 Gerber Fmt 4.6, Leading zero omitted, Abs format (unit mm)*
G04 Created by KiCad (PCBNEW 4.0.4-stable) date 08/29/17 21:10:05*
G01G01*
G04 APERTURE LIST*
G04 APERTURE END LIST*
D30*
G36*
X0001027362Y0000232138D02*
X0000767458Y0000244718D01*
X0000772851Y0000312312D01*
X0000811437Y0000360630D01*
X0000817483Y0000364456D01*
X0000815841Y0000371422D01*
X0000809375Y0000413402D01*
X0000816748Y0000472201D01*
X0000869344Y0000491175D01*
X0000921049Y0000441675D01*
X0000946494Y0000397726D01*
X0000947969Y0000394649D01*
X0000951011Y0000393101D01*
X0001004093Y0000381985D01*
X0001014200Y0000381926D01*
X0001014200Y0000516449D01*
X0000985679Y0000585293D01*
X0000916836Y0000613813D01*
X0000515044Y0000613813D01*
X0000515043Y0000613814D01*
X0000446200Y0000585294D01*
X0000417680Y0000516450D01*
X0000417680Y0000256736D01*
X0000446200Y0000187892D01*
X0000515043Y0000159372D01*
X0000826178Y0000159372D01*
X0000807395Y0000176788D01*
X0000767458Y0000244718D01*
X0001027362Y0000232138D01*
X0001008094Y0000202372D01*
X0000993035Y0000191946D01*
X0000979087Y0000197717D01*
X0000955567Y0000231252D01*
X0000984834Y0000190403D01*
X0001019294Y0000178744D01*
X0001049075Y0000197237D01*
X0001061396Y0000213850D01*
X0001084054Y0000188164D01*
X0001120444Y0000183040D01*
X0001164541Y0000229106D01*
X0001130022Y0000190256D01*
X0001118098Y0000192716D01*
X0001091153Y0000228185D01*
X0001027362Y0000232138D01*
X0001027362Y0000232138D01*
G37*
D31*
X0001134537Y0000248659D02*
X0001173907Y0000248659D01*
X0001173907Y0000248659D02*
X0001173907Y0000331337D01*
X0001134537Y0000248659D02*
X0001134537Y0000331337D01*
X0000921545Y0000247400D02*
X0000960915Y0000247400D01*
X0000960915Y0000247400D02*
X0000960915Y0000330077D01*
X0000921545Y0000247400D02*
X0000921545Y0000330077D01*
G04 next file*
G04 #@! TF.FileFunction,Legend,Top*
G04 Gerber Fmt 4.6, Leading zero omitted, Abs format (unit mm)*
G04 Created by KiCad (PCBNEW 4.0.4-stable) date 08/29/17 21:10:05*
G01G01*
G04 APERTURE LIST*
G04 APERTURE END LIST*
D32*
G36*
X0001893504Y0003421115D02*
X0001633600Y0003433695D01*
X0001638993Y0003501288D01*
X0001677579Y0003549606D01*
X0001683624Y0003553432D01*
X0001681983Y0003560399D01*
X0001675516Y0003602379D01*
X0001682890Y0003661177D01*
X0001735486Y0003680151D01*
X0001787190Y0003630651D01*
X0001812636Y0003586702D01*
X0001814111Y0003583625D01*
X0001817153Y0003582077D01*
X0001870234Y0003570961D01*
X0001880341Y0003570902D01*
X0001880341Y0003705425D01*
X0001851821Y0003774269D01*
X0001782977Y0003802789D01*
X0001381186Y0003802789D01*
X0001381185Y0003802790D01*
X0001312341Y0003774270D01*
X0001283821Y0003705427D01*
X0001283821Y0003445712D01*
X0001312341Y0003376869D01*
X0001381185Y0003348348D01*
X0001692320Y0003348348D01*
X0001673537Y0003365765D01*
X0001633600Y0003433695D01*
X0001893504Y0003421115D01*
X0001874236Y0003391348D01*
X0001859176Y0003380923D01*
X0001845229Y0003386694D01*
X0001821708Y0003420228D01*
X0001850975Y0003379380D01*
X0001885435Y0003367720D01*
X0001915217Y0003386214D01*
X0001927538Y0003402827D01*
X0001950196Y0003377141D01*
X0001986586Y0003372016D01*
X0002030683Y0003418082D01*
X0001996164Y0003379233D01*
X0001984239Y0003381692D01*
X0001957295Y0003417161D01*
X0001893504Y0003421115D01*
X0001893504Y0003421115D01*
G37*
D33*
X0002000679Y0003437636D02*
X0002040049Y0003437636D01*
X0002040049Y0003437636D02*
X0002040049Y0003520313D01*
X0002000679Y0003437636D02*
X0002000679Y0003520313D01*
X0001787687Y0003436376D02*
X0001827057Y0003436376D01*
X0001827057Y0003436376D02*
X0001827057Y0003519053D01*
X0001787687Y0003436376D02*
X0001787687Y0003519053D01*
G04 next file*
G04 #@! TF.FileFunction,Legend,Top*
G04 Gerber Fmt 4.6, Leading zero omitted, Abs format (unit mm)*
G04 Created by KiCad (PCBNEW 4.0.4-stable) date 08/29/17 21:10:05*
G01G01*
G04 APERTURE LIST*
G04 APERTURE END LIST*
D34*
G36*
X0002011614Y0001491981D02*
X0001751710Y0001504561D01*
X0001757103Y0001572154D01*
X0001795689Y0001620472D01*
X0001801735Y0001624298D01*
X0001800093Y0001631265D01*
X0001793627Y0001673245D01*
X0001801000Y0001732043D01*
X0001853596Y0001751017D01*
X0001905301Y0001701517D01*
X0001930746Y0001657568D01*
X0001932221Y0001654491D01*
X0001935263Y0001652943D01*
X0001988345Y0001641827D01*
X0001998451Y0001641768D01*
X0001998451Y0001776291D01*
X0001969931Y0001845135D01*
X0001901088Y0001873655D01*
X0001499296Y0001873655D01*
X0001499295Y0001873657D01*
X0001430452Y0001845137D01*
X0001401932Y0001776293D01*
X0001401932Y0001516578D01*
X0001430452Y0001447735D01*
X0001499295Y0001419215D01*
X0001810430Y0001419215D01*
X0001791647Y0001436631D01*
X0001751710Y0001504561D01*
X0002011614Y0001491981D01*
X0001992346Y0001462214D01*
X0001977287Y0001451789D01*
X0001963339Y0001457560D01*
X0001939819Y0001491094D01*
X0001969086Y0001450246D01*
X0002003546Y0001438586D01*
X0002033327Y0001457080D01*
X0002045648Y0001473693D01*
X0002068306Y0001448007D01*
X0002104696Y0001442882D01*
X0002148793Y0001488948D01*
X0002114274Y0001450099D01*
X0002102350Y0001452558D01*
X0002075405Y0001488027D01*
X0002011614Y0001491981D01*
X0002011614Y0001491981D01*
G37*
D35*
X0002118789Y0001508502D02*
X0002158159Y0001508502D01*
X0002158159Y0001508502D02*
X0002158159Y0001591179D01*
X0002118789Y0001508502D02*
X0002118789Y0001591179D01*
X0001905797Y0001507242D02*
X0001945167Y0001507242D01*
X0001945167Y0001507242D02*
X0001945167Y0001589919D01*
X0001905797Y0001507242D02*
X0001905797Y0001589919D01*
G04 next file*
G04 #@! TF.FileFunction,Legend,Top*
G04 Gerber Fmt 4.6, Leading zero omitted, Abs format (unit mm)*
G04 Created by KiCad (PCBNEW 4.0.4-stable) date 08/29/17 21:10:05*
G01G01*
G04 APERTURE LIST*
G04 APERTURE END LIST*
D36*
G36*
X0001932874Y0002751823D02*
X0001672970Y0002764403D01*
X0001678363Y0002831997D01*
X0001716949Y0002880315D01*
X0001722994Y0002884141D01*
X0001721353Y0002891107D01*
X0001714887Y0002933087D01*
X0001722260Y0002991886D01*
X0001774856Y0003010860D01*
X0001826561Y0002961360D01*
X0001852006Y0002917411D01*
X0001853481Y0002914334D01*
X0001856523Y0002912786D01*
X0001909605Y0002901670D01*
X0001919711Y0002901611D01*
X0001919711Y0003036134D01*
X0001891191Y0003104978D01*
X0001822347Y0003133498D01*
X0001420556Y0003133498D01*
X0001420555Y0003133499D01*
X0001351711Y0003104979D01*
X0001323191Y0003036135D01*
X0001323191Y0002776421D01*
X0001351711Y0002707577D01*
X0001420555Y0002679057D01*
X0001731690Y0002679057D01*
X0001712907Y0002696473D01*
X0001672970Y0002764403D01*
X0001932874Y0002751823D01*
X0001913606Y0002722057D01*
X0001898546Y0002711631D01*
X0001884599Y0002717403D01*
X0001861078Y0002750937D01*
X0001890345Y0002710088D01*
X0001924805Y0002698429D01*
X0001954587Y0002716922D01*
X0001966908Y0002733535D01*
X0001989566Y0002707849D01*
X0002025956Y0002702725D01*
X0002070053Y0002748791D01*
X0002035534Y0002709941D01*
X0002023610Y0002712401D01*
X0001996665Y0002747870D01*
X0001932874Y0002751823D01*
X0001932874Y0002751823D01*
G37*
D37*
X0002040049Y0002768344D02*
X0002079419Y0002768344D01*
X0002079419Y0002768344D02*
X0002079419Y0002851022D01*
X0002040049Y0002768344D02*
X0002040049Y0002851022D01*
X0001827057Y0002767085D02*
X0001866427Y0002767085D01*
X0001866427Y0002767085D02*
X0001866427Y0002849762D01*
X0001827057Y0002767085D02*
X0001827057Y0002849762D01*
G04 next file*
G04 #@! TF.FileFunction,Legend,Top*
G04 Gerber Fmt 4.6, Leading zero omitted, Abs format (unit mm)*
G04 Created by KiCad (PCBNEW 4.0.4-stable) date 08/29/17 21:10:05*
G01G01*
G04 APERTURE LIST*
G04 APERTURE END LIST*
D38*
G36*
X0001972244Y0002121902D02*
X0001712340Y0002134482D01*
X0001717733Y0002202075D01*
X0001756319Y0002250394D01*
X0001762365Y0002254220D01*
X0001760723Y0002261186D01*
X0001754257Y0002303166D01*
X0001761630Y0002361965D01*
X0001814226Y0002380939D01*
X0001865931Y0002331439D01*
X0001891376Y0002287489D01*
X0001892851Y0002284413D01*
X0001895893Y0002282865D01*
X0001948975Y0002271749D01*
X0001959081Y0002271689D01*
X0001959081Y0002406213D01*
X0001930561Y0002475056D01*
X0001861717Y0002503577D01*
X0001459926Y0002503577D01*
X0001459925Y0002503578D01*
X0001391082Y0002475058D01*
X0001362561Y0002406214D01*
X0001362561Y0002146500D01*
X0001391082Y0002077656D01*
X0001459925Y0002049136D01*
X0001771060Y0002049136D01*
X0001752277Y0002066552D01*
X0001712340Y0002134482D01*
X0001972244Y0002121902D01*
X0001952976Y0002092135D01*
X0001937916Y0002081710D01*
X0001923969Y0002087481D01*
X0001900448Y0002121015D01*
X0001929715Y0002080167D01*
X0001964175Y0002068507D01*
X0001993957Y0002087001D01*
X0002006278Y0002103614D01*
X0002028936Y0002077928D01*
X0002065326Y0002072804D01*
X0002109423Y0002118870D01*
X0002074904Y0002080020D01*
X0002062980Y0002082479D01*
X0002036035Y0002117949D01*
X0001972244Y0002121902D01*
X0001972244Y0002121902D01*
G37*
D39*
X0002079419Y0002138423D02*
X0002118789Y0002138423D01*
X0002118789Y0002138423D02*
X0002118789Y0002221100D01*
X0002079419Y0002138423D02*
X0002079419Y0002221100D01*
X0001866427Y0002137163D02*
X0001905797Y0002137163D01*
X0001905797Y0002137163D02*
X0001905797Y0002219840D01*
X0001866427Y0002137163D02*
X0001866427Y0002219840D01*
G04 next file*
G04 #@! TF.FileFunction,Legend,Top*
G04 Gerber Fmt 4.6, Leading zero omitted, Abs format (unit mm)*
G04 Created by KiCad (PCBNEW 4.0.4-stable) date 08/29/17 21:10:05*
G01G01*
G04 APERTURE LIST*
G04 APERTURE END LIST*
D40*
G36*
X0002050984Y0000822689D02*
X0001791080Y0000835269D01*
X0001796473Y0000902863D01*
X0001835059Y0000951181D01*
X0001841105Y0000955007D01*
X0001839464Y0000961974D01*
X0001832997Y0001003954D01*
X0001840370Y0001062752D01*
X0001892966Y0001081726D01*
X0001944671Y0001032226D01*
X0001970116Y0000988277D01*
X0001971591Y0000985200D01*
X0001974633Y0000983652D01*
X0002027715Y0000972536D01*
X0002037822Y0000972477D01*
X0002037822Y0001107000D01*
X0002009301Y0001175844D01*
X0001940458Y0001204364D01*
X0001538666Y0001204364D01*
X0001538666Y0001204365D01*
X0001469822Y0001175845D01*
X0001441302Y0001107001D01*
X0001441302Y0000847287D01*
X0001469822Y0000778443D01*
X0001538666Y0000749923D01*
X0001849800Y0000749923D01*
X0001831018Y0000767339D01*
X0001791080Y0000835269D01*
X0002050984Y0000822689D01*
X0002031716Y0000792923D01*
X0002016657Y0000782498D01*
X0002002709Y0000788269D01*
X0001979189Y0000821803D01*
X0002008456Y0000780954D01*
X0002042916Y0000769295D01*
X0002072697Y0000787789D01*
X0002085018Y0000804401D01*
X0002107676Y0000778716D01*
X0002144066Y0000773591D01*
X0002188163Y0000819657D01*
X0002153644Y0000780807D01*
X0002141720Y0000783267D01*
X0002114775Y0000818736D01*
X0002050984Y0000822689D01*
X0002050984Y0000822689D01*
G37*
D41*
X0002158159Y0000839211D02*
X0002197529Y0000839211D01*
X0002197529Y0000839211D02*
X0002197529Y0000921888D01*
X0002158159Y0000839211D02*
X0002158159Y0000921888D01*
X0001945167Y0000837951D02*
X0001984537Y0000837951D01*
X0001984537Y0000837951D02*
X0001984537Y0000920628D01*
X0001945167Y0000837951D02*
X0001945167Y0000920628D01*
G04 next file*
G04 #@! TF.FileFunction,Legend,Top*
G04 Gerber Fmt 4.6, Leading zero omitted, Abs format (unit mm)*
G04 Created by KiCad (PCBNEW 4.0.4-stable) date 08/29/17 21:10:05*
G01G01*
G04 APERTURE LIST*
G04 APERTURE END LIST*
D42*
G36*
X0002090354Y0000192768D02*
X0001830450Y0000205348D01*
X0001835843Y0000272942D01*
X0001874429Y0000321260D01*
X0001880475Y0000325086D01*
X0001878834Y0000332052D01*
X0001872367Y0000374032D01*
X0001879740Y0000432831D01*
X0001932336Y0000451805D01*
X0001984041Y0000402305D01*
X0002009487Y0000358355D01*
X0002010961Y0000355279D01*
X0002014003Y0000353731D01*
X0002067085Y0000342615D01*
X0002077192Y0000342556D01*
X0002077192Y0000477079D01*
X0002048672Y0000545923D01*
X0001979828Y0000574443D01*
X0001578036Y0000574443D01*
X0001578036Y0000574444D01*
X0001509192Y0000545924D01*
X0001480672Y0000477080D01*
X0001480672Y0000217366D01*
X0001509192Y0000148522D01*
X0001578036Y0000120002D01*
X0001889171Y0000120002D01*
X0001870388Y0000137418D01*
X0001830450Y0000205348D01*
X0002090354Y0000192768D01*
X0002071086Y0000163001D01*
X0002056027Y0000152576D01*
X0002042079Y0000158347D01*
X0002018559Y0000191882D01*
X0002047826Y0000151033D01*
X0002082286Y0000139373D01*
X0002112067Y0000157867D01*
X0002124388Y0000174480D01*
X0002147046Y0000148794D01*
X0002183437Y0000143670D01*
X0002227533Y0000189736D01*
X0002193014Y0000150886D01*
X0002181090Y0000153346D01*
X0002154145Y0000188815D01*
X0002090354Y0000192768D01*
X0002090354Y0000192768D01*
G37*
D43*
X0002197529Y0000209289D02*
X0002236900Y0000209289D01*
X0002236900Y0000209289D02*
X0002236900Y0000291966D01*
X0002197529Y0000209289D02*
X0002197529Y0000291966D01*
X0001984537Y0000208029D02*
X0002023907Y0000208029D01*
X0002023907Y0000208029D02*
X0002023907Y0000290707D01*
X0001984537Y0000208029D02*
X0001984537Y0000290707D01*
G04 next file*
G04 #@! TF.FileFunction,Legend,Top*
G04 Gerber Fmt 4.6, Leading zero omitted, Abs format (unit mm)*
G04 Created by KiCad (PCBNEW 4.0.4-stable) date 08/29/17 21:10:05*
G01G01*
G04 APERTURE LIST*
G04 APERTURE END LIST*
D44*
G36*
X0002956496Y0003421115D02*
X0002696592Y0003433695D01*
X0002701985Y0003501288D01*
X0002740571Y0003549606D01*
X0002746617Y0003553432D01*
X0002744975Y0003560399D01*
X0002738509Y0003602379D01*
X0002745882Y0003661177D01*
X0002798478Y0003680151D01*
X0002850183Y0003630651D01*
X0002875628Y0003586702D01*
X0002877103Y0003583625D01*
X0002880145Y0003582077D01*
X0002933227Y0003570961D01*
X0002943333Y0003570902D01*
X0002943333Y0003705425D01*
X0002914813Y0003774269D01*
X0002845969Y0003802789D01*
X0002444178Y0003802789D01*
X0002444177Y0003802790D01*
X0002375334Y0003774270D01*
X0002346813Y0003705427D01*
X0002346813Y0003445712D01*
X0002375334Y0003376869D01*
X0002444177Y0003348348D01*
X0002755312Y0003348348D01*
X0002736529Y0003365765D01*
X0002696592Y0003433695D01*
X0002956496Y0003421115D01*
X0002937228Y0003391348D01*
X0002922168Y0003380923D01*
X0002908221Y0003386694D01*
X0002884700Y0003420228D01*
X0002913967Y0003379380D01*
X0002948427Y0003367720D01*
X0002978209Y0003386214D01*
X0002990530Y0003402827D01*
X0003013188Y0003377141D01*
X0003049578Y0003372016D01*
X0003093675Y0003418082D01*
X0003059156Y0003379233D01*
X0003047232Y0003381692D01*
X0003020287Y0003417161D01*
X0002956496Y0003421115D01*
X0002956496Y0003421115D01*
G37*
D45*
X0003063671Y0003437636D02*
X0003103041Y0003437636D01*
X0003103041Y0003437636D02*
X0003103041Y0003520313D01*
X0003063671Y0003437636D02*
X0003063671Y0003520313D01*
X0002850679Y0003436376D02*
X0002890049Y0003436376D01*
X0002890049Y0003436376D02*
X0002890049Y0003519053D01*
X0002850679Y0003436376D02*
X0002850679Y0003519053D01*
G04 next file*
G04 #@! TF.FileFunction,Legend,Top*
G04 Gerber Fmt 4.6, Leading zero omitted, Abs format (unit mm)*
G04 Created by KiCad (PCBNEW 4.0.4-stable) date 08/29/17 21:10:05*
G01G01*
G04 APERTURE LIST*
G04 APERTURE END LIST*
D46*
G36*
X0002995866Y0002791193D02*
X0002735962Y0002803773D01*
X0002741355Y0002871367D01*
X0002779941Y0002919685D01*
X0002785987Y0002923511D01*
X0002784345Y0002930478D01*
X0002777879Y0002972458D01*
X0002785252Y0003031256D01*
X0002837848Y0003050230D01*
X0002889553Y0003000730D01*
X0002914998Y0002956781D01*
X0002916473Y0002953704D01*
X0002919515Y0002952156D01*
X0002972597Y0002941040D01*
X0002982703Y0002940981D01*
X0002982703Y0003075504D01*
X0002954183Y0003144348D01*
X0002885340Y0003172868D01*
X0002483548Y0003172868D01*
X0002483547Y0003172869D01*
X0002414704Y0003144349D01*
X0002386183Y0003075505D01*
X0002386183Y0002815791D01*
X0002414704Y0002746947D01*
X0002483547Y0002718427D01*
X0002794682Y0002718427D01*
X0002775899Y0002735843D01*
X0002735962Y0002803773D01*
X0002995866Y0002791193D01*
X0002976598Y0002761427D01*
X0002961538Y0002751002D01*
X0002947591Y0002756773D01*
X0002924071Y0002790307D01*
X0002953338Y0002749458D01*
X0002987798Y0002737799D01*
X0003017579Y0002756293D01*
X0003029900Y0002772905D01*
X0003052558Y0002747220D01*
X0003088948Y0002742095D01*
X0003133045Y0002788161D01*
X0003098526Y0002749311D01*
X0003086602Y0002751771D01*
X0003059657Y0002787240D01*
X0002995866Y0002791193D01*
X0002995866Y0002791193D01*
G37*
D47*
X0003103041Y0002807714D02*
X0003142411Y0002807714D01*
X0003142411Y0002807714D02*
X0003142411Y0002890392D01*
X0003103041Y0002807714D02*
X0003103041Y0002890392D01*
X0002890049Y0002806455D02*
X0002929419Y0002806455D01*
X0002929419Y0002806455D02*
X0002929419Y0002889132D01*
X0002890049Y0002806455D02*
X0002890049Y0002889132D01*
G04 next file*
G04 #@! TF.FileFunction,Legend,Top*
G04 Gerber Fmt 4.6, Leading zero omitted, Abs format (unit mm)*
G04 Created by KiCad (PCBNEW 4.0.4-stable) date 08/29/17 21:10:05*
G01G01*
G04 APERTURE LIST*
G04 APERTURE END LIST*
D48*
G36*
X0003035236Y0002161272D02*
X0002775332Y0002173852D01*
X0002780725Y0002241446D01*
X0002819311Y0002289764D01*
X0002825357Y0002293590D01*
X0002823715Y0002300556D01*
X0002817249Y0002342536D01*
X0002824622Y0002401335D01*
X0002877218Y0002420309D01*
X0002928923Y0002370809D01*
X0002954368Y0002326859D01*
X0002955843Y0002323783D01*
X0002958885Y0002322235D01*
X0003011967Y0002311119D01*
X0003022074Y0002311059D01*
X0003022074Y0002445583D01*
X0002993553Y0002514426D01*
X0002924710Y0002542947D01*
X0002522918Y0002542947D01*
X0002522917Y0002542948D01*
X0002454074Y0002514428D01*
X0002425554Y0002445584D01*
X0002425554Y0002185870D01*
X0002454074Y0002117026D01*
X0002522917Y0002088506D01*
X0002834052Y0002088506D01*
X0002815270Y0002105922D01*
X0002775332Y0002173852D01*
X0003035236Y0002161272D01*
X0003015968Y0002131505D01*
X0003000909Y0002121080D01*
X0002986961Y0002126851D01*
X0002963441Y0002160385D01*
X0002992708Y0002119537D01*
X0003027168Y0002107877D01*
X0003056949Y0002126371D01*
X0003069270Y0002142984D01*
X0003091928Y0002117298D01*
X0003128318Y0002112174D01*
X0003172415Y0002158240D01*
X0003137896Y0002119390D01*
X0003125972Y0002121849D01*
X0003099027Y0002157319D01*
X0003035236Y0002161272D01*
X0003035236Y0002161272D01*
G37*
D49*
X0003142411Y0002177793D02*
X0003181781Y0002177793D01*
X0003181781Y0002177793D02*
X0003181781Y0002260470D01*
X0003142411Y0002177793D02*
X0003142411Y0002260470D01*
X0002929419Y0002176533D02*
X0002968789Y0002176533D01*
X0002968789Y0002176533D02*
X0002968789Y0002259211D01*
X0002929419Y0002176533D02*
X0002929419Y0002259211D01*
G04 next file*
G04 #@! TF.FileFunction,Legend,Top*
G04 Gerber Fmt 4.6, Leading zero omitted, Abs format (unit mm)*
G04 Created by KiCad (PCBNEW 4.0.4-stable) date 08/29/17 21:10:05*
G01G01*
G04 APERTURE LIST*
G04 APERTURE END LIST*
D50*
G36*
X0003074606Y0001491981D02*
X0002814702Y0001504561D01*
X0002820095Y0001572154D01*
X0002858681Y0001620472D01*
X0002864727Y0001624298D01*
X0002863086Y0001631265D01*
X0002856619Y0001673245D01*
X0002863992Y0001732043D01*
X0002916588Y0001751017D01*
X0002968293Y0001701517D01*
X0002993738Y0001657568D01*
X0002995213Y0001654491D01*
X0002998255Y0001652943D01*
X0003051337Y0001641827D01*
X0003061444Y0001641768D01*
X0003061444Y0001776291D01*
X0003032923Y0001845135D01*
X0002964080Y0001873655D01*
X0002562288Y0001873655D01*
X0002562288Y0001873657D01*
X0002493444Y0001845137D01*
X0002464924Y0001776293D01*
X0002464924Y0001516578D01*
X0002493444Y0001447735D01*
X0002562288Y0001419215D01*
X0002873423Y0001419215D01*
X0002854640Y0001436631D01*
X0002814702Y0001504561D01*
X0003074606Y0001491981D01*
X0003055338Y0001462214D01*
X0003040279Y0001451789D01*
X0003026331Y0001457560D01*
X0003002811Y0001491094D01*
X0003032078Y0001450246D01*
X0003066538Y0001438586D01*
X0003096319Y0001457080D01*
X0003108640Y0001473693D01*
X0003131298Y0001448007D01*
X0003167689Y0001442882D01*
X0003211785Y0001488948D01*
X0003177266Y0001450099D01*
X0003165342Y0001452558D01*
X0003138397Y0001488027D01*
X0003074606Y0001491981D01*
X0003074606Y0001491981D01*
G37*
D51*
X0003181781Y0001508502D02*
X0003221151Y0001508502D01*
X0003221151Y0001508502D02*
X0003221151Y0001591179D01*
X0003181781Y0001508502D02*
X0003181781Y0001591179D01*
X0002968789Y0001507242D02*
X0003008159Y0001507242D01*
X0003008159Y0001507242D02*
X0003008159Y0001589919D01*
X0002968789Y0001507242D02*
X0002968789Y0001589919D01*
G04 next file*
G04 #@! TF.FileFunction,Legend,Top*
G04 Gerber Fmt 4.6, Leading zero omitted, Abs format (unit mm)*
G04 Created by KiCad (PCBNEW 4.0.4-stable) date 08/29/17 21:10:05*
G01G01*
G04 APERTURE LIST*
G04 APERTURE END LIST*
D52*
G36*
X0003113976Y0000822689D02*
X0002854072Y0000835269D01*
X0002859465Y0000902863D01*
X0002898051Y0000951181D01*
X0002904097Y0000955007D01*
X0002902456Y0000961974D01*
X0002895989Y0001003954D01*
X0002903362Y0001062752D01*
X0002955958Y0001081726D01*
X0003007663Y0001032226D01*
X0003033109Y0000988277D01*
X0003034583Y0000985200D01*
X0003037626Y0000983652D01*
X0003090707Y0000972536D01*
X0003100814Y0000972477D01*
X0003100814Y0001107000D01*
X0003072294Y0001175844D01*
X0003003450Y0001204364D01*
X0002601658Y0001204364D01*
X0002601658Y0001204365D01*
X0002532814Y0001175845D01*
X0002504294Y0001107001D01*
X0002504294Y0000847287D01*
X0002532814Y0000778443D01*
X0002601658Y0000749923D01*
X0002912793Y0000749923D01*
X0002894010Y0000767339D01*
X0002854072Y0000835269D01*
X0003113976Y0000822689D01*
X0003094708Y0000792923D01*
X0003079649Y0000782498D01*
X0003065701Y0000788269D01*
X0003042181Y0000821803D01*
X0003071448Y0000780954D01*
X0003105908Y0000769295D01*
X0003135689Y0000787789D01*
X0003148010Y0000804401D01*
X0003170668Y0000778716D01*
X0003207059Y0000773591D01*
X0003251155Y0000819657D01*
X0003216636Y0000780807D01*
X0003204712Y0000783267D01*
X0003177767Y0000818736D01*
X0003113976Y0000822689D01*
X0003113976Y0000822689D01*
G37*
D53*
X0003221151Y0000839211D02*
X0003260522Y0000839211D01*
X0003260522Y0000839211D02*
X0003260522Y0000921888D01*
X0003221151Y0000839211D02*
X0003221151Y0000921888D01*
X0003008159Y0000837951D02*
X0003047529Y0000837951D01*
X0003047529Y0000837951D02*
X0003047529Y0000920628D01*
X0003008159Y0000837951D02*
X0003008159Y0000920628D01*
G04 next file*
G04 #@! TF.FileFunction,Legend,Top*
G04 Gerber Fmt 4.6, Leading zero omitted, Abs format (unit mm)*
G04 Created by KiCad (PCBNEW 4.0.4-stable) date 08/29/17 21:10:05*
G01G01*
G04 APERTURE LIST*
G04 APERTURE END LIST*
D54*
G36*
X0003153346Y0000192768D02*
X0002893442Y0000205348D01*
X0002898835Y0000272942D01*
X0002937421Y0000321260D01*
X0002943467Y0000325086D01*
X0002941826Y0000332052D01*
X0002935359Y0000374032D01*
X0002942732Y0000432831D01*
X0002995328Y0000451805D01*
X0003047033Y0000402305D01*
X0003072479Y0000358355D01*
X0003073953Y0000355279D01*
X0003076996Y0000353731D01*
X0003130077Y0000342615D01*
X0003140184Y0000342556D01*
X0003140184Y0000477079D01*
X0003111664Y0000545923D01*
X0003042820Y0000574443D01*
X0002641029Y0000574443D01*
X0002641028Y0000574444D01*
X0002572184Y0000545924D01*
X0002543664Y0000477080D01*
X0002543664Y0000217366D01*
X0002572184Y0000148522D01*
X0002641028Y0000120002D01*
X0002952163Y0000120002D01*
X0002933380Y0000137418D01*
X0002893442Y0000205348D01*
X0003153346Y0000192768D01*
X0003134078Y0000163001D01*
X0003119019Y0000152576D01*
X0003105071Y0000158347D01*
X0003081551Y0000191882D01*
X0003110818Y0000151033D01*
X0003145278Y0000139373D01*
X0003175059Y0000157867D01*
X0003187380Y0000174480D01*
X0003210038Y0000148794D01*
X0003246429Y0000143670D01*
X0003290525Y0000189736D01*
X0003256006Y0000150886D01*
X0003244082Y0000153346D01*
X0003217137Y0000188815D01*
X0003153346Y0000192768D01*
X0003153346Y0000192768D01*
G37*
D55*
X0003260522Y0000209289D02*
X0003299892Y0000209289D01*
X0003299892Y0000209289D02*
X0003299892Y0000291966D01*
X0003260522Y0000209289D02*
X0003260522Y0000291966D01*
X0003047529Y0000208029D02*
X0003086900Y0000208029D01*
X0003086900Y0000208029D02*
X0003086900Y0000290707D01*
X0003047529Y0000208029D02*
X0003047529Y0000290707D01*
M02*