%
M48
METRIC,000.000
T01C0.40
%
T01
X141950Y-001299
X142000Y006049
X142650Y008048
X144200Y000650
X146050Y-000049
X146750Y000400
X147450Y005349
X148250Y003349
X151750Y005750
X152150Y-003000
X152300Y000938
X157750Y000969
X140950Y015700
X141000Y023049
X141650Y025049
X143200Y017650
X145050Y016950
X145750Y017400
X146450Y022349
X147250Y020349
X150750Y022750
X151150Y014000
X151300Y017938
X156750Y017970
X142950Y-017299
X143000Y-009950
X143650Y-007950
X145200Y-015349
X147050Y-016049
X147750Y-015599
X148450Y-010650
X149250Y-012650
X152750Y-010250
X153150Y-019000
X153300Y-015061
X158750Y-015030
X143950Y-033300
X144000Y-025950
X144650Y-023950
X146200Y-031349
X148050Y-032049
X148750Y-031599
X149450Y-026650
X150250Y-028650
X153750Y-026250
X154150Y-035000
X154300Y-031061
X159750Y-031030
X144950Y-049300
X145000Y-041950
X145650Y-039950
X147200Y-047349
X149050Y-048050
X149750Y-047599
X150450Y-042650
X151250Y-044650
X154750Y-042250
X155150Y-051000
X155300Y-047062
X160750Y-047030
X145950Y-065300
X146000Y-057950
X146650Y-055950
X148200Y-063349
X150050Y-064050
X150750Y-063599
X151450Y-058650
X152250Y-060650
X155750Y-058250
X156150Y-067000
X156300Y-063062
X161750Y-063030
X167950Y015700
X168000Y023049
X168650Y025049
X170200Y017650
X172050Y016950
X172750Y017400
X173450Y022349
X174250Y020349
X177750Y022750
X178150Y014000
X178300Y017938
X183750Y017970
X170950Y-033300
X171000Y-025950
X171650Y-023950
X173200Y-031349
X175050Y-032049
X175750Y-031599
X176450Y-026650
X177250Y-028650
X180750Y-026250
X181150Y-035000
X181300Y-031061
X186750Y-031030
X168950Y-001299
X169000Y006049
X169650Y008048
X171200Y000650
X173050Y-000049
X173750Y000400
X174450Y005349
X175250Y003349
X178750Y005750
X179150Y-003000
X179300Y000938
X184750Y000969
X169950Y-017299
X170000Y-009950
X170650Y-007950
X172200Y-015349
X174050Y-016049
X174750Y-015599
X175450Y-010650
X176250Y-012650
X179750Y-010250
X180150Y-019000
X180300Y-015061
X185750Y-015030
X171950Y-050300
X172000Y-042950
X172650Y-040950
X174200Y-048349
X176050Y-049050
X176750Y-048599
X177450Y-043650
X178250Y-045650
X181750Y-043250
X182150Y-052000
X182300Y-048062
X187750Y-048030
X172950Y-066300
X173000Y-058950
X173650Y-056950
X175200Y-064349
X177050Y-065050
X177750Y-064599
X178450Y-059650
X179250Y-061650
X182750Y-059250
X183150Y-068000
X183300Y-064062
X188750Y-064030
X194950Y015700
X195000Y023049
X195650Y025049
X197200Y017650
X199050Y016950
X199750Y017400
X200450Y022349
X201250Y020349
X204750Y022750
X205150Y014000
X205300Y017938
X210750Y017970
X195950Y-000299
X196000Y007049
X196650Y009049
X198200Y001650
X200050Y000950
X200750Y001400
X201450Y006349
X202250Y004349
X205750Y006750
X206150Y-002000
X206300Y001938
X211750Y001969
X196950Y-016299
X197000Y-008950
X197650Y-006950
X199200Y-014349
X201050Y-015049
X201750Y-014599
X202450Y-009650
X203250Y-011650
X206750Y-009250
X207150Y-018000
X207300Y-014061
X212750Y-014030
X197950Y-033300
X198000Y-025950
X198650Y-023950
X200200Y-031349
X202050Y-032049
X202750Y-031599
X203450Y-026650
X204250Y-028650
X207750Y-026250
X208150Y-035000
X208300Y-031061
X213750Y-031030
X198950Y-050300
X199000Y-042950
X199650Y-040950
X201200Y-048349
X203050Y-049050
X203750Y-048599
X204450Y-043650
X205250Y-045650
X208750Y-043250
X209150Y-052000
X209300Y-048062
X214750Y-048030
X199950Y-066300
X200000Y-058950
X200650Y-056950
X202200Y-064349
X204050Y-065050
X204750Y-064599
X205450Y-059650
X206250Y-061650
X209750Y-059250
X210150Y-068000
X210300Y-064062
X215750Y-064030
M30