%MOIN*%
%OFA0B0*%
%FSLAX46Y46*%
%IPPOS*%
%LPD*%
%ADD10C,0.0039370078740157488*%
%ADD11C,0.0018812204724409449*%
%ADD12R,0.047244094488188976X0.047244094488188976*%
%ADD23C,0.0039370078740157488*%
%ADD24C,0.0018812204724409449*%
%ADD25R,0.047244094488188976X0.047244094488188976*%
%ADD26C,0.0039370078740157488*%
%ADD27C,0.0018812204724409449*%
%ADD28R,0.047244094488188976X0.047244094488188976*%
%ADD29C,0.0039370078740157488*%
%ADD30C,0.0018812204724409449*%
%ADD31R,0.047244094488188976X0.047244094488188976*%
%ADD32C,0.0039370078740157488*%
%ADD33C,0.0018812204724409449*%
%ADD34R,0.047244094488188976X0.047244094488188976*%
%ADD35C,0.0039370078740157488*%
%ADD36C,0.0018812204724409449*%
%ADD37R,0.047244094488188976X0.047244094488188976*%
%ADD38C,0.0039370078740157488*%
%ADD39C,0.0018812204724409449*%
%ADD40R,0.047244094488188976X0.047244094488188976*%
%ADD41C,0.0039370078740157488*%
%ADD42C,0.0018812204724409449*%
%ADD43R,0.047244094488188976X0.047244094488188976*%
%ADD44C,0.0039370078740157488*%
%ADD45C,0.0018812204724409449*%
%ADD46R,0.047244094488188976X0.047244094488188976*%
%ADD47C,0.0039370078740157488*%
%ADD48C,0.0018812204724409449*%
%ADD49R,0.047244094488188976X0.047244094488188976*%
%ADD50C,0.0039370078740157488*%
%ADD51C,0.0018812204724409449*%
%ADD52R,0.047244094488188976X0.047244094488188976*%
%ADD53C,0.0039370078740157488*%
%ADD54C,0.0018812204724409449*%
%ADD55R,0.047244094488188976X0.047244094488188976*%
%ADD56C,0.0039370078740157488*%
%ADD57C,0.0018812204724409449*%
%ADD58R,0.047244094488188976X0.047244094488188976*%
%ADD59C,0.0039370078740157488*%
%ADD60C,0.0018812204724409449*%
%ADD61R,0.047244094488188976X0.047244094488188976*%
%ADD62C,0.0039370078740157488*%
%ADD63C,0.0018812204724409449*%
%ADD64R,0.047244094488188976X0.047244094488188976*%
%ADD65C,0.0039370078740157488*%
%ADD66C,0.0018812204724409449*%
%ADD67R,0.047244094488188976X0.047244094488188976*%
%ADD68C,0.0039370078740157488*%
%ADD69C,0.0018812204724409449*%
%ADD70R,0.047244094488188976X0.047244094488188976*%
%ADD71C,0.0039370078740157488*%
%ADD72C,0.0018812204724409449*%
%ADD73R,0.047244094488188976X0.047244094488188976*%
G01G01*
D10*
D11*
G36*
X0000310082Y0003174705D02*
X0000232934Y0003142849D01*
X0000201078Y0003065701D01*
X0000201078Y0002847522D01*
X0000187047Y0002854517D01*
X0000117725Y0002878817D01*
X0000053028Y0002854028D01*
X0000088091Y0002794279D01*
X0000157417Y0002769979D01*
X0000201078Y0002771728D01*
X0000201078Y0002741477D01*
X0000211865Y0002693995D01*
X0000182971Y0002638876D01*
X0000198099Y0002571269D01*
X0000262311Y0002597283D01*
X0000282583Y0002635951D01*
X0000310082Y0002632473D01*
X0000333592Y0002632473D01*
X0000358622Y0002584741D01*
X0000422829Y0002558727D01*
X0000437962Y0002626334D01*
X0000434743Y0002632472D01*
X0000701419Y0002632472D01*
X0000695383Y0002620960D01*
X0000710511Y0002553348D01*
X0000774724Y0002579362D01*
X0000802565Y0002632472D01*
X0000808155Y0002632472D01*
X0000831543Y0002630939D01*
X0000856700Y0002582948D01*
X0000920912Y0002556934D01*
X0000936040Y0002624541D01*
X0000933056Y0002630234D01*
X0000995710Y0002640806D01*
X0001055422Y0002686603D01*
X0001092286Y0002756141D01*
X0001096066Y0002828112D01*
X0001056523Y0002881208D01*
X0001064121Y0002977489D01*
X0001003314Y0003025632D01*
X0000955171Y0002990520D01*
X0000920672Y0002936449D01*
X0000920672Y0003065701D01*
X0000888815Y0003142849D01*
X0000811667Y0003174705D01*
X0000310082Y0003174705D01*
X0000310082Y0003174705D01*
X0000310082Y0003174705D01*
G37*
X0000310082Y0003174705D02*
X0000232934Y0003142849D01*
X0000201078Y0003065701D01*
X0000201078Y0002847522D01*
X0000187047Y0002854517D01*
X0000117725Y0002878817D01*
X0000053028Y0002854028D01*
X0000088091Y0002794279D01*
X0000157417Y0002769979D01*
X0000201078Y0002771728D01*
X0000201078Y0002741477D01*
X0000211865Y0002693995D01*
X0000182971Y0002638876D01*
X0000198099Y0002571269D01*
X0000262311Y0002597283D01*
X0000282583Y0002635951D01*
X0000310082Y0002632473D01*
X0000333592Y0002632473D01*
X0000358622Y0002584741D01*
X0000422829Y0002558727D01*
X0000437962Y0002626334D01*
X0000434743Y0002632472D01*
X0000701419Y0002632472D01*
X0000695383Y0002620960D01*
X0000710511Y0002553348D01*
X0000774724Y0002579362D01*
X0000802565Y0002632472D01*
X0000808155Y0002632472D01*
X0000831543Y0002630939D01*
X0000856700Y0002582948D01*
X0000920912Y0002556934D01*
X0000936040Y0002624541D01*
X0000933056Y0002630234D01*
X0000995710Y0002640806D01*
X0001055422Y0002686603D01*
X0001092286Y0002756141D01*
X0001096066Y0002828112D01*
X0001056523Y0002881208D01*
X0001064121Y0002977489D01*
X0001003314Y0003025632D01*
X0000955171Y0002990520D01*
X0000920672Y0002936449D01*
X0000920672Y0003065701D01*
X0000888815Y0003142849D01*
X0000811667Y0003174705D01*
X0000310082Y0003174705D01*
X0000310082Y0003174705D01*
D12*
X0000996742Y0002851022D03*
X0000996742Y0002788029D03*
X0000783750Y0002849762D03*
X0000783750Y0002786770D03*
G04 next file*
G04 #@! TF.FileFunction,Soldermask,Top*
G04 Gerber Fmt 4.6, Leading zero omitted, Abs format (unit mm)*
G04 Created by KiCad (PCBNEW 4.0.4-stable) date 08/29/17 21:10:05*
G01G01*
G04 APERTURE LIST*
G04 APERTURE END LIST*
D23*
D24*
G36*
X0000270712Y0003843996D02*
X0000193564Y0003812140D01*
X0000161707Y0003734992D01*
X0000161707Y0003516813D01*
X0000147677Y0003523809D01*
X0000078355Y0003548108D01*
X0000013658Y0003523319D01*
X0000048721Y0003463570D01*
X0000118047Y0003439271D01*
X0000161708Y0003441020D01*
X0000161708Y0003410768D01*
X0000172495Y0003363286D01*
X0000143601Y0003308167D01*
X0000158729Y0003240560D01*
X0000222941Y0003266574D01*
X0000243213Y0003305242D01*
X0000270712Y0003301764D01*
X0000294222Y0003301764D01*
X0000319251Y0003254032D01*
X0000383459Y0003228018D01*
X0000398592Y0003295625D01*
X0000395373Y0003301764D01*
X0000662049Y0003301764D01*
X0000656013Y0003290251D01*
X0000671141Y0003222639D01*
X0000735353Y0003248653D01*
X0000763195Y0003301764D01*
X0000768785Y0003301764D01*
X0000792173Y0003300230D01*
X0000817330Y0003252239D01*
X0000881542Y0003226225D01*
X0000896670Y0003293832D01*
X0000893686Y0003299525D01*
X0000956340Y0003310097D01*
X0001016052Y0003355894D01*
X0001052916Y0003425432D01*
X0001056696Y0003497403D01*
X0001017152Y0003550499D01*
X0001024751Y0003646780D01*
X0000963944Y0003694923D01*
X0000915801Y0003659812D01*
X0000881302Y0003605741D01*
X0000881302Y0003734992D01*
X0000849445Y0003812140D01*
X0000772297Y0003843997D01*
X0000270712Y0003843997D01*
X0000270712Y0003843996D01*
X0000270712Y0003843996D01*
G37*
X0000270712Y0003843996D02*
X0000193564Y0003812140D01*
X0000161707Y0003734992D01*
X0000161707Y0003516813D01*
X0000147677Y0003523809D01*
X0000078355Y0003548108D01*
X0000013658Y0003523319D01*
X0000048721Y0003463570D01*
X0000118047Y0003439271D01*
X0000161708Y0003441020D01*
X0000161708Y0003410768D01*
X0000172495Y0003363286D01*
X0000143601Y0003308167D01*
X0000158729Y0003240560D01*
X0000222941Y0003266574D01*
X0000243213Y0003305242D01*
X0000270712Y0003301764D01*
X0000294222Y0003301764D01*
X0000319251Y0003254032D01*
X0000383459Y0003228018D01*
X0000398592Y0003295625D01*
X0000395373Y0003301764D01*
X0000662049Y0003301764D01*
X0000656013Y0003290251D01*
X0000671141Y0003222639D01*
X0000735353Y0003248653D01*
X0000763195Y0003301764D01*
X0000768785Y0003301764D01*
X0000792173Y0003300230D01*
X0000817330Y0003252239D01*
X0000881542Y0003226225D01*
X0000896670Y0003293832D01*
X0000893686Y0003299525D01*
X0000956340Y0003310097D01*
X0001016052Y0003355894D01*
X0001052916Y0003425432D01*
X0001056696Y0003497403D01*
X0001017152Y0003550499D01*
X0001024751Y0003646780D01*
X0000963944Y0003694923D01*
X0000915801Y0003659812D01*
X0000881302Y0003605741D01*
X0000881302Y0003734992D01*
X0000849445Y0003812140D01*
X0000772297Y0003843997D01*
X0000270712Y0003843997D01*
X0000270712Y0003843996D01*
D25*
X0000957372Y0003520313D03*
X0000957372Y0003457321D03*
X0000744380Y0003519053D03*
X0000744380Y0003456061D03*
G04 next file*
G04 #@! TF.FileFunction,Soldermask,Top*
G04 Gerber Fmt 4.6, Leading zero omitted, Abs format (unit mm)*
G04 Created by KiCad (PCBNEW 4.0.4-stable) date 08/29/17 21:10:05*
G01G01*
G04 APERTURE LIST*
G04 APERTURE END LIST*
D26*
D27*
G36*
X0000349452Y0002544784D02*
X0000272304Y0002512927D01*
X0000240448Y0002435780D01*
X0000240448Y0002217600D01*
X0000226417Y0002224596D01*
X0000157095Y0002248895D01*
X0000092398Y0002224106D01*
X0000127461Y0002164357D01*
X0000196787Y0002140058D01*
X0000240448Y0002141807D01*
X0000240448Y0002111555D01*
X0000251235Y0002064074D01*
X0000222341Y0002008954D01*
X0000237469Y0001941347D01*
X0000301681Y0001967361D01*
X0000321953Y0002006030D01*
X0000349452Y0002002551D01*
X0000372962Y0002002551D01*
X0000397992Y0001954820D01*
X0000462199Y0001928806D01*
X0000477332Y0001996413D01*
X0000474113Y0002002551D01*
X0000740789Y0002002551D01*
X0000734753Y0001991038D01*
X0000749882Y0001923427D01*
X0000814094Y0001949441D01*
X0000841935Y0002002551D01*
X0000847525Y0002002551D01*
X0000870913Y0002001018D01*
X0000896070Y0001953027D01*
X0000960282Y0001927013D01*
X0000975410Y0001994620D01*
X0000972426Y0002000312D01*
X0001035081Y0002010885D01*
X0001094792Y0002056681D01*
X0001131656Y0002126219D01*
X0001135436Y0002198190D01*
X0001095893Y0002251286D01*
X0001103491Y0002347568D01*
X0001042684Y0002395711D01*
X0000994541Y0002360599D01*
X0000960042Y0002306528D01*
X0000960042Y0002435780D01*
X0000928185Y0002512927D01*
X0000851038Y0002544784D01*
X0000349452Y0002544784D01*
X0000349452Y0002544784D01*
X0000349452Y0002544784D01*
G37*
X0000349452Y0002544784D02*
X0000272304Y0002512927D01*
X0000240448Y0002435780D01*
X0000240448Y0002217600D01*
X0000226417Y0002224596D01*
X0000157095Y0002248895D01*
X0000092398Y0002224106D01*
X0000127461Y0002164357D01*
X0000196787Y0002140058D01*
X0000240448Y0002141807D01*
X0000240448Y0002111555D01*
X0000251235Y0002064074D01*
X0000222341Y0002008954D01*
X0000237469Y0001941347D01*
X0000301681Y0001967361D01*
X0000321953Y0002006030D01*
X0000349452Y0002002551D01*
X0000372962Y0002002551D01*
X0000397992Y0001954820D01*
X0000462199Y0001928806D01*
X0000477332Y0001996413D01*
X0000474113Y0002002551D01*
X0000740789Y0002002551D01*
X0000734753Y0001991038D01*
X0000749882Y0001923427D01*
X0000814094Y0001949441D01*
X0000841935Y0002002551D01*
X0000847525Y0002002551D01*
X0000870913Y0002001018D01*
X0000896070Y0001953027D01*
X0000960282Y0001927013D01*
X0000975410Y0001994620D01*
X0000972426Y0002000312D01*
X0001035081Y0002010885D01*
X0001094792Y0002056681D01*
X0001131656Y0002126219D01*
X0001135436Y0002198190D01*
X0001095893Y0002251286D01*
X0001103491Y0002347568D01*
X0001042684Y0002395711D01*
X0000994541Y0002360599D01*
X0000960042Y0002306528D01*
X0000960042Y0002435780D01*
X0000928185Y0002512927D01*
X0000851038Y0002544784D01*
X0000349452Y0002544784D01*
X0000349452Y0002544784D01*
D28*
X0001036112Y0002221100D03*
X0001036112Y0002158108D03*
X0000823120Y0002219840D03*
X0000823120Y0002156848D03*
G04 next file*
G04 #@! TF.FileFunction,Soldermask,Top*
G04 Gerber Fmt 4.6, Leading zero omitted, Abs format (unit mm)*
G04 Created by KiCad (PCBNEW 4.0.4-stable) date 08/29/17 21:10:05*
G01G01*
G04 APERTURE LIST*
G04 APERTURE END LIST*
D29*
D30*
G36*
X0000388822Y0001914863D02*
X0000311674Y0001883006D01*
X0000279818Y0001805858D01*
X0000279818Y0001587679D01*
X0000265787Y0001594675D01*
X0000196465Y0001618974D01*
X0000131768Y0001594185D01*
X0000166831Y0001534436D01*
X0000236157Y0001510137D01*
X0000279818Y0001511886D01*
X0000279818Y0001481634D01*
X0000290606Y0001434152D01*
X0000261711Y0001379033D01*
X0000276839Y0001311426D01*
X0000341051Y0001337440D01*
X0000361323Y0001376108D01*
X0000388822Y0001372630D01*
X0000412332Y0001372630D01*
X0000437362Y0001324898D01*
X0000501569Y0001298884D01*
X0000516702Y0001366492D01*
X0000513483Y0001372630D01*
X0000780159Y0001372630D01*
X0000774123Y0001361117D01*
X0000789252Y0001293505D01*
X0000853464Y0001319519D01*
X0000881305Y0001372630D01*
X0000886895Y0001372630D01*
X0000910283Y0001371097D01*
X0000935440Y0001323105D01*
X0000999652Y0001297092D01*
X0001014780Y0001364698D01*
X0001011797Y0001370391D01*
X0001074451Y0001380963D01*
X0001134162Y0001426760D01*
X0001171026Y0001496298D01*
X0001174806Y0001568269D01*
X0001135263Y0001621365D01*
X0001142861Y0001717646D01*
X0001082054Y0001765789D01*
X0001033911Y0001730678D01*
X0000999412Y0001676607D01*
X0000999412Y0001805859D01*
X0000967555Y0001883006D01*
X0000890408Y0001914863D01*
X0000388822Y0001914863D01*
X0000388822Y0001914863D01*
X0000388822Y0001914863D01*
G37*
X0000388822Y0001914863D02*
X0000311674Y0001883006D01*
X0000279818Y0001805858D01*
X0000279818Y0001587679D01*
X0000265787Y0001594675D01*
X0000196465Y0001618974D01*
X0000131768Y0001594185D01*
X0000166831Y0001534436D01*
X0000236157Y0001510137D01*
X0000279818Y0001511886D01*
X0000279818Y0001481634D01*
X0000290606Y0001434152D01*
X0000261711Y0001379033D01*
X0000276839Y0001311426D01*
X0000341051Y0001337440D01*
X0000361323Y0001376108D01*
X0000388822Y0001372630D01*
X0000412332Y0001372630D01*
X0000437362Y0001324898D01*
X0000501569Y0001298884D01*
X0000516702Y0001366492D01*
X0000513483Y0001372630D01*
X0000780159Y0001372630D01*
X0000774123Y0001361117D01*
X0000789252Y0001293505D01*
X0000853464Y0001319519D01*
X0000881305Y0001372630D01*
X0000886895Y0001372630D01*
X0000910283Y0001371097D01*
X0000935440Y0001323105D01*
X0000999652Y0001297092D01*
X0001014780Y0001364698D01*
X0001011797Y0001370391D01*
X0001074451Y0001380963D01*
X0001134162Y0001426760D01*
X0001171026Y0001496298D01*
X0001174806Y0001568269D01*
X0001135263Y0001621365D01*
X0001142861Y0001717646D01*
X0001082054Y0001765789D01*
X0001033911Y0001730678D01*
X0000999412Y0001676607D01*
X0000999412Y0001805859D01*
X0000967555Y0001883006D01*
X0000890408Y0001914863D01*
X0000388822Y0001914863D01*
X0000388822Y0001914863D01*
D31*
X0001075482Y0001591179D03*
X0001075482Y0001528187D03*
X0000862490Y0001589919D03*
X0000862490Y0001526927D03*
G04 next file*
G04 #@! TF.FileFunction,Soldermask,Top*
G04 Gerber Fmt 4.6, Leading zero omitted, Abs format (unit mm)*
G04 Created by KiCad (PCBNEW 4.0.4-stable) date 08/29/17 21:10:05*
G01G01*
G04 APERTURE LIST*
G04 APERTURE END LIST*
D32*
D33*
G36*
X0000428192Y0001284941D02*
X0000351044Y0001253085D01*
X0000319188Y0001175937D01*
X0000319188Y0000957758D01*
X0000305157Y0000964754D01*
X0000235835Y0000989053D01*
X0000171138Y0000964264D01*
X0000206201Y0000904515D01*
X0000275527Y0000880216D01*
X0000319188Y0000881965D01*
X0000319188Y0000851713D01*
X0000329976Y0000804231D01*
X0000301081Y0000749112D01*
X0000316209Y0000681505D01*
X0000380421Y0000707519D01*
X0000400694Y0000746187D01*
X0000428192Y0000742709D01*
X0000451702Y0000742709D01*
X0000476732Y0000694977D01*
X0000540939Y0000668963D01*
X0000556072Y0000736570D01*
X0000552853Y0000742709D01*
X0000819529Y0000742709D01*
X0000813493Y0000731196D01*
X0000828622Y0000663584D01*
X0000892834Y0000689598D01*
X0000920675Y0000742709D01*
X0000926265Y0000742709D01*
X0000949653Y0000741175D01*
X0000974810Y0000693184D01*
X0001039022Y0000667170D01*
X0001054150Y0000734777D01*
X0001051167Y0000740470D01*
X0001113821Y0000751042D01*
X0001173532Y0000796839D01*
X0001210397Y0000866377D01*
X0001214176Y0000938348D01*
X0001174633Y0000991444D01*
X0001182231Y0001087725D01*
X0001121424Y0001135868D01*
X0001073281Y0001100757D01*
X0001038782Y0001046686D01*
X0001038782Y0001175937D01*
X0001006925Y0001253085D01*
X0000929778Y0001284941D01*
X0000428192Y0001284941D01*
X0000428192Y0001284941D01*
X0000428192Y0001284941D01*
G37*
X0000428192Y0001284941D02*
X0000351044Y0001253085D01*
X0000319188Y0001175937D01*
X0000319188Y0000957758D01*
X0000305157Y0000964754D01*
X0000235835Y0000989053D01*
X0000171138Y0000964264D01*
X0000206201Y0000904515D01*
X0000275527Y0000880216D01*
X0000319188Y0000881965D01*
X0000319188Y0000851713D01*
X0000329976Y0000804231D01*
X0000301081Y0000749112D01*
X0000316209Y0000681505D01*
X0000380421Y0000707519D01*
X0000400694Y0000746187D01*
X0000428192Y0000742709D01*
X0000451702Y0000742709D01*
X0000476732Y0000694977D01*
X0000540939Y0000668963D01*
X0000556072Y0000736570D01*
X0000552853Y0000742709D01*
X0000819529Y0000742709D01*
X0000813493Y0000731196D01*
X0000828622Y0000663584D01*
X0000892834Y0000689598D01*
X0000920675Y0000742709D01*
X0000926265Y0000742709D01*
X0000949653Y0000741175D01*
X0000974810Y0000693184D01*
X0001039022Y0000667170D01*
X0001054150Y0000734777D01*
X0001051167Y0000740470D01*
X0001113821Y0000751042D01*
X0001173532Y0000796839D01*
X0001210397Y0000866377D01*
X0001214176Y0000938348D01*
X0001174633Y0000991444D01*
X0001182231Y0001087725D01*
X0001121424Y0001135868D01*
X0001073281Y0001100757D01*
X0001038782Y0001046686D01*
X0001038782Y0001175937D01*
X0001006925Y0001253085D01*
X0000929778Y0001284941D01*
X0000428192Y0001284941D01*
X0000428192Y0001284941D01*
D34*
X0001114852Y0000961258D03*
X0001114852Y0000898266D03*
X0000901860Y0000959998D03*
X0000901860Y0000897006D03*
G04 next file*
G04 #@! TF.FileFunction,Soldermask,Top*
G04 Gerber Fmt 4.6, Leading zero omitted, Abs format (unit mm)*
G04 Created by KiCad (PCBNEW 4.0.4-stable) date 08/29/17 21:10:05*
G01G01*
G04 APERTURE LIST*
G04 APERTURE END LIST*
D35*
D36*
G36*
X0000467562Y0000655020D02*
X0000390414Y0000623163D01*
X0000358558Y0000546016D01*
X0000358558Y0000327837D01*
X0000344527Y0000334832D01*
X0000275205Y0000359132D01*
X0000210508Y0000334342D01*
X0000245571Y0000274594D01*
X0000314897Y0000250294D01*
X0000358558Y0000252043D01*
X0000358558Y0000221792D01*
X0000369346Y0000174310D01*
X0000340451Y0000119191D01*
X0000355579Y0000051584D01*
X0000419791Y0000077598D01*
X0000440064Y0000116266D01*
X0000467562Y0000112787D01*
X0000491073Y0000112787D01*
X0000516102Y0000065056D01*
X0000580309Y0000039042D01*
X0000595442Y0000106649D01*
X0000592223Y0000112787D01*
X0000858899Y0000112787D01*
X0000852863Y0000101275D01*
X0000867992Y0000033663D01*
X0000932204Y0000059677D01*
X0000960045Y0000112787D01*
X0000965635Y0000112787D01*
X0000989023Y0000111254D01*
X0001014180Y0000063263D01*
X0001078392Y0000037249D01*
X0001093520Y0000104856D01*
X0001090537Y0000110549D01*
X0001153191Y0000121121D01*
X0001212902Y0000166918D01*
X0001249767Y0000236456D01*
X0001253546Y0000308427D01*
X0001214003Y0000361522D01*
X0001221601Y0000457804D01*
X0001160794Y0000505947D01*
X0001112652Y0000470835D01*
X0001078152Y0000416764D01*
X0001078152Y0000546016D01*
X0001046295Y0000623164D01*
X0000969148Y0000655020D01*
X0000467562Y0000655020D01*
X0000467562Y0000655020D01*
X0000467562Y0000655020D01*
G37*
X0000467562Y0000655020D02*
X0000390414Y0000623163D01*
X0000358558Y0000546016D01*
X0000358558Y0000327837D01*
X0000344527Y0000334832D01*
X0000275205Y0000359132D01*
X0000210508Y0000334342D01*
X0000245571Y0000274594D01*
X0000314897Y0000250294D01*
X0000358558Y0000252043D01*
X0000358558Y0000221792D01*
X0000369346Y0000174310D01*
X0000340451Y0000119191D01*
X0000355579Y0000051584D01*
X0000419791Y0000077598D01*
X0000440064Y0000116266D01*
X0000467562Y0000112787D01*
X0000491073Y0000112787D01*
X0000516102Y0000065056D01*
X0000580309Y0000039042D01*
X0000595442Y0000106649D01*
X0000592223Y0000112787D01*
X0000858899Y0000112787D01*
X0000852863Y0000101275D01*
X0000867992Y0000033663D01*
X0000932204Y0000059677D01*
X0000960045Y0000112787D01*
X0000965635Y0000112787D01*
X0000989023Y0000111254D01*
X0001014180Y0000063263D01*
X0001078392Y0000037249D01*
X0001093520Y0000104856D01*
X0001090537Y0000110549D01*
X0001153191Y0000121121D01*
X0001212902Y0000166918D01*
X0001249767Y0000236456D01*
X0001253546Y0000308427D01*
X0001214003Y0000361522D01*
X0001221601Y0000457804D01*
X0001160794Y0000505947D01*
X0001112652Y0000470835D01*
X0001078152Y0000416764D01*
X0001078152Y0000546016D01*
X0001046295Y0000623164D01*
X0000969148Y0000655020D01*
X0000467562Y0000655020D01*
X0000467562Y0000655020D01*
D37*
X0001154222Y0000331337D03*
X0001154222Y0000268344D03*
X0000941230Y0000330077D03*
X0000941230Y0000267085D03*
G04 next file*
G04 #@! TF.FileFunction,Soldermask,Top*
G04 Gerber Fmt 4.6, Leading zero omitted, Abs format (unit mm)*
G04 Created by KiCad (PCBNEW 4.0.4-stable) date 08/29/17 21:10:05*
G01G01*
G04 APERTURE LIST*
G04 APERTURE END LIST*
D38*
D39*
G36*
X0001333704Y0003843996D02*
X0001256556Y0003812140D01*
X0001224700Y0003734992D01*
X0001224700Y0003516813D01*
X0001210669Y0003523809D01*
X0001141347Y0003548108D01*
X0001076650Y0003523319D01*
X0001111713Y0003463570D01*
X0001181039Y0003439271D01*
X0001224700Y0003441020D01*
X0001224700Y0003410768D01*
X0001235487Y0003363286D01*
X0001206593Y0003308167D01*
X0001221721Y0003240560D01*
X0001285933Y0003266574D01*
X0001306205Y0003305242D01*
X0001333704Y0003301764D01*
X0001357214Y0003301764D01*
X0001382244Y0003254032D01*
X0001446451Y0003228018D01*
X0001461584Y0003295625D01*
X0001458365Y0003301764D01*
X0001725041Y0003301764D01*
X0001719005Y0003290251D01*
X0001734134Y0003222639D01*
X0001798346Y0003248653D01*
X0001826187Y0003301764D01*
X0001831777Y0003301764D01*
X0001855165Y0003300230D01*
X0001880322Y0003252239D01*
X0001944534Y0003226225D01*
X0001959662Y0003293832D01*
X0001956678Y0003299525D01*
X0002019333Y0003310097D01*
X0002079044Y0003355894D01*
X0002115908Y0003425432D01*
X0002119688Y0003497403D01*
X0002080145Y0003550499D01*
X0002087743Y0003646780D01*
X0002026936Y0003694923D01*
X0001978793Y0003659812D01*
X0001944294Y0003605741D01*
X0001944294Y0003734992D01*
X0001912437Y0003812140D01*
X0001835290Y0003843997D01*
X0001333704Y0003843997D01*
X0001333704Y0003843996D01*
X0001333704Y0003843996D01*
G37*
X0001333704Y0003843996D02*
X0001256556Y0003812140D01*
X0001224700Y0003734992D01*
X0001224700Y0003516813D01*
X0001210669Y0003523809D01*
X0001141347Y0003548108D01*
X0001076650Y0003523319D01*
X0001111713Y0003463570D01*
X0001181039Y0003439271D01*
X0001224700Y0003441020D01*
X0001224700Y0003410768D01*
X0001235487Y0003363286D01*
X0001206593Y0003308167D01*
X0001221721Y0003240560D01*
X0001285933Y0003266574D01*
X0001306205Y0003305242D01*
X0001333704Y0003301764D01*
X0001357214Y0003301764D01*
X0001382244Y0003254032D01*
X0001446451Y0003228018D01*
X0001461584Y0003295625D01*
X0001458365Y0003301764D01*
X0001725041Y0003301764D01*
X0001719005Y0003290251D01*
X0001734134Y0003222639D01*
X0001798346Y0003248653D01*
X0001826187Y0003301764D01*
X0001831777Y0003301764D01*
X0001855165Y0003300230D01*
X0001880322Y0003252239D01*
X0001944534Y0003226225D01*
X0001959662Y0003293832D01*
X0001956678Y0003299525D01*
X0002019333Y0003310097D01*
X0002079044Y0003355894D01*
X0002115908Y0003425432D01*
X0002119688Y0003497403D01*
X0002080145Y0003550499D01*
X0002087743Y0003646780D01*
X0002026936Y0003694923D01*
X0001978793Y0003659812D01*
X0001944294Y0003605741D01*
X0001944294Y0003734992D01*
X0001912437Y0003812140D01*
X0001835290Y0003843997D01*
X0001333704Y0003843997D01*
X0001333704Y0003843996D01*
D40*
X0002020364Y0003520313D03*
X0002020364Y0003457321D03*
X0001807372Y0003519053D03*
X0001807372Y0003456061D03*
G04 next file*
G04 #@! TF.FileFunction,Soldermask,Top*
G04 Gerber Fmt 4.6, Leading zero omitted, Abs format (unit mm)*
G04 Created by KiCad (PCBNEW 4.0.4-stable) date 08/29/17 21:10:05*
G01G01*
G04 APERTURE LIST*
G04 APERTURE END LIST*
D41*
D42*
G36*
X0001451814Y0001914863D02*
X0001374666Y0001883006D01*
X0001342810Y0001805858D01*
X0001342810Y0001587679D01*
X0001328779Y0001594675D01*
X0001259457Y0001618974D01*
X0001194760Y0001594185D01*
X0001229823Y0001534436D01*
X0001299149Y0001510137D01*
X0001342810Y0001511886D01*
X0001342810Y0001481634D01*
X0001353598Y0001434152D01*
X0001324703Y0001379033D01*
X0001339831Y0001311426D01*
X0001404043Y0001337440D01*
X0001424316Y0001376108D01*
X0001451814Y0001372630D01*
X0001475325Y0001372630D01*
X0001500354Y0001324898D01*
X0001564561Y0001298884D01*
X0001579694Y0001366492D01*
X0001576475Y0001372630D01*
X0001843151Y0001372630D01*
X0001837115Y0001361117D01*
X0001852244Y0001293505D01*
X0001916456Y0001319519D01*
X0001944297Y0001372630D01*
X0001949887Y0001372630D01*
X0001973275Y0001371097D01*
X0001998432Y0001323105D01*
X0002062644Y0001297092D01*
X0002077772Y0001364698D01*
X0002074789Y0001370391D01*
X0002137443Y0001380963D01*
X0002197154Y0001426760D01*
X0002234019Y0001496298D01*
X0002237798Y0001568269D01*
X0002198255Y0001621365D01*
X0002205853Y0001717646D01*
X0002145046Y0001765789D01*
X0002096903Y0001730678D01*
X0002062404Y0001676607D01*
X0002062404Y0001805859D01*
X0002030547Y0001883006D01*
X0001953400Y0001914863D01*
X0001451814Y0001914863D01*
X0001451814Y0001914863D01*
X0001451814Y0001914863D01*
G37*
X0001451814Y0001914863D02*
X0001374666Y0001883006D01*
X0001342810Y0001805858D01*
X0001342810Y0001587679D01*
X0001328779Y0001594675D01*
X0001259457Y0001618974D01*
X0001194760Y0001594185D01*
X0001229823Y0001534436D01*
X0001299149Y0001510137D01*
X0001342810Y0001511886D01*
X0001342810Y0001481634D01*
X0001353598Y0001434152D01*
X0001324703Y0001379033D01*
X0001339831Y0001311426D01*
X0001404043Y0001337440D01*
X0001424316Y0001376108D01*
X0001451814Y0001372630D01*
X0001475325Y0001372630D01*
X0001500354Y0001324898D01*
X0001564561Y0001298884D01*
X0001579694Y0001366492D01*
X0001576475Y0001372630D01*
X0001843151Y0001372630D01*
X0001837115Y0001361117D01*
X0001852244Y0001293505D01*
X0001916456Y0001319519D01*
X0001944297Y0001372630D01*
X0001949887Y0001372630D01*
X0001973275Y0001371097D01*
X0001998432Y0001323105D01*
X0002062644Y0001297092D01*
X0002077772Y0001364698D01*
X0002074789Y0001370391D01*
X0002137443Y0001380963D01*
X0002197154Y0001426760D01*
X0002234019Y0001496298D01*
X0002237798Y0001568269D01*
X0002198255Y0001621365D01*
X0002205853Y0001717646D01*
X0002145046Y0001765789D01*
X0002096903Y0001730678D01*
X0002062404Y0001676607D01*
X0002062404Y0001805859D01*
X0002030547Y0001883006D01*
X0001953400Y0001914863D01*
X0001451814Y0001914863D01*
X0001451814Y0001914863D01*
D43*
X0002138474Y0001591179D03*
X0002138474Y0001528187D03*
X0001925482Y0001589919D03*
X0001925482Y0001526927D03*
G04 next file*
G04 #@! TF.FileFunction,Soldermask,Top*
G04 Gerber Fmt 4.6, Leading zero omitted, Abs format (unit mm)*
G04 Created by KiCad (PCBNEW 4.0.4-stable) date 08/29/17 21:10:05*
G01G01*
G04 APERTURE LIST*
G04 APERTURE END LIST*
D44*
D45*
G36*
X0001373074Y0003174705D02*
X0001295926Y0003142849D01*
X0001264070Y0003065701D01*
X0001264070Y0002847522D01*
X0001250039Y0002854517D01*
X0001180717Y0002878817D01*
X0001116020Y0002854028D01*
X0001151083Y0002794279D01*
X0001220409Y0002769979D01*
X0001264070Y0002771728D01*
X0001264070Y0002741477D01*
X0001274857Y0002693995D01*
X0001245963Y0002638876D01*
X0001261091Y0002571269D01*
X0001325303Y0002597283D01*
X0001345575Y0002635951D01*
X0001373074Y0002632473D01*
X0001396584Y0002632473D01*
X0001421614Y0002584741D01*
X0001485821Y0002558727D01*
X0001500954Y0002626334D01*
X0001497735Y0002632472D01*
X0001764411Y0002632472D01*
X0001758375Y0002620960D01*
X0001773504Y0002553348D01*
X0001837716Y0002579362D01*
X0001865557Y0002632472D01*
X0001871147Y0002632472D01*
X0001894535Y0002630939D01*
X0001919692Y0002582948D01*
X0001983904Y0002556934D01*
X0001999032Y0002624541D01*
X0001996049Y0002630234D01*
X0002058703Y0002640806D01*
X0002118414Y0002686603D01*
X0002155278Y0002756141D01*
X0002159058Y0002828112D01*
X0002119515Y0002881208D01*
X0002127113Y0002977489D01*
X0002066306Y0003025632D01*
X0002018163Y0002990520D01*
X0001983664Y0002936449D01*
X0001983664Y0003065701D01*
X0001951807Y0003142849D01*
X0001874660Y0003174705D01*
X0001373074Y0003174705D01*
X0001373074Y0003174705D01*
X0001373074Y0003174705D01*
G37*
X0001373074Y0003174705D02*
X0001295926Y0003142849D01*
X0001264070Y0003065701D01*
X0001264070Y0002847522D01*
X0001250039Y0002854517D01*
X0001180717Y0002878817D01*
X0001116020Y0002854028D01*
X0001151083Y0002794279D01*
X0001220409Y0002769979D01*
X0001264070Y0002771728D01*
X0001264070Y0002741477D01*
X0001274857Y0002693995D01*
X0001245963Y0002638876D01*
X0001261091Y0002571269D01*
X0001325303Y0002597283D01*
X0001345575Y0002635951D01*
X0001373074Y0002632473D01*
X0001396584Y0002632473D01*
X0001421614Y0002584741D01*
X0001485821Y0002558727D01*
X0001500954Y0002626334D01*
X0001497735Y0002632472D01*
X0001764411Y0002632472D01*
X0001758375Y0002620960D01*
X0001773504Y0002553348D01*
X0001837716Y0002579362D01*
X0001865557Y0002632472D01*
X0001871147Y0002632472D01*
X0001894535Y0002630939D01*
X0001919692Y0002582948D01*
X0001983904Y0002556934D01*
X0001999032Y0002624541D01*
X0001996049Y0002630234D01*
X0002058703Y0002640806D01*
X0002118414Y0002686603D01*
X0002155278Y0002756141D01*
X0002159058Y0002828112D01*
X0002119515Y0002881208D01*
X0002127113Y0002977489D01*
X0002066306Y0003025632D01*
X0002018163Y0002990520D01*
X0001983664Y0002936449D01*
X0001983664Y0003065701D01*
X0001951807Y0003142849D01*
X0001874660Y0003174705D01*
X0001373074Y0003174705D01*
X0001373074Y0003174705D01*
D46*
X0002059734Y0002851022D03*
X0002059734Y0002788029D03*
X0001846742Y0002849762D03*
X0001846742Y0002786770D03*
G04 next file*
G04 #@! TF.FileFunction,Soldermask,Top*
G04 Gerber Fmt 4.6, Leading zero omitted, Abs format (unit mm)*
G04 Created by KiCad (PCBNEW 4.0.4-stable) date 08/29/17 21:10:05*
G01G01*
G04 APERTURE LIST*
G04 APERTURE END LIST*
D47*
D48*
G36*
X0001412444Y0002544784D02*
X0001335296Y0002512927D01*
X0001303440Y0002435780D01*
X0001303440Y0002217600D01*
X0001289409Y0002224596D01*
X0001220087Y0002248895D01*
X0001155390Y0002224106D01*
X0001190453Y0002164357D01*
X0001259779Y0002140058D01*
X0001303440Y0002141807D01*
X0001303440Y0002111555D01*
X0001314228Y0002064074D01*
X0001285333Y0002008954D01*
X0001300461Y0001941347D01*
X0001364673Y0001967361D01*
X0001384946Y0002006030D01*
X0001412444Y0002002551D01*
X0001435954Y0002002551D01*
X0001460984Y0001954820D01*
X0001525191Y0001928806D01*
X0001540324Y0001996413D01*
X0001537105Y0002002551D01*
X0001803781Y0002002551D01*
X0001797745Y0001991038D01*
X0001812874Y0001923427D01*
X0001877086Y0001949441D01*
X0001904927Y0002002551D01*
X0001910517Y0002002551D01*
X0001933905Y0002001018D01*
X0001959062Y0001953027D01*
X0002023274Y0001927013D01*
X0002038402Y0001994620D01*
X0002035419Y0002000312D01*
X0002098073Y0002010885D01*
X0002157784Y0002056681D01*
X0002194648Y0002126219D01*
X0002198428Y0002198190D01*
X0002158885Y0002251286D01*
X0002166483Y0002347568D01*
X0002105676Y0002395711D01*
X0002057533Y0002360599D01*
X0002023034Y0002306528D01*
X0002023034Y0002435780D01*
X0001991177Y0002512927D01*
X0001914030Y0002544784D01*
X0001412444Y0002544784D01*
X0001412444Y0002544784D01*
X0001412444Y0002544784D01*
G37*
X0001412444Y0002544784D02*
X0001335296Y0002512927D01*
X0001303440Y0002435780D01*
X0001303440Y0002217600D01*
X0001289409Y0002224596D01*
X0001220087Y0002248895D01*
X0001155390Y0002224106D01*
X0001190453Y0002164357D01*
X0001259779Y0002140058D01*
X0001303440Y0002141807D01*
X0001303440Y0002111555D01*
X0001314228Y0002064074D01*
X0001285333Y0002008954D01*
X0001300461Y0001941347D01*
X0001364673Y0001967361D01*
X0001384946Y0002006030D01*
X0001412444Y0002002551D01*
X0001435954Y0002002551D01*
X0001460984Y0001954820D01*
X0001525191Y0001928806D01*
X0001540324Y0001996413D01*
X0001537105Y0002002551D01*
X0001803781Y0002002551D01*
X0001797745Y0001991038D01*
X0001812874Y0001923427D01*
X0001877086Y0001949441D01*
X0001904927Y0002002551D01*
X0001910517Y0002002551D01*
X0001933905Y0002001018D01*
X0001959062Y0001953027D01*
X0002023274Y0001927013D01*
X0002038402Y0001994620D01*
X0002035419Y0002000312D01*
X0002098073Y0002010885D01*
X0002157784Y0002056681D01*
X0002194648Y0002126219D01*
X0002198428Y0002198190D01*
X0002158885Y0002251286D01*
X0002166483Y0002347568D01*
X0002105676Y0002395711D01*
X0002057533Y0002360599D01*
X0002023034Y0002306528D01*
X0002023034Y0002435780D01*
X0001991177Y0002512927D01*
X0001914030Y0002544784D01*
X0001412444Y0002544784D01*
X0001412444Y0002544784D01*
D49*
X0002099104Y0002221100D03*
X0002099104Y0002158108D03*
X0001886112Y0002219840D03*
X0001886112Y0002156848D03*
G04 next file*
G04 #@! TF.FileFunction,Soldermask,Top*
G04 Gerber Fmt 4.6, Leading zero omitted, Abs format (unit mm)*
G04 Created by KiCad (PCBNEW 4.0.4-stable) date 08/29/17 21:10:05*
G01G01*
G04 APERTURE LIST*
G04 APERTURE END LIST*
D50*
D51*
G36*
X0001491184Y0001245571D02*
X0001414036Y0001213715D01*
X0001382180Y0001136567D01*
X0001382180Y0000918388D01*
X0001368149Y0000925384D01*
X0001298827Y0000949683D01*
X0001234130Y0000924894D01*
X0001269193Y0000865145D01*
X0001338520Y0000840845D01*
X0001382180Y0000842594D01*
X0001382180Y0000812343D01*
X0001392968Y0000764861D01*
X0001364073Y0000709742D01*
X0001379201Y0000642135D01*
X0001443413Y0000668149D01*
X0001463686Y0000706817D01*
X0001491184Y0000703339D01*
X0001514695Y0000703339D01*
X0001539724Y0000655607D01*
X0001603931Y0000629593D01*
X0001619064Y0000697200D01*
X0001615845Y0000703339D01*
X0001882521Y0000703339D01*
X0001876486Y0000691826D01*
X0001891614Y0000624214D01*
X0001955826Y0000650228D01*
X0001983667Y0000703339D01*
X0001989257Y0000703339D01*
X0002012645Y0000701805D01*
X0002037802Y0000653814D01*
X0002102014Y0000627800D01*
X0002117142Y0000695407D01*
X0002114159Y0000701100D01*
X0002176813Y0000711672D01*
X0002236524Y0000757469D01*
X0002273389Y0000827007D01*
X0002277168Y0000898978D01*
X0002237625Y0000952074D01*
X0002245223Y0001048355D01*
X0002184416Y0001096498D01*
X0002136274Y0001061386D01*
X0002101774Y0001007315D01*
X0002101774Y0001136567D01*
X0002069917Y0001213715D01*
X0001992770Y0001245571D01*
X0001491184Y0001245571D01*
X0001491184Y0001245571D01*
X0001491184Y0001245571D01*
G37*
X0001491184Y0001245571D02*
X0001414036Y0001213715D01*
X0001382180Y0001136567D01*
X0001382180Y0000918388D01*
X0001368149Y0000925384D01*
X0001298827Y0000949683D01*
X0001234130Y0000924894D01*
X0001269193Y0000865145D01*
X0001338520Y0000840845D01*
X0001382180Y0000842594D01*
X0001382180Y0000812343D01*
X0001392968Y0000764861D01*
X0001364073Y0000709742D01*
X0001379201Y0000642135D01*
X0001443413Y0000668149D01*
X0001463686Y0000706817D01*
X0001491184Y0000703339D01*
X0001514695Y0000703339D01*
X0001539724Y0000655607D01*
X0001603931Y0000629593D01*
X0001619064Y0000697200D01*
X0001615845Y0000703339D01*
X0001882521Y0000703339D01*
X0001876486Y0000691826D01*
X0001891614Y0000624214D01*
X0001955826Y0000650228D01*
X0001983667Y0000703339D01*
X0001989257Y0000703339D01*
X0002012645Y0000701805D01*
X0002037802Y0000653814D01*
X0002102014Y0000627800D01*
X0002117142Y0000695407D01*
X0002114159Y0000701100D01*
X0002176813Y0000711672D01*
X0002236524Y0000757469D01*
X0002273389Y0000827007D01*
X0002277168Y0000898978D01*
X0002237625Y0000952074D01*
X0002245223Y0001048355D01*
X0002184416Y0001096498D01*
X0002136274Y0001061386D01*
X0002101774Y0001007315D01*
X0002101774Y0001136567D01*
X0002069917Y0001213715D01*
X0001992770Y0001245571D01*
X0001491184Y0001245571D01*
X0001491184Y0001245571D01*
D52*
X0002177844Y0000921888D03*
X0002177844Y0000858896D03*
X0001964852Y0000920628D03*
X0001964852Y0000857636D03*
G04 next file*
G04 #@! TF.FileFunction,Soldermask,Top*
G04 Gerber Fmt 4.6, Leading zero omitted, Abs format (unit mm)*
G04 Created by KiCad (PCBNEW 4.0.4-stable) date 08/29/17 21:10:05*
G01G01*
G04 APERTURE LIST*
G04 APERTURE END LIST*
D53*
D54*
G36*
X0001530554Y0000615650D02*
X0001453407Y0000583793D01*
X0001421550Y0000506646D01*
X0001421550Y0000288467D01*
X0001407519Y0000295462D01*
X0001338197Y0000319762D01*
X0001273500Y0000294972D01*
X0001308563Y0000235223D01*
X0001377890Y0000210924D01*
X0001421550Y0000212673D01*
X0001421550Y0000182421D01*
X0001432338Y0000134940D01*
X0001403443Y0000079821D01*
X0001418571Y0000012213D01*
X0001482783Y0000038227D01*
X0001503056Y0000076896D01*
X0001530554Y0000073417D01*
X0001554065Y0000073417D01*
X0001579094Y0000025686D01*
X0001643301Y-0000000327D01*
X0001658434Y0000067279D01*
X0001655216Y0000073417D01*
X0001921891Y0000073417D01*
X0001915856Y0000061905D01*
X0001930984Y-0000005706D01*
X0001995196Y0000020307D01*
X0002023037Y0000073417D01*
X0002028627Y0000073417D01*
X0002052015Y0000071884D01*
X0002077172Y0000023893D01*
X0002141384Y-0000002120D01*
X0002156512Y0000065486D01*
X0002153529Y0000071179D01*
X0002216183Y0000081751D01*
X0002275894Y0000127547D01*
X0002312759Y0000197085D01*
X0002316538Y0000269057D01*
X0002276995Y0000322152D01*
X0002284593Y0000418434D01*
X0002223786Y0000466577D01*
X0002175644Y0000431465D01*
X0002141144Y0000377394D01*
X0002141144Y0000506646D01*
X0002109287Y0000583794D01*
X0002032140Y0000615650D01*
X0001530554Y0000615650D01*
X0001530554Y0000615650D01*
X0001530554Y0000615650D01*
G37*
X0001530554Y0000615650D02*
X0001453407Y0000583793D01*
X0001421550Y0000506646D01*
X0001421550Y0000288467D01*
X0001407519Y0000295462D01*
X0001338197Y0000319762D01*
X0001273500Y0000294972D01*
X0001308563Y0000235223D01*
X0001377890Y0000210924D01*
X0001421550Y0000212673D01*
X0001421550Y0000182421D01*
X0001432338Y0000134940D01*
X0001403443Y0000079821D01*
X0001418571Y0000012213D01*
X0001482783Y0000038227D01*
X0001503056Y0000076896D01*
X0001530554Y0000073417D01*
X0001554065Y0000073417D01*
X0001579094Y0000025686D01*
X0001643301Y-0000000327D01*
X0001658434Y0000067279D01*
X0001655216Y0000073417D01*
X0001921891Y0000073417D01*
X0001915856Y0000061905D01*
X0001930984Y-0000005706D01*
X0001995196Y0000020307D01*
X0002023037Y0000073417D01*
X0002028627Y0000073417D01*
X0002052015Y0000071884D01*
X0002077172Y0000023893D01*
X0002141384Y-0000002120D01*
X0002156512Y0000065486D01*
X0002153529Y0000071179D01*
X0002216183Y0000081751D01*
X0002275894Y0000127547D01*
X0002312759Y0000197085D01*
X0002316538Y0000269057D01*
X0002276995Y0000322152D01*
X0002284593Y0000418434D01*
X0002223786Y0000466577D01*
X0002175644Y0000431465D01*
X0002141144Y0000377394D01*
X0002141144Y0000506646D01*
X0002109287Y0000583794D01*
X0002032140Y0000615650D01*
X0001530554Y0000615650D01*
X0001530554Y0000615650D01*
D55*
X0002217214Y0000291966D03*
X0002217214Y0000228974D03*
X0002004222Y0000290707D03*
X0002004222Y0000227714D03*
G04 next file*
G04 #@! TF.FileFunction,Soldermask,Top*
G04 Gerber Fmt 4.6, Leading zero omitted, Abs format (unit mm)*
G04 Created by KiCad (PCBNEW 4.0.4-stable) date 08/29/17 21:10:05*
G01G01*
G04 APERTURE LIST*
G04 APERTURE END LIST*
D56*
D57*
G36*
X0002396696Y0003843996D02*
X0002319548Y0003812140D01*
X0002287692Y0003734992D01*
X0002287692Y0003516813D01*
X0002273661Y0003523809D01*
X0002204339Y0003548108D01*
X0002139642Y0003523319D01*
X0002174705Y0003463570D01*
X0002244031Y0003439271D01*
X0002287692Y0003441020D01*
X0002287692Y0003410768D01*
X0002298480Y0003363286D01*
X0002269585Y0003308167D01*
X0002284713Y0003240560D01*
X0002348925Y0003266574D01*
X0002369197Y0003305242D01*
X0002396696Y0003301764D01*
X0002420206Y0003301764D01*
X0002445236Y0003254032D01*
X0002509443Y0003228018D01*
X0002524576Y0003295625D01*
X0002521357Y0003301764D01*
X0002788033Y0003301764D01*
X0002781997Y0003290251D01*
X0002797126Y0003222639D01*
X0002861338Y0003248653D01*
X0002889179Y0003301764D01*
X0002894769Y0003301764D01*
X0002918157Y0003300230D01*
X0002943314Y0003252239D01*
X0003007526Y0003226225D01*
X0003022654Y0003293832D01*
X0003019671Y0003299525D01*
X0003082325Y0003310097D01*
X0003142036Y0003355894D01*
X0003178900Y0003425432D01*
X0003182680Y0003497403D01*
X0003143137Y0003550499D01*
X0003150735Y0003646780D01*
X0003089928Y0003694923D01*
X0003041785Y0003659812D01*
X0003007286Y0003605741D01*
X0003007286Y0003734992D01*
X0002975429Y0003812140D01*
X0002898282Y0003843997D01*
X0002396696Y0003843997D01*
X0002396696Y0003843996D01*
X0002396696Y0003843996D01*
G37*
X0002396696Y0003843996D02*
X0002319548Y0003812140D01*
X0002287692Y0003734992D01*
X0002287692Y0003516813D01*
X0002273661Y0003523809D01*
X0002204339Y0003548108D01*
X0002139642Y0003523319D01*
X0002174705Y0003463570D01*
X0002244031Y0003439271D01*
X0002287692Y0003441020D01*
X0002287692Y0003410768D01*
X0002298480Y0003363286D01*
X0002269585Y0003308167D01*
X0002284713Y0003240560D01*
X0002348925Y0003266574D01*
X0002369197Y0003305242D01*
X0002396696Y0003301764D01*
X0002420206Y0003301764D01*
X0002445236Y0003254032D01*
X0002509443Y0003228018D01*
X0002524576Y0003295625D01*
X0002521357Y0003301764D01*
X0002788033Y0003301764D01*
X0002781997Y0003290251D01*
X0002797126Y0003222639D01*
X0002861338Y0003248653D01*
X0002889179Y0003301764D01*
X0002894769Y0003301764D01*
X0002918157Y0003300230D01*
X0002943314Y0003252239D01*
X0003007526Y0003226225D01*
X0003022654Y0003293832D01*
X0003019671Y0003299525D01*
X0003082325Y0003310097D01*
X0003142036Y0003355894D01*
X0003178900Y0003425432D01*
X0003182680Y0003497403D01*
X0003143137Y0003550499D01*
X0003150735Y0003646780D01*
X0003089928Y0003694923D01*
X0003041785Y0003659812D01*
X0003007286Y0003605741D01*
X0003007286Y0003734992D01*
X0002975429Y0003812140D01*
X0002898282Y0003843997D01*
X0002396696Y0003843997D01*
X0002396696Y0003843996D01*
D58*
X0003083356Y0003520313D03*
X0003083356Y0003457321D03*
X0002870364Y0003519053D03*
X0002870364Y0003456061D03*
G04 next file*
G04 #@! TF.FileFunction,Soldermask,Top*
G04 Gerber Fmt 4.6, Leading zero omitted, Abs format (unit mm)*
G04 Created by KiCad (PCBNEW 4.0.4-stable) date 08/29/17 21:10:05*
G01G01*
G04 APERTURE LIST*
G04 APERTURE END LIST*
D59*
D60*
G36*
X0002436066Y0003214075D02*
X0002358918Y0003182219D01*
X0002327062Y0003105071D01*
X0002327062Y0002886892D01*
X0002313031Y0002893888D01*
X0002243709Y0002918187D01*
X0002179012Y0002893398D01*
X0002214075Y0002833649D01*
X0002283401Y0002809349D01*
X0002327062Y0002811098D01*
X0002327062Y0002780847D01*
X0002337850Y0002733365D01*
X0002308955Y0002678246D01*
X0002324083Y0002610639D01*
X0002388295Y0002636653D01*
X0002408568Y0002675321D01*
X0002436066Y0002671843D01*
X0002459577Y0002671843D01*
X0002484606Y0002624111D01*
X0002548813Y0002598097D01*
X0002563946Y0002665704D01*
X0002560727Y0002671843D01*
X0002827403Y0002671843D01*
X0002821367Y0002660330D01*
X0002836496Y0002592718D01*
X0002900708Y0002618732D01*
X0002928549Y0002671843D01*
X0002934139Y0002671843D01*
X0002957527Y0002670309D01*
X0002982684Y0002622318D01*
X0003046896Y0002596304D01*
X0003062024Y0002663911D01*
X0003059041Y0002669604D01*
X0003121695Y0002680176D01*
X0003181406Y0002725973D01*
X0003218271Y0002795511D01*
X0003222050Y0002867482D01*
X0003182507Y0002920578D01*
X0003190105Y0003016859D01*
X0003129298Y0003065002D01*
X0003081155Y0003029890D01*
X0003046656Y0002975819D01*
X0003046656Y0003105071D01*
X0003014799Y0003182219D01*
X0002937652Y0003214075D01*
X0002436066Y0003214075D01*
X0002436066Y0003214075D01*
X0002436066Y0003214075D01*
G37*
X0002436066Y0003214075D02*
X0002358918Y0003182219D01*
X0002327062Y0003105071D01*
X0002327062Y0002886892D01*
X0002313031Y0002893888D01*
X0002243709Y0002918187D01*
X0002179012Y0002893398D01*
X0002214075Y0002833649D01*
X0002283401Y0002809349D01*
X0002327062Y0002811098D01*
X0002327062Y0002780847D01*
X0002337850Y0002733365D01*
X0002308955Y0002678246D01*
X0002324083Y0002610639D01*
X0002388295Y0002636653D01*
X0002408568Y0002675321D01*
X0002436066Y0002671843D01*
X0002459577Y0002671843D01*
X0002484606Y0002624111D01*
X0002548813Y0002598097D01*
X0002563946Y0002665704D01*
X0002560727Y0002671843D01*
X0002827403Y0002671843D01*
X0002821367Y0002660330D01*
X0002836496Y0002592718D01*
X0002900708Y0002618732D01*
X0002928549Y0002671843D01*
X0002934139Y0002671843D01*
X0002957527Y0002670309D01*
X0002982684Y0002622318D01*
X0003046896Y0002596304D01*
X0003062024Y0002663911D01*
X0003059041Y0002669604D01*
X0003121695Y0002680176D01*
X0003181406Y0002725973D01*
X0003218271Y0002795511D01*
X0003222050Y0002867482D01*
X0003182507Y0002920578D01*
X0003190105Y0003016859D01*
X0003129298Y0003065002D01*
X0003081155Y0003029890D01*
X0003046656Y0002975819D01*
X0003046656Y0003105071D01*
X0003014799Y0003182219D01*
X0002937652Y0003214075D01*
X0002436066Y0003214075D01*
X0002436066Y0003214075D01*
D61*
X0003122726Y0002890392D03*
X0003122726Y0002827400D03*
X0002909734Y0002889132D03*
X0002909734Y0002826140D03*
G04 next file*
G04 #@! TF.FileFunction,Soldermask,Top*
G04 Gerber Fmt 4.6, Leading zero omitted, Abs format (unit mm)*
G04 Created by KiCad (PCBNEW 4.0.4-stable) date 08/29/17 21:10:05*
G01G01*
G04 APERTURE LIST*
G04 APERTURE END LIST*
D62*
D63*
G36*
X0002475436Y0002584154D02*
X0002398288Y0002552297D01*
X0002366432Y0002475150D01*
X0002366432Y0002256970D01*
X0002352401Y0002263966D01*
X0002283079Y0002288266D01*
X0002218382Y0002263476D01*
X0002253445Y0002203727D01*
X0002322772Y0002179428D01*
X0002366432Y0002181177D01*
X0002366432Y0002150925D01*
X0002377220Y0002103444D01*
X0002348325Y0002048324D01*
X0002363453Y0001980717D01*
X0002427665Y0002006731D01*
X0002447938Y0002045400D01*
X0002475436Y0002041921D01*
X0002498947Y0002041921D01*
X0002523976Y0001994190D01*
X0002588183Y0001968176D01*
X0002603316Y0002035783D01*
X0002600097Y0002041921D01*
X0002866773Y0002041921D01*
X0002860737Y0002030409D01*
X0002875866Y0001962797D01*
X0002940078Y0001988811D01*
X0002967919Y0002041921D01*
X0002973509Y0002041921D01*
X0002996897Y0002040388D01*
X0003022054Y0001992397D01*
X0003086266Y0001966383D01*
X0003101394Y0002033990D01*
X0003098411Y0002039683D01*
X0003161065Y0002050255D01*
X0003220776Y0002096051D01*
X0003257641Y0002165589D01*
X0003261420Y0002237560D01*
X0003221877Y0002290656D01*
X0003229475Y0002386938D01*
X0003168668Y0002435081D01*
X0003120526Y0002399969D01*
X0003086026Y0002345898D01*
X0003086026Y0002475150D01*
X0003054169Y0002552297D01*
X0002977022Y0002584154D01*
X0002475436Y0002584154D01*
X0002475436Y0002584154D01*
X0002475436Y0002584154D01*
G37*
X0002475436Y0002584154D02*
X0002398288Y0002552297D01*
X0002366432Y0002475150D01*
X0002366432Y0002256970D01*
X0002352401Y0002263966D01*
X0002283079Y0002288266D01*
X0002218382Y0002263476D01*
X0002253445Y0002203727D01*
X0002322772Y0002179428D01*
X0002366432Y0002181177D01*
X0002366432Y0002150925D01*
X0002377220Y0002103444D01*
X0002348325Y0002048324D01*
X0002363453Y0001980717D01*
X0002427665Y0002006731D01*
X0002447938Y0002045400D01*
X0002475436Y0002041921D01*
X0002498947Y0002041921D01*
X0002523976Y0001994190D01*
X0002588183Y0001968176D01*
X0002603316Y0002035783D01*
X0002600097Y0002041921D01*
X0002866773Y0002041921D01*
X0002860737Y0002030409D01*
X0002875866Y0001962797D01*
X0002940078Y0001988811D01*
X0002967919Y0002041921D01*
X0002973509Y0002041921D01*
X0002996897Y0002040388D01*
X0003022054Y0001992397D01*
X0003086266Y0001966383D01*
X0003101394Y0002033990D01*
X0003098411Y0002039683D01*
X0003161065Y0002050255D01*
X0003220776Y0002096051D01*
X0003257641Y0002165589D01*
X0003261420Y0002237560D01*
X0003221877Y0002290656D01*
X0003229475Y0002386938D01*
X0003168668Y0002435081D01*
X0003120526Y0002399969D01*
X0003086026Y0002345898D01*
X0003086026Y0002475150D01*
X0003054169Y0002552297D01*
X0002977022Y0002584154D01*
X0002475436Y0002584154D01*
X0002475436Y0002584154D01*
D64*
X0003162096Y0002260470D03*
X0003162096Y0002197478D03*
X0002949104Y0002259211D03*
X0002949104Y0002196218D03*
G04 next file*
G04 #@! TF.FileFunction,Soldermask,Top*
G04 Gerber Fmt 4.6, Leading zero omitted, Abs format (unit mm)*
G04 Created by KiCad (PCBNEW 4.0.4-stable) date 08/29/17 21:10:05*
G01G01*
G04 APERTURE LIST*
G04 APERTURE END LIST*
D65*
D66*
G36*
X0002514806Y0001914863D02*
X0002437659Y0001883006D01*
X0002405802Y0001805858D01*
X0002405802Y0001587679D01*
X0002391771Y0001594675D01*
X0002322449Y0001618974D01*
X0002257752Y0001594185D01*
X0002292815Y0001534436D01*
X0002362142Y0001510137D01*
X0002405802Y0001511886D01*
X0002405802Y0001481634D01*
X0002416590Y0001434152D01*
X0002387695Y0001379033D01*
X0002402823Y0001311426D01*
X0002467035Y0001337440D01*
X0002487308Y0001376108D01*
X0002514806Y0001372630D01*
X0002538317Y0001372630D01*
X0002563346Y0001324898D01*
X0002627553Y0001298884D01*
X0002642686Y0001366492D01*
X0002639468Y0001372630D01*
X0002906143Y0001372630D01*
X0002900108Y0001361117D01*
X0002915236Y0001293505D01*
X0002979448Y0001319519D01*
X0003007289Y0001372630D01*
X0003012879Y0001372630D01*
X0003036267Y0001371097D01*
X0003061424Y0001323105D01*
X0003125636Y0001297092D01*
X0003140764Y0001364698D01*
X0003137781Y0001370391D01*
X0003200435Y0001380963D01*
X0003260146Y0001426760D01*
X0003297011Y0001496298D01*
X0003300790Y0001568269D01*
X0003261247Y0001621365D01*
X0003268845Y0001717646D01*
X0003208038Y0001765789D01*
X0003159896Y0001730678D01*
X0003125396Y0001676607D01*
X0003125396Y0001805859D01*
X0003093539Y0001883006D01*
X0003016392Y0001914863D01*
X0002514806Y0001914863D01*
X0002514806Y0001914863D01*
X0002514806Y0001914863D01*
G37*
X0002514806Y0001914863D02*
X0002437659Y0001883006D01*
X0002405802Y0001805858D01*
X0002405802Y0001587679D01*
X0002391771Y0001594675D01*
X0002322449Y0001618974D01*
X0002257752Y0001594185D01*
X0002292815Y0001534436D01*
X0002362142Y0001510137D01*
X0002405802Y0001511886D01*
X0002405802Y0001481634D01*
X0002416590Y0001434152D01*
X0002387695Y0001379033D01*
X0002402823Y0001311426D01*
X0002467035Y0001337440D01*
X0002487308Y0001376108D01*
X0002514806Y0001372630D01*
X0002538317Y0001372630D01*
X0002563346Y0001324898D01*
X0002627553Y0001298884D01*
X0002642686Y0001366492D01*
X0002639468Y0001372630D01*
X0002906143Y0001372630D01*
X0002900108Y0001361117D01*
X0002915236Y0001293505D01*
X0002979448Y0001319519D01*
X0003007289Y0001372630D01*
X0003012879Y0001372630D01*
X0003036267Y0001371097D01*
X0003061424Y0001323105D01*
X0003125636Y0001297092D01*
X0003140764Y0001364698D01*
X0003137781Y0001370391D01*
X0003200435Y0001380963D01*
X0003260146Y0001426760D01*
X0003297011Y0001496298D01*
X0003300790Y0001568269D01*
X0003261247Y0001621365D01*
X0003268845Y0001717646D01*
X0003208038Y0001765789D01*
X0003159896Y0001730678D01*
X0003125396Y0001676607D01*
X0003125396Y0001805859D01*
X0003093539Y0001883006D01*
X0003016392Y0001914863D01*
X0002514806Y0001914863D01*
X0002514806Y0001914863D01*
D67*
X0003201466Y0001591179D03*
X0003201466Y0001528187D03*
X0002988474Y0001589919D03*
X0002988474Y0001526927D03*
G04 next file*
G04 #@! TF.FileFunction,Soldermask,Top*
G04 Gerber Fmt 4.6, Leading zero omitted, Abs format (unit mm)*
G04 Created by KiCad (PCBNEW 4.0.4-stable) date 08/29/17 21:10:05*
G01G01*
G04 APERTURE LIST*
G04 APERTURE END LIST*
D68*
D69*
G36*
X0002554176Y0001245571D02*
X0002477029Y0001213715D01*
X0002445172Y0001136567D01*
X0002445172Y0000918388D01*
X0002431141Y0000925384D01*
X0002361820Y0000949683D01*
X0002297123Y0000924894D01*
X0002332185Y0000865145D01*
X0002401512Y0000840845D01*
X0002445172Y0000842594D01*
X0002445172Y0000812343D01*
X0002455960Y0000764861D01*
X0002427065Y0000709742D01*
X0002442193Y0000642135D01*
X0002506406Y0000668149D01*
X0002526678Y0000706817D01*
X0002554176Y0000703339D01*
X0002577687Y0000703339D01*
X0002602716Y0000655607D01*
X0002666923Y0000629593D01*
X0002682056Y0000697200D01*
X0002678838Y0000703339D01*
X0002945513Y0000703339D01*
X0002939478Y0000691826D01*
X0002954606Y0000624214D01*
X0003018818Y0000650228D01*
X0003046659Y0000703339D01*
X0003052249Y0000703339D01*
X0003075637Y0000701805D01*
X0003100794Y0000653814D01*
X0003165006Y0000627800D01*
X0003180134Y0000695407D01*
X0003177151Y0000701100D01*
X0003239805Y0000711672D01*
X0003299516Y0000757469D01*
X0003336381Y0000827007D01*
X0003340161Y0000898978D01*
X0003300617Y0000952074D01*
X0003308215Y0001048355D01*
X0003247408Y0001096498D01*
X0003199266Y0001061386D01*
X0003164766Y0001007315D01*
X0003164766Y0001136567D01*
X0003132910Y0001213715D01*
X0003055762Y0001245571D01*
X0002554177Y0001245571D01*
X0002554176Y0001245571D01*
X0002554176Y0001245571D01*
G37*
X0002554176Y0001245571D02*
X0002477029Y0001213715D01*
X0002445172Y0001136567D01*
X0002445172Y0000918388D01*
X0002431141Y0000925384D01*
X0002361820Y0000949683D01*
X0002297123Y0000924894D01*
X0002332185Y0000865145D01*
X0002401512Y0000840845D01*
X0002445172Y0000842594D01*
X0002445172Y0000812343D01*
X0002455960Y0000764861D01*
X0002427065Y0000709742D01*
X0002442193Y0000642135D01*
X0002506406Y0000668149D01*
X0002526678Y0000706817D01*
X0002554176Y0000703339D01*
X0002577687Y0000703339D01*
X0002602716Y0000655607D01*
X0002666923Y0000629593D01*
X0002682056Y0000697200D01*
X0002678838Y0000703339D01*
X0002945513Y0000703339D01*
X0002939478Y0000691826D01*
X0002954606Y0000624214D01*
X0003018818Y0000650228D01*
X0003046659Y0000703339D01*
X0003052249Y0000703339D01*
X0003075637Y0000701805D01*
X0003100794Y0000653814D01*
X0003165006Y0000627800D01*
X0003180134Y0000695407D01*
X0003177151Y0000701100D01*
X0003239805Y0000711672D01*
X0003299516Y0000757469D01*
X0003336381Y0000827007D01*
X0003340161Y0000898978D01*
X0003300617Y0000952074D01*
X0003308215Y0001048355D01*
X0003247408Y0001096498D01*
X0003199266Y0001061386D01*
X0003164766Y0001007315D01*
X0003164766Y0001136567D01*
X0003132910Y0001213715D01*
X0003055762Y0001245571D01*
X0002554177Y0001245571D01*
X0002554176Y0001245571D01*
D70*
X0003240837Y0000921888D03*
X0003240837Y0000858896D03*
X0003027844Y0000920628D03*
X0003027844Y0000857636D03*
G04 next file*
G04 #@! TF.FileFunction,Soldermask,Top*
G04 Gerber Fmt 4.6, Leading zero omitted, Abs format (unit mm)*
G04 Created by KiCad (PCBNEW 4.0.4-stable) date 08/29/17 21:10:05*
G01G01*
G04 APERTURE LIST*
G04 APERTURE END LIST*
D71*
D72*
G36*
X0002593546Y0000615650D02*
X0002516399Y0000583793D01*
X0002484542Y0000506646D01*
X0002484542Y0000288467D01*
X0002470511Y0000295462D01*
X0002401190Y0000319762D01*
X0002336493Y0000294972D01*
X0002371555Y0000235223D01*
X0002440882Y0000210924D01*
X0002484542Y0000212673D01*
X0002484542Y0000182421D01*
X0002495330Y0000134940D01*
X0002466435Y0000079821D01*
X0002481564Y0000012213D01*
X0002545776Y0000038227D01*
X0002566048Y0000076896D01*
X0002593546Y0000073417D01*
X0002617057Y0000073417D01*
X0002642086Y0000025686D01*
X0002706293Y-0000000327D01*
X0002721426Y0000067279D01*
X0002718208Y0000073417D01*
X0002984883Y0000073417D01*
X0002978848Y0000061905D01*
X0002993976Y-0000005706D01*
X0003058188Y0000020307D01*
X0003086029Y0000073417D01*
X0003091619Y0000073417D01*
X0003115007Y0000071884D01*
X0003140164Y0000023893D01*
X0003204376Y-0000002120D01*
X0003219505Y0000065486D01*
X0003216521Y0000071179D01*
X0003279175Y0000081751D01*
X0003338886Y0000127547D01*
X0003375751Y0000197085D01*
X0003379531Y0000269057D01*
X0003339987Y0000322152D01*
X0003347586Y0000418434D01*
X0003286778Y0000466577D01*
X0003238636Y0000431465D01*
X0003204136Y0000377394D01*
X0003204136Y0000506646D01*
X0003172280Y0000583794D01*
X0003095132Y0000615650D01*
X0002593547Y0000615650D01*
X0002593546Y0000615650D01*
X0002593546Y0000615650D01*
G37*
X0002593546Y0000615650D02*
X0002516399Y0000583793D01*
X0002484542Y0000506646D01*
X0002484542Y0000288467D01*
X0002470511Y0000295462D01*
X0002401190Y0000319762D01*
X0002336493Y0000294972D01*
X0002371555Y0000235223D01*
X0002440882Y0000210924D01*
X0002484542Y0000212673D01*
X0002484542Y0000182421D01*
X0002495330Y0000134940D01*
X0002466435Y0000079821D01*
X0002481564Y0000012213D01*
X0002545776Y0000038227D01*
X0002566048Y0000076896D01*
X0002593546Y0000073417D01*
X0002617057Y0000073417D01*
X0002642086Y0000025686D01*
X0002706293Y-0000000327D01*
X0002721426Y0000067279D01*
X0002718208Y0000073417D01*
X0002984883Y0000073417D01*
X0002978848Y0000061905D01*
X0002993976Y-0000005706D01*
X0003058188Y0000020307D01*
X0003086029Y0000073417D01*
X0003091619Y0000073417D01*
X0003115007Y0000071884D01*
X0003140164Y0000023893D01*
X0003204376Y-0000002120D01*
X0003219505Y0000065486D01*
X0003216521Y0000071179D01*
X0003279175Y0000081751D01*
X0003338886Y0000127547D01*
X0003375751Y0000197085D01*
X0003379531Y0000269057D01*
X0003339987Y0000322152D01*
X0003347586Y0000418434D01*
X0003286778Y0000466577D01*
X0003238636Y0000431465D01*
X0003204136Y0000377394D01*
X0003204136Y0000506646D01*
X0003172280Y0000583794D01*
X0003095132Y0000615650D01*
X0002593547Y0000615650D01*
X0002593546Y0000615650D01*
D73*
X0003280207Y0000291966D03*
X0003280207Y0000228974D03*
X0003067214Y0000290707D03*
X0003067214Y0000227714D03*
M02*