%MOIN*%
%OFA0B0*%
%FSLAX46Y46*%
%IPPOS*%
%LPD*%
%ADD10C,0.0039370078740157488*%
%ADD11R,0.062992125984251982X0.051181102362204731*%
%ADD12R,0.074803149606299218X0.066929133858267723*%
%ADD13R,0.21259842519685043X0.094488188976377951*%
%ADD14R,0.17322834645669294X0.082677165354330714*%
%ADD15R,0.041338582677165357X0.094488188976377951*%
%ADD16R,0.13385826771653545X0.055118110236220472*%
%ADD27C,0.0039370078740157488*%
%ADD28R,0.062992125984251982X0.051181102362204731*%
%ADD29R,0.074803149606299218X0.066929133858267723*%
%ADD30R,0.21259842519685043X0.094488188976377951*%
%ADD31R,0.17322834645669294X0.082677165354330714*%
%ADD32R,0.041338582677165357X0.094488188976377951*%
%ADD33R,0.13385826771653545X0.055118110236220472*%
%ADD34C,0.0039370078740157488*%
%ADD35R,0.062992125984251982X0.051181102362204731*%
%ADD36R,0.074803149606299218X0.066929133858267723*%
%ADD37R,0.21259842519685043X0.094488188976377951*%
%ADD38R,0.17322834645669294X0.082677165354330714*%
%ADD39R,0.041338582677165357X0.094488188976377951*%
%ADD40R,0.13385826771653545X0.055118110236220472*%
%ADD41C,0.0039370078740157488*%
%ADD42R,0.062992125984251982X0.051181102362204731*%
%ADD43R,0.074803149606299218X0.066929133858267723*%
%ADD44R,0.21259842519685043X0.094488188976377951*%
%ADD45R,0.17322834645669294X0.082677165354330714*%
%ADD46R,0.041338582677165357X0.094488188976377951*%
%ADD47R,0.13385826771653545X0.055118110236220472*%
%ADD48C,0.0039370078740157488*%
%ADD49R,0.062992125984251982X0.051181102362204731*%
%ADD50R,0.074803149606299218X0.066929133858267723*%
%ADD51R,0.21259842519685043X0.094488188976377951*%
%ADD52R,0.17322834645669294X0.082677165354330714*%
%ADD53R,0.041338582677165357X0.094488188976377951*%
%ADD54R,0.13385826771653545X0.055118110236220472*%
%ADD55C,0.0039370078740157488*%
%ADD56R,0.062992125984251982X0.051181102362204731*%
%ADD57R,0.074803149606299218X0.066929133858267723*%
%ADD58R,0.21259842519685043X0.094488188976377951*%
%ADD59R,0.17322834645669294X0.082677165354330714*%
%ADD60R,0.041338582677165357X0.094488188976377951*%
%ADD61R,0.13385826771653545X0.055118110236220472*%
%ADD62C,0.0039370078740157488*%
%ADD63R,0.062992125984251982X0.051181102362204731*%
%ADD64R,0.074803149606299218X0.066929133858267723*%
%ADD65R,0.21259842519685043X0.094488188976377951*%
%ADD66R,0.17322834645669294X0.082677165354330714*%
%ADD67R,0.041338582677165357X0.094488188976377951*%
%ADD68R,0.13385826771653545X0.055118110236220472*%
%ADD69C,0.0039370078740157488*%
%ADD70R,0.062992125984251982X0.051181102362204731*%
%ADD71R,0.074803149606299218X0.066929133858267723*%
%ADD72R,0.21259842519685043X0.094488188976377951*%
%ADD73R,0.17322834645669294X0.082677165354330714*%
%ADD74R,0.041338582677165357X0.094488188976377951*%
%ADD75R,0.13385826771653545X0.055118110236220472*%
%ADD76C,0.0039370078740157488*%
%ADD77R,0.062992125984251982X0.051181102362204731*%
%ADD78R,0.074803149606299218X0.066929133858267723*%
%ADD79R,0.21259842519685043X0.094488188976377951*%
%ADD80R,0.17322834645669294X0.082677165354330714*%
%ADD81R,0.041338582677165357X0.094488188976377951*%
%ADD82R,0.13385826771653545X0.055118110236220472*%
%ADD83C,0.0039370078740157488*%
%ADD84R,0.062992125984251982X0.051181102362204731*%
%ADD85R,0.074803149606299218X0.066929133858267723*%
%ADD86R,0.21259842519685043X0.094488188976377951*%
%ADD87R,0.17322834645669294X0.082677165354330714*%
%ADD88R,0.041338582677165357X0.094488188976377951*%
%ADD89R,0.13385826771653545X0.055118110236220472*%
%ADD90C,0.0039370078740157488*%
%ADD91R,0.062992125984251982X0.051181102362204731*%
%ADD92R,0.074803149606299218X0.066929133858267723*%
%ADD93R,0.21259842519685043X0.094488188976377951*%
%ADD94R,0.17322834645669294X0.082677165354330714*%
%ADD95R,0.041338582677165357X0.094488188976377951*%
%ADD96R,0.13385826771653545X0.055118110236220472*%
%ADD97C,0.0039370078740157488*%
%ADD98R,0.062992125984251982X0.051181102362204731*%
%ADD99R,0.074803149606299218X0.066929133858267723*%
%ADD100R,0.21259842519685043X0.094488188976377951*%
%ADD101R,0.17322834645669294X0.082677165354330714*%
%ADD102R,0.041338582677165357X0.094488188976377951*%
%ADD103R,0.13385826771653545X0.055118110236220472*%
%ADD104C,0.0039370078740157488*%
%ADD105R,0.062992125984251982X0.051181102362204731*%
%ADD106R,0.074803149606299218X0.066929133858267723*%
%ADD107R,0.21259842519685043X0.094488188976377951*%
%ADD108R,0.17322834645669294X0.082677165354330714*%
%ADD109R,0.041338582677165357X0.094488188976377951*%
%ADD110R,0.13385826771653545X0.055118110236220472*%
%ADD111C,0.0039370078740157488*%
%ADD112R,0.062992125984251982X0.051181102362204731*%
%ADD113R,0.074803149606299218X0.066929133858267723*%
%ADD114R,0.21259842519685043X0.094488188976377951*%
%ADD115R,0.17322834645669294X0.082677165354330714*%
%ADD116R,0.041338582677165357X0.094488188976377951*%
%ADD117R,0.13385826771653545X0.055118110236220472*%
%ADD118C,0.0039370078740157488*%
%ADD119R,0.062992125984251982X0.051181102362204731*%
%ADD120R,0.074803149606299218X0.066929133858267723*%
%ADD121R,0.21259842519685043X0.094488188976377951*%
%ADD122R,0.17322834645669294X0.082677165354330714*%
%ADD123R,0.041338582677165357X0.094488188976377951*%
%ADD124R,0.13385826771653545X0.055118110236220472*%
%ADD125C,0.0039370078740157488*%
%ADD126R,0.062992125984251982X0.051181102362204731*%
%ADD127R,0.074803149606299218X0.066929133858267723*%
%ADD128R,0.21259842519685043X0.094488188976377951*%
%ADD129R,0.17322834645669294X0.082677165354330714*%
%ADD130R,0.041338582677165357X0.094488188976377951*%
%ADD131R,0.13385826771653545X0.055118110236220472*%
%ADD132C,0.0039370078740157488*%
%ADD133R,0.062992125984251982X0.051181102362204731*%
%ADD134R,0.074803149606299218X0.066929133858267723*%
%ADD135R,0.21259842519685043X0.094488188976377951*%
%ADD136R,0.17322834645669294X0.082677165354330714*%
%ADD137R,0.041338582677165357X0.094488188976377951*%
%ADD138R,0.13385826771653545X0.055118110236220472*%
%ADD139C,0.0039370078740157488*%
%ADD140R,0.062992125984251982X0.051181102362204731*%
%ADD141R,0.074803149606299218X0.066929133858267723*%
%ADD142R,0.21259842519685043X0.094488188976377951*%
%ADD143R,0.17322834645669294X0.082677165354330714*%
%ADD144R,0.041338582677165357X0.094488188976377951*%
%ADD145R,0.13385826771653545X0.055118110236220472*%
G01G01*
D10*
D11*
X0000196850Y0003070866D02*
X0000851860Y0002673069D03*
X0000938474Y0002673069D03*
D12*
X0000739655Y0003088423D03*
X0000845955Y0003088423D03*
D13*
X0000536900Y0003094329D03*
D14*
X0000536900Y0002686848D03*
D15*
X0000786900Y0002745510D03*
X0000749498Y0002745510D03*
X0000712096Y0002745510D03*
X0000712096Y0002880155D03*
X0000749498Y0002880155D03*
X0000786900Y0002880155D03*
D16*
X0000282962Y0002669132D03*
X0000282962Y0002773462D03*
X0000282962Y0002984092D03*
X0000282962Y0002879762D03*
X0000282962Y0003088423D03*
G04 next file*
G04 #@! TF.FileFunction,Soldermask,Bot*
G04 Gerber Fmt 4.6, Leading zero omitted, Abs format (unit mm)*
G04 Created by KiCad (PCBNEW 4.0.4-stable) date 08/29/17 21:10:05*
G01G01*
G04 APERTURE LIST*
G04 APERTURE END LIST*
D27*
D28*
X0000157480Y0003740157D02*
X0000812490Y0003342360D03*
X0000899104Y0003342360D03*
D29*
X0000700285Y0003757714D03*
X0000806585Y0003757714D03*
D30*
X0000497529Y0003763620D03*
D31*
X0000497529Y0003356140D03*
D32*
X0000747529Y0003414801D03*
X0000710128Y0003414801D03*
X0000672726Y0003414801D03*
X0000672726Y0003549447D03*
X0000710128Y0003549447D03*
X0000747529Y0003549447D03*
D33*
X0000243592Y0003338423D03*
X0000243592Y0003442754D03*
X0000243592Y0003653384D03*
X0000243592Y0003549053D03*
X0000243592Y0003757714D03*
G04 next file*
G04 #@! TF.FileFunction,Soldermask,Bot*
G04 Gerber Fmt 4.6, Leading zero omitted, Abs format (unit mm)*
G04 Created by KiCad (PCBNEW 4.0.4-stable) date 08/29/17 21:10:05*
G01G01*
G04 APERTURE LIST*
G04 APERTURE END LIST*
D34*
D35*
X0000236220Y0002440944D02*
X0000891230Y0002043148D03*
X0000977844Y0002043148D03*
D36*
X0000779025Y0002458502D03*
X0000885325Y0002458502D03*
D37*
X0000576270Y0002464407D03*
D38*
X0000576270Y0002056927D03*
D39*
X0000826270Y0002115588D03*
X0000788868Y0002115588D03*
X0000751466Y0002115588D03*
X0000751466Y0002250234D03*
X0000788868Y0002250234D03*
X0000826270Y0002250234D03*
D40*
X0000322333Y0002039211D03*
X0000322333Y0002143541D03*
X0000322333Y0002354171D03*
X0000322333Y0002249840D03*
X0000322333Y0002458502D03*
G04 next file*
G04 #@! TF.FileFunction,Soldermask,Bot*
G04 Gerber Fmt 4.6, Leading zero omitted, Abs format (unit mm)*
G04 Created by KiCad (PCBNEW 4.0.4-stable) date 08/29/17 21:10:05*
G01G01*
G04 APERTURE LIST*
G04 APERTURE END LIST*
D41*
D42*
X0000275590Y0001811023D02*
X0000930600Y0001413226D03*
X0001017214Y0001413226D03*
D43*
X0000818396Y0001828581D03*
X0000924695Y0001828581D03*
D44*
X0000615640Y0001834486D03*
D45*
X0000615640Y0001427006D03*
D46*
X0000865640Y0001485667D03*
X0000828238Y0001485667D03*
X0000790837Y0001485667D03*
X0000790837Y0001620313D03*
X0000828238Y0001620313D03*
X0000865640Y0001620313D03*
D47*
X0000361703Y0001409289D03*
X0000361703Y0001513620D03*
X0000361703Y0001724250D03*
X0000361703Y0001619919D03*
X0000361703Y0001828581D03*
G04 next file*
G04 #@! TF.FileFunction,Soldermask,Bot*
G04 Gerber Fmt 4.6, Leading zero omitted, Abs format (unit mm)*
G04 Created by KiCad (PCBNEW 4.0.4-stable) date 08/29/17 21:10:05*
G01G01*
G04 APERTURE LIST*
G04 APERTURE END LIST*
D48*
D49*
X0000314960Y0001181102D02*
X0000969970Y0000783305D03*
X0001056585Y0000783305D03*
D50*
X0000857766Y0001198659D03*
X0000964065Y0001198659D03*
D51*
X0000655010Y0001204565D03*
D52*
X0000655010Y0000797085D03*
D53*
X0000905010Y0000855746D03*
X0000867608Y0000855746D03*
X0000830207Y0000855746D03*
X0000830207Y0000990392D03*
X0000867608Y0000990392D03*
X0000905010Y0000990392D03*
D54*
X0000401073Y0000779368D03*
X0000401073Y0000883699D03*
X0000401073Y0001094329D03*
X0000401073Y0000989998D03*
X0000401073Y0001198659D03*
G04 next file*
G04 #@! TF.FileFunction,Soldermask,Bot*
G04 Gerber Fmt 4.6, Leading zero omitted, Abs format (unit mm)*
G04 Created by KiCad (PCBNEW 4.0.4-stable) date 08/29/17 21:10:05*
G01G01*
G04 APERTURE LIST*
G04 APERTURE END LIST*
D55*
D56*
X0000354330Y0000551181D02*
X0001009340Y0000153384D03*
X0001095955Y0000153384D03*
D57*
X0000897136Y0000568738D03*
X0001003435Y0000568738D03*
D58*
X0000694380Y0000574644D03*
D59*
X0000694380Y0000167163D03*
D60*
X0000944380Y0000225825D03*
X0000906978Y0000225825D03*
X0000869577Y0000225825D03*
X0000869577Y0000360470D03*
X0000906978Y0000360470D03*
X0000944380Y0000360470D03*
D61*
X0000440443Y0000149447D03*
X0000440443Y0000253777D03*
X0000440443Y0000464407D03*
X0000440443Y0000360077D03*
X0000440443Y0000568738D03*
G04 next file*
G04 #@! TF.FileFunction,Soldermask,Bot*
G04 Gerber Fmt 4.6, Leading zero omitted, Abs format (unit mm)*
G04 Created by KiCad (PCBNEW 4.0.4-stable) date 08/29/17 21:10:05*
G01G01*
G04 APERTURE LIST*
G04 APERTURE END LIST*
D62*
D63*
X0001220472Y0003740157D02*
X0001875482Y0003342360D03*
X0001962096Y0003342360D03*
D64*
X0001763277Y0003757714D03*
X0001869577Y0003757714D03*
D65*
X0001560522Y0003763620D03*
D66*
X0001560522Y0003356140D03*
D67*
X0001810522Y0003414801D03*
X0001773120Y0003414801D03*
X0001735718Y0003414801D03*
X0001735718Y0003549447D03*
X0001773120Y0003549447D03*
X0001810522Y0003549447D03*
D68*
X0001306585Y0003338423D03*
X0001306585Y0003442754D03*
X0001306585Y0003653384D03*
X0001306585Y0003549053D03*
X0001306585Y0003757714D03*
G04 next file*
G04 #@! TF.FileFunction,Soldermask,Bot*
G04 Gerber Fmt 4.6, Leading zero omitted, Abs format (unit mm)*
G04 Created by KiCad (PCBNEW 4.0.4-stable) date 08/29/17 21:10:05*
G01G01*
G04 APERTURE LIST*
G04 APERTURE END LIST*
D69*
D70*
X0001338582Y0001811023D02*
X0001993592Y0001413226D03*
X0002080207Y0001413226D03*
D71*
X0001881388Y0001828581D03*
X0001987687Y0001828581D03*
D72*
X0001678632Y0001834486D03*
D73*
X0001678632Y0001427006D03*
D74*
X0001928632Y0001485667D03*
X0001891230Y0001485667D03*
X0001853829Y0001485667D03*
X0001853829Y0001620313D03*
X0001891230Y0001620313D03*
X0001928632Y0001620313D03*
D75*
X0001424695Y0001409289D03*
X0001424695Y0001513620D03*
X0001424695Y0001724250D03*
X0001424695Y0001619919D03*
X0001424695Y0001828581D03*
G04 next file*
G04 #@! TF.FileFunction,Soldermask,Bot*
G04 Gerber Fmt 4.6, Leading zero omitted, Abs format (unit mm)*
G04 Created by KiCad (PCBNEW 4.0.4-stable) date 08/29/17 21:10:05*
G01G01*
G04 APERTURE LIST*
G04 APERTURE END LIST*
D76*
D77*
X0001259842Y0003070866D02*
X0001914852Y0002673069D03*
X0002001466Y0002673069D03*
D78*
X0001802648Y0003088423D03*
X0001908947Y0003088423D03*
D79*
X0001599892Y0003094329D03*
D80*
X0001599892Y0002686848D03*
D81*
X0001849892Y0002745510D03*
X0001812490Y0002745510D03*
X0001775088Y0002745510D03*
X0001775088Y0002880155D03*
X0001812490Y0002880155D03*
X0001849892Y0002880155D03*
D82*
X0001345955Y0002669132D03*
X0001345955Y0002773462D03*
X0001345955Y0002984092D03*
X0001345955Y0002879762D03*
X0001345955Y0003088423D03*
G04 next file*
G04 #@! TF.FileFunction,Soldermask,Bot*
G04 Gerber Fmt 4.6, Leading zero omitted, Abs format (unit mm)*
G04 Created by KiCad (PCBNEW 4.0.4-stable) date 08/29/17 21:10:05*
G01G01*
G04 APERTURE LIST*
G04 APERTURE END LIST*
D83*
D84*
X0001299212Y0002440944D02*
X0001954222Y0002043148D03*
X0002040837Y0002043148D03*
D85*
X0001842018Y0002458502D03*
X0001948317Y0002458502D03*
D86*
X0001639262Y0002464407D03*
D87*
X0001639262Y0002056927D03*
D88*
X0001889262Y0002115588D03*
X0001851860Y0002115588D03*
X0001814459Y0002115588D03*
X0001814459Y0002250234D03*
X0001851860Y0002250234D03*
X0001889262Y0002250234D03*
D89*
X0001385325Y0002039211D03*
X0001385325Y0002143541D03*
X0001385325Y0002354171D03*
X0001385325Y0002249840D03*
X0001385325Y0002458502D03*
G04 next file*
G04 #@! TF.FileFunction,Soldermask,Bot*
G04 Gerber Fmt 4.6, Leading zero omitted, Abs format (unit mm)*
G04 Created by KiCad (PCBNEW 4.0.4-stable) date 08/29/17 21:10:05*
G01G01*
G04 APERTURE LIST*
G04 APERTURE END LIST*
D90*
D91*
X0001377952Y0001141732D02*
X0002032962Y0000743935D03*
X0002119577Y0000743935D03*
D92*
X0001920758Y0001159289D03*
X0002027057Y0001159289D03*
D93*
X0001718002Y0001165195D03*
D94*
X0001718002Y0000757714D03*
D95*
X0001968002Y0000816376D03*
X0001930600Y0000816376D03*
X0001893199Y0000816376D03*
X0001893199Y0000951022D03*
X0001930600Y0000951022D03*
X0001968002Y0000951022D03*
D96*
X0001464065Y0000739998D03*
X0001464065Y0000844329D03*
X0001464065Y0001054959D03*
X0001464065Y0000950628D03*
X0001464065Y0001159289D03*
G04 next file*
G04 #@! TF.FileFunction,Soldermask,Bot*
G04 Gerber Fmt 4.6, Leading zero omitted, Abs format (unit mm)*
G04 Created by KiCad (PCBNEW 4.0.4-stable) date 08/29/17 21:10:05*
G01G01*
G04 APERTURE LIST*
G04 APERTURE END LIST*
D97*
D98*
X0001417322Y0000511811D02*
X0002072333Y0000114014D03*
X0002158947Y0000114014D03*
D99*
X0001960128Y0000529368D03*
X0002066427Y0000529368D03*
D100*
X0001757372Y0000535274D03*
D101*
X0001757372Y0000127793D03*
D102*
X0002007372Y0000186455D03*
X0001969970Y0000186455D03*
X0001932569Y0000186455D03*
X0001932569Y0000321100D03*
X0001969970Y0000321100D03*
X0002007372Y0000321100D03*
D103*
X0001503435Y0000110077D03*
X0001503435Y0000214407D03*
X0001503435Y0000425037D03*
X0001503435Y0000320707D03*
X0001503435Y0000529368D03*
G04 next file*
G04 #@! TF.FileFunction,Soldermask,Bot*
G04 Gerber Fmt 4.6, Leading zero omitted, Abs format (unit mm)*
G04 Created by KiCad (PCBNEW 4.0.4-stable) date 08/29/17 21:10:05*
G01G01*
G04 APERTURE LIST*
G04 APERTURE END LIST*
D104*
D105*
X0002283464Y0003740157D02*
X0002938474Y0003342360D03*
X0003025088Y0003342360D03*
D106*
X0002826270Y0003757714D03*
X0002932569Y0003757714D03*
D107*
X0002623514Y0003763620D03*
D108*
X0002623514Y0003356140D03*
D109*
X0002873514Y0003414801D03*
X0002836112Y0003414801D03*
X0002798711Y0003414801D03*
X0002798711Y0003549447D03*
X0002836112Y0003549447D03*
X0002873514Y0003549447D03*
D110*
X0002369577Y0003338423D03*
X0002369577Y0003442754D03*
X0002369577Y0003653384D03*
X0002369577Y0003549053D03*
X0002369577Y0003757714D03*
G04 next file*
G04 #@! TF.FileFunction,Soldermask,Bot*
G04 Gerber Fmt 4.6, Leading zero omitted, Abs format (unit mm)*
G04 Created by KiCad (PCBNEW 4.0.4-stable) date 08/29/17 21:10:05*
G01G01*
G04 APERTURE LIST*
G04 APERTURE END LIST*
D111*
D112*
X0002322834Y0003110236D02*
X0002977844Y0002712439D03*
X0003064459Y0002712439D03*
D113*
X0002865640Y0003127793D03*
X0002971939Y0003127793D03*
D114*
X0002662884Y0003133699D03*
D115*
X0002662884Y0002726218D03*
D116*
X0002912884Y0002784880D03*
X0002875482Y0002784880D03*
X0002838081Y0002784880D03*
X0002838081Y0002919525D03*
X0002875482Y0002919525D03*
X0002912884Y0002919525D03*
D117*
X0002408947Y0002708502D03*
X0002408947Y0002812833D03*
X0002408947Y0003023462D03*
X0002408947Y0002919132D03*
X0002408947Y0003127793D03*
G04 next file*
G04 #@! TF.FileFunction,Soldermask,Bot*
G04 Gerber Fmt 4.6, Leading zero omitted, Abs format (unit mm)*
G04 Created by KiCad (PCBNEW 4.0.4-stable) date 08/29/17 21:10:05*
G01G01*
G04 APERTURE LIST*
G04 APERTURE END LIST*
D118*
D119*
X0002362204Y0002480314D02*
X0003017214Y0002082518D03*
X0003103829Y0002082518D03*
D120*
X0002905010Y0002497872D03*
X0003011309Y0002497872D03*
D121*
X0002702254Y0002503777D03*
D122*
X0002702254Y0002096297D03*
D123*
X0002952254Y0002154959D03*
X0002914852Y0002154959D03*
X0002877451Y0002154959D03*
X0002877451Y0002289604D03*
X0002914852Y0002289604D03*
X0002952254Y0002289604D03*
D124*
X0002448317Y0002078581D03*
X0002448317Y0002182911D03*
X0002448317Y0002393541D03*
X0002448317Y0002289211D03*
X0002448317Y0002497872D03*
G04 next file*
G04 #@! TF.FileFunction,Soldermask,Bot*
G04 Gerber Fmt 4.6, Leading zero omitted, Abs format (unit mm)*
G04 Created by KiCad (PCBNEW 4.0.4-stable) date 08/29/17 21:10:05*
G01G01*
G04 APERTURE LIST*
G04 APERTURE END LIST*
D125*
D126*
X0002401574Y0001811023D02*
X0003056585Y0001413226D03*
X0003143199Y0001413226D03*
D127*
X0002944380Y0001828581D03*
X0003050679Y0001828581D03*
D128*
X0002741624Y0001834486D03*
D129*
X0002741624Y0001427006D03*
D130*
X0002991624Y0001485667D03*
X0002954222Y0001485667D03*
X0002916821Y0001485667D03*
X0002916821Y0001620313D03*
X0002954222Y0001620313D03*
X0002991624Y0001620313D03*
D131*
X0002487687Y0001409289D03*
X0002487687Y0001513620D03*
X0002487687Y0001724250D03*
X0002487687Y0001619919D03*
X0002487687Y0001828581D03*
G04 next file*
G04 #@! TF.FileFunction,Soldermask,Bot*
G04 Gerber Fmt 4.6, Leading zero omitted, Abs format (unit mm)*
G04 Created by KiCad (PCBNEW 4.0.4-stable) date 08/29/17 21:10:05*
G01G01*
G04 APERTURE LIST*
G04 APERTURE END LIST*
D132*
D133*
X0002440944Y0001141732D02*
X0003095955Y0000743935D03*
X0003182569Y0000743935D03*
D134*
X0002983750Y0001159289D03*
X0003090049Y0001159289D03*
D135*
X0002780994Y0001165195D03*
D136*
X0002780994Y0000757714D03*
D137*
X0003030994Y0000816376D03*
X0002993592Y0000816376D03*
X0002956191Y0000816376D03*
X0002956191Y0000951022D03*
X0002993592Y0000951022D03*
X0003030994Y0000951022D03*
D138*
X0002527057Y0000739998D03*
X0002527057Y0000844329D03*
X0002527057Y0001054959D03*
X0002527057Y0000950628D03*
X0002527057Y0001159289D03*
G04 next file*
G04 #@! TF.FileFunction,Soldermask,Bot*
G04 Gerber Fmt 4.6, Leading zero omitted, Abs format (unit mm)*
G04 Created by KiCad (PCBNEW 4.0.4-stable) date 08/29/17 21:10:05*
G01G01*
G04 APERTURE LIST*
G04 APERTURE END LIST*
D139*
D140*
X0002480314Y0000511811D02*
X0003135325Y0000114014D03*
X0003221939Y0000114014D03*
D141*
X0003023120Y0000529368D03*
X0003129419Y0000529368D03*
D142*
X0002820364Y0000535274D03*
D143*
X0002820364Y0000127793D03*
D144*
X0003070364Y0000186455D03*
X0003032962Y0000186455D03*
X0002995561Y0000186455D03*
X0002995561Y0000321100D03*
X0003032962Y0000321100D03*
X0003070364Y0000321100D03*
D145*
X0002566427Y0000110077D03*
X0002566427Y0000214407D03*
X0002566427Y0000425037D03*
X0002566427Y0000320707D03*
X0002566427Y0000529368D03*
M02*