%MOIN*%
%OFA0B0*%
%FSLAX46Y46*%
%IPPOS*%
%LPD*%
%ADD10C,0.0039370078740157488*%
%ADD11R,0.031496062992125991X0.031496062992125991*%
%ADD22C,0.0039370078740157488*%
%ADD23R,0.031496062992125991X0.031496062992125991*%
%ADD24C,0.0039370078740157488*%
%ADD25R,0.031496062992125991X0.031496062992125991*%
%ADD26C,0.0039370078740157488*%
%ADD27R,0.031496062992125991X0.031496062992125991*%
%ADD28C,0.0039370078740157488*%
%ADD29R,0.031496062992125991X0.031496062992125991*%
%ADD30C,0.0039370078740157488*%
%ADD31R,0.031496062992125991X0.031496062992125991*%
%ADD32C,0.0039370078740157488*%
%ADD33R,0.031496062992125991X0.031496062992125991*%
%ADD34C,0.0039370078740157488*%
%ADD35R,0.031496062992125991X0.031496062992125991*%
%ADD36C,0.0039370078740157488*%
%ADD37R,0.031496062992125991X0.031496062992125991*%
%ADD38C,0.0039370078740157488*%
%ADD39R,0.031496062992125991X0.031496062992125991*%
%ADD40C,0.0039370078740157488*%
%ADD41R,0.031496062992125991X0.031496062992125991*%
%ADD42C,0.0039370078740157488*%
%ADD43R,0.031496062992125991X0.031496062992125991*%
%ADD44C,0.0039370078740157488*%
%ADD45R,0.031496062992125991X0.031496062992125991*%
%ADD46C,0.0039370078740157488*%
%ADD47R,0.031496062992125991X0.031496062992125991*%
%ADD48C,0.0039370078740157488*%
%ADD49R,0.031496062992125991X0.031496062992125991*%
%ADD50C,0.0039370078740157488*%
%ADD51R,0.031496062992125991X0.031496062992125991*%
%ADD52C,0.0039370078740157488*%
%ADD53R,0.031496062992125991X0.031496062992125991*%
%ADD54C,0.0039370078740157488*%
%ADD55R,0.031496062992125991X0.031496062992125991*%
G01G01*
D10*
D11*
X0000196850Y0003070866D02*
X0000996742Y0002851022D03*
X0000996742Y0002788029D03*
X0000783750Y0002849762D03*
X0000783750Y0002786770D03*
G04 next file*
G04 #@! TF.FileFunction,Paste,Top*
G04 Gerber Fmt 4.6, Leading zero omitted, Abs format (unit mm)*
G04 Created by KiCad (PCBNEW 4.0.4-stable) date 08/29/17 21:10:05*
G01G01*
G04 APERTURE LIST*
G04 APERTURE END LIST*
D22*
D23*
X0000157480Y0003740157D02*
X0000957372Y0003520313D03*
X0000957372Y0003457321D03*
X0000744380Y0003519053D03*
X0000744380Y0003456061D03*
G04 next file*
G04 #@! TF.FileFunction,Paste,Top*
G04 Gerber Fmt 4.6, Leading zero omitted, Abs format (unit mm)*
G04 Created by KiCad (PCBNEW 4.0.4-stable) date 08/29/17 21:10:05*
G01G01*
G04 APERTURE LIST*
G04 APERTURE END LIST*
D24*
D25*
X0000236220Y0002440944D02*
X0001036112Y0002221100D03*
X0001036112Y0002158108D03*
X0000823120Y0002219840D03*
X0000823120Y0002156848D03*
G04 next file*
G04 #@! TF.FileFunction,Paste,Top*
G04 Gerber Fmt 4.6, Leading zero omitted, Abs format (unit mm)*
G04 Created by KiCad (PCBNEW 4.0.4-stable) date 08/29/17 21:10:05*
G01G01*
G04 APERTURE LIST*
G04 APERTURE END LIST*
D26*
D27*
X0000275590Y0001811023D02*
X0001075482Y0001591179D03*
X0001075482Y0001528187D03*
X0000862490Y0001589919D03*
X0000862490Y0001526927D03*
G04 next file*
G04 #@! TF.FileFunction,Paste,Top*
G04 Gerber Fmt 4.6, Leading zero omitted, Abs format (unit mm)*
G04 Created by KiCad (PCBNEW 4.0.4-stable) date 08/29/17 21:10:05*
G01G01*
G04 APERTURE LIST*
G04 APERTURE END LIST*
D28*
D29*
X0000314960Y0001181102D02*
X0001114852Y0000961258D03*
X0001114852Y0000898266D03*
X0000901860Y0000959998D03*
X0000901860Y0000897006D03*
G04 next file*
G04 #@! TF.FileFunction,Paste,Top*
G04 Gerber Fmt 4.6, Leading zero omitted, Abs format (unit mm)*
G04 Created by KiCad (PCBNEW 4.0.4-stable) date 08/29/17 21:10:05*
G01G01*
G04 APERTURE LIST*
G04 APERTURE END LIST*
D30*
D31*
X0000354330Y0000551181D02*
X0001154222Y0000331337D03*
X0001154222Y0000268344D03*
X0000941230Y0000330077D03*
X0000941230Y0000267085D03*
G04 next file*
G04 #@! TF.FileFunction,Paste,Top*
G04 Gerber Fmt 4.6, Leading zero omitted, Abs format (unit mm)*
G04 Created by KiCad (PCBNEW 4.0.4-stable) date 08/29/17 21:10:05*
G01G01*
G04 APERTURE LIST*
G04 APERTURE END LIST*
D32*
D33*
X0001220472Y0003740157D02*
X0002020364Y0003520313D03*
X0002020364Y0003457321D03*
X0001807372Y0003519053D03*
X0001807372Y0003456061D03*
G04 next file*
G04 #@! TF.FileFunction,Paste,Top*
G04 Gerber Fmt 4.6, Leading zero omitted, Abs format (unit mm)*
G04 Created by KiCad (PCBNEW 4.0.4-stable) date 08/29/17 21:10:05*
G01G01*
G04 APERTURE LIST*
G04 APERTURE END LIST*
D34*
D35*
X0001338582Y0001811023D02*
X0002138474Y0001591179D03*
X0002138474Y0001528187D03*
X0001925482Y0001589919D03*
X0001925482Y0001526927D03*
G04 next file*
G04 #@! TF.FileFunction,Paste,Top*
G04 Gerber Fmt 4.6, Leading zero omitted, Abs format (unit mm)*
G04 Created by KiCad (PCBNEW 4.0.4-stable) date 08/29/17 21:10:05*
G01G01*
G04 APERTURE LIST*
G04 APERTURE END LIST*
D36*
D37*
X0001259842Y0003070866D02*
X0002059734Y0002851022D03*
X0002059734Y0002788029D03*
X0001846742Y0002849762D03*
X0001846742Y0002786770D03*
G04 next file*
G04 #@! TF.FileFunction,Paste,Top*
G04 Gerber Fmt 4.6, Leading zero omitted, Abs format (unit mm)*
G04 Created by KiCad (PCBNEW 4.0.4-stable) date 08/29/17 21:10:05*
G01G01*
G04 APERTURE LIST*
G04 APERTURE END LIST*
D38*
D39*
X0001299212Y0002440944D02*
X0002099104Y0002221100D03*
X0002099104Y0002158108D03*
X0001886112Y0002219840D03*
X0001886112Y0002156848D03*
G04 next file*
G04 #@! TF.FileFunction,Paste,Top*
G04 Gerber Fmt 4.6, Leading zero omitted, Abs format (unit mm)*
G04 Created by KiCad (PCBNEW 4.0.4-stable) date 08/29/17 21:10:05*
G01G01*
G04 APERTURE LIST*
G04 APERTURE END LIST*
D40*
D41*
X0001377952Y0001141732D02*
X0002177844Y0000921888D03*
X0002177844Y0000858896D03*
X0001964852Y0000920628D03*
X0001964852Y0000857636D03*
G04 next file*
G04 #@! TF.FileFunction,Paste,Top*
G04 Gerber Fmt 4.6, Leading zero omitted, Abs format (unit mm)*
G04 Created by KiCad (PCBNEW 4.0.4-stable) date 08/29/17 21:10:05*
G01G01*
G04 APERTURE LIST*
G04 APERTURE END LIST*
D42*
D43*
X0001417322Y0000511811D02*
X0002217214Y0000291966D03*
X0002217214Y0000228974D03*
X0002004222Y0000290707D03*
X0002004222Y0000227714D03*
G04 next file*
G04 #@! TF.FileFunction,Paste,Top*
G04 Gerber Fmt 4.6, Leading zero omitted, Abs format (unit mm)*
G04 Created by KiCad (PCBNEW 4.0.4-stable) date 08/29/17 21:10:05*
G01G01*
G04 APERTURE LIST*
G04 APERTURE END LIST*
D44*
D45*
X0002283464Y0003740157D02*
X0003083356Y0003520313D03*
X0003083356Y0003457321D03*
X0002870364Y0003519053D03*
X0002870364Y0003456061D03*
G04 next file*
G04 #@! TF.FileFunction,Paste,Top*
G04 Gerber Fmt 4.6, Leading zero omitted, Abs format (unit mm)*
G04 Created by KiCad (PCBNEW 4.0.4-stable) date 08/29/17 21:10:05*
G01G01*
G04 APERTURE LIST*
G04 APERTURE END LIST*
D46*
D47*
X0002322834Y0003110236D02*
X0003122726Y0002890392D03*
X0003122726Y0002827400D03*
X0002909734Y0002889132D03*
X0002909734Y0002826140D03*
G04 next file*
G04 #@! TF.FileFunction,Paste,Top*
G04 Gerber Fmt 4.6, Leading zero omitted, Abs format (unit mm)*
G04 Created by KiCad (PCBNEW 4.0.4-stable) date 08/29/17 21:10:05*
G01G01*
G04 APERTURE LIST*
G04 APERTURE END LIST*
D48*
D49*
X0002362204Y0002480314D02*
X0003162096Y0002260470D03*
X0003162096Y0002197478D03*
X0002949104Y0002259211D03*
X0002949104Y0002196218D03*
G04 next file*
G04 #@! TF.FileFunction,Paste,Top*
G04 Gerber Fmt 4.6, Leading zero omitted, Abs format (unit mm)*
G04 Created by KiCad (PCBNEW 4.0.4-stable) date 08/29/17 21:10:05*
G01G01*
G04 APERTURE LIST*
G04 APERTURE END LIST*
D50*
D51*
X0002401574Y0001811023D02*
X0003201466Y0001591179D03*
X0003201466Y0001528187D03*
X0002988474Y0001589919D03*
X0002988474Y0001526927D03*
G04 next file*
G04 #@! TF.FileFunction,Paste,Top*
G04 Gerber Fmt 4.6, Leading zero omitted, Abs format (unit mm)*
G04 Created by KiCad (PCBNEW 4.0.4-stable) date 08/29/17 21:10:05*
G01G01*
G04 APERTURE LIST*
G04 APERTURE END LIST*
D52*
D53*
X0002440944Y0001141732D02*
X0003240837Y0000921888D03*
X0003240837Y0000858896D03*
X0003027844Y0000920628D03*
X0003027844Y0000857636D03*
G04 next file*
G04 #@! TF.FileFunction,Paste,Top*
G04 Gerber Fmt 4.6, Leading zero omitted, Abs format (unit mm)*
G04 Created by KiCad (PCBNEW 4.0.4-stable) date 08/29/17 21:10:05*
G01G01*
G04 APERTURE LIST*
G04 APERTURE END LIST*
D54*
D55*
X0002480314Y0000511811D02*
X0003280207Y0000291966D03*
X0003280207Y0000228974D03*
X0003067214Y0000290707D03*
X0003067214Y0000227714D03*
M02*