%
M48
METRIC,000.000
T01C0.50
%
T01
X011364Y080898
X010364Y080900
X009364Y080902
X008364Y080904
X007398Y080728
X006572Y083648
X007429Y083360
X007907Y082482
X008819Y082082
X009751Y081726
X010141Y082570
X010366Y083544
X011334Y083585
X007572Y066648
X008429Y066360
X008907Y065482
X009819Y065082
X010751Y064726
X011141Y065570
X011366Y066544
X012334Y066585
X012364Y064898
X011364Y064900
X010364Y064902
X009364Y064904
X008398Y064728
X007474Y064345
X008572Y050648
X009429Y050360
X009907Y049482
X010819Y049082
X011751Y048726
X012141Y049570
X012366Y050544
X013334Y050585
X013364Y048898
X012364Y048900
X011364Y048902
X010364Y048904
X009398Y048728
X008474Y048345
X009571Y034648
X010429Y034360
X010907Y033482
X011819Y033082
X012751Y032726
X013141Y033570
X013366Y034544
X014334Y034585
X014364Y032898
X013364Y032900
X012364Y032902
X011364Y032904
X010398Y032728
X009474Y032345
X010571Y018648
X011429Y018360
X011907Y017482
X012819Y017082
X013751Y016726
X014141Y017570
X014366Y018544
X015334Y018585
X015364Y016898
X014364Y016900
X013364Y016902
X012364Y016904
X011398Y016728
X010474Y016345
X034429Y083360
X034907Y082482
X035819Y082082
X036751Y081726
X037141Y082570
X037366Y083545
X038364Y080898
X037364Y080900
X036364Y080902
X035364Y080904
X034398Y080728
X033474Y080345
X034572Y066648
X035429Y066360
X035907Y065482
X036819Y065082
X037751Y064726
X038141Y065570
X038366Y066545
X039334Y066585
X039364Y064898
X038364Y064900
X037364Y064902
X036364Y064904
X035398Y064728
X034474Y064345
X040364Y048898
X039364Y048900
X038364Y048902
X037364Y048904
X036398Y048728
X035474Y048345
X034981Y049985
X035572Y050648
X036429Y050360
X036907Y049482
X037819Y049082
X038751Y048726
X039141Y049570
X039366Y050545
X040334Y050585
X036572Y034648
X037429Y034360
X037907Y033482
X038819Y033082
X039751Y032726
X040141Y033570
X040366Y034544
X041364Y031898
X040364Y031900
X039364Y031902
X038364Y031904
X037398Y031728
X036474Y031345
X037572Y017648
X038429Y017360
X038907Y016482
X039819Y016082
X040751Y015726
X041141Y016570
X041366Y017544
X042334Y017585
X042364Y015898
X041364Y015900
X040364Y015902
X039364Y015904
X038398Y015728
X037474Y015345
X027027Y087197
X027076Y088196
X026938Y089145
X026340Y089947
X026164Y090870
X026245Y091866
X026210Y092833
X029237Y090307
X028293Y090124
X027358Y089771
X027344Y088980
X027842Y088113
X028602Y087551
X028027Y070197
X028076Y071196
X027938Y072145
X027340Y072947
X027164Y073870
X027245Y074866
X027210Y075833
X030237Y073307
X029293Y073124
X028358Y072771
X028344Y071980
X028842Y071113
X029602Y070551
X029027Y054197
X029076Y055196
X028938Y056145
X028340Y056947
X028164Y057870
X028245Y058866
X028210Y059833
X031237Y057307
X030293Y057124
X029358Y056771
X029344Y055980
X029842Y055113
X030602Y054551
X030027Y038197
X030076Y039196
X029938Y040145
X029340Y040947
X029164Y041870
X029245Y042866
X029210Y043833
X032237Y041307
X031293Y041124
X030358Y040771
X030344Y039980
X030842Y039113
X031602Y038551
X031027Y022197
X031076Y023196
X030938Y024145
X030340Y024947
X030164Y025869
X034837Y024020
X034177Y023964
X033237Y024307
X032293Y024124
X031358Y023771
X031344Y022980
X031842Y022113
X032602Y021551
X031675Y005280
X032027Y006197
X032076Y007196
X031938Y008145
X031340Y008947
X031164Y009870
X031245Y010866
X034237Y008307
X033293Y008124
X032358Y007771
X032344Y006980
X032842Y006113
X033602Y005551
X054027Y087197
X054076Y088196
X053938Y089145
X053340Y089947
X053164Y090870
X053245Y091866
X053210Y092833
X056237Y090307
X055293Y090124
X054358Y089771
X054344Y088980
X054842Y088113
X055602Y087551
X055076Y071196
X054938Y072145
X054340Y072947
X054164Y073870
X054245Y074866
X054210Y075833
X053425Y076453
X057237Y074307
X056293Y074124
X055358Y073771
X055344Y072980
X055842Y072113
X056602Y071551
X060571Y083648
X061429Y083360
X061907Y082482
X062819Y082082
X063751Y081726
X064141Y082570
X064366Y083544
X065334Y083585
X065364Y081898
X064364Y081900
X063364Y081902
X062364Y081904
X061398Y081728
X060474Y081345
X062429Y067360
X062907Y066482
X063819Y066082
X064751Y065726
X065141Y066570
X065366Y067544
X066334Y067585
X066364Y065898
X065364Y065900
X064364Y065902
X063364Y065904
X062398Y065728
X061474Y065345
X063429Y051360
X063907Y050482
X064819Y050082
X065751Y049726
X066141Y050570
X066366Y051544
X067334Y051585
X067364Y048898
X066364Y048900
X065364Y048902
X064364Y048904
X063398Y048728
X064429Y034360
X064907Y033482
X065819Y033082
X066751Y032726
X067141Y033570
X067366Y034544
X068364Y031898
X067364Y031900
X066364Y031902
X065364Y031904
X064398Y031728
X063474Y031345
X065429Y017360
X065907Y016482
X066819Y016082
X067751Y015726
X068141Y016570
X068366Y017544
X069334Y017585
X069364Y015898
X068364Y015900
X067364Y015902
X066364Y015904
X065398Y015728
X064474Y015345
X056076Y055196
X055938Y056145
X055340Y056947
X055164Y057870
X055245Y058866
X055210Y059833
X054425Y060453
X058237Y058307
X057293Y058124
X056358Y057771
X056344Y056980
X056842Y056113
X057602Y055551
X057027Y038197
X057076Y039196
X056938Y040145
X056340Y040947
X056164Y041870
X056245Y042866
X056210Y043833
X059237Y041307
X058293Y041124
X057358Y040771
X057344Y039980
X057842Y039113
X058602Y038551
X058027Y021197
X058076Y022196
X057938Y023145
X057340Y023947
X057164Y024870
X057245Y025866
X057210Y026833
X060237Y024307
X059293Y024124
X058358Y023771
X058344Y022980
X058842Y022113
X059602Y021551
X059027Y005198
X059076Y006196
X058938Y007145
X058340Y007947
X058164Y008870
X058245Y009866
X058210Y010833
X061237Y008307
X060293Y008124
X059358Y007771
X059344Y006980
X059842Y006113
X060602Y005551
M30